<?xml version="1.0" standalone="no"?><!DOCTYPE svg PUBLIC "-//W3C//DTD SVG 1.1//EN" "http://www.w3.org/Graphics/SVG/1.1/DTD/svg11.dtd"><svg t="1658249746646" class="icon" viewBox="0 0 1024 1024" version="1.1" xmlns="http://www.w3.org/2000/svg" p-id="1053" xmlns:xlink="http://www.w3.org/1999/xlink" width="200" height="200"><defs><style type="text/css">@font-face { font-family: feedback-iconfont; src: url("//at.alicdn.com/t/font_1031158_u69w8yhxdu.woff2?t=1630033759944") format("woff2"), url("//at.alicdn.com/t/font_1031158_u69w8yhxdu.woff?t=1630033759944") format("woff"), url("//at.alicdn.com/t/font_1031158_u69w8yhxdu.ttf?t=1630033759944") format("truetype"); }
</style></defs><path d="M512 1024C230.4 1024 0 793.6 0 512S230.4 0 512 0s512 230.4 512 512-230.4 512-512 512z" fill="#EC6646" p-id="1054"></path><path d="M1023.624 526.76v-29.52c-0.832-29.032-4.016-57.504-9.544-85.168L576.8 206.768s-41.032-14.256-69.88-14.256-107.952 6.112-155.968 121.512c-26.056 62.64-29.072 30.544-43.944 168.352-14.88 137.8 55.44 197.544 55.44 197.544s-57.472 26.472-66.264 42.08c-8.784 15.616-8.784 111.336-8.784 111.336l197.92 189.952c8.84 0.472 17.736 0.712 26.68 0.712 276.648 0 503.72-222.416 511.624-497.24z" fill="#BF4231" p-id="1055"></path><path d="M719.136 717.96l-25.832-20.216-38.56-19.464-74.128-25.832-3.36 7.112 1.496-0.752 23.208 28.832 3.368 19.464-18.344 16.096-27.328-7.488-22.456-11.232-11.232-21.712-16.848 29.576v112.312h210.016l4.488-8.992zM373.224 676.408l-52.784 29.2-25.824 20.216-4.496 97.704 4.496 8.984h210.008V720.2l-4.488-26.944-23.584 19.088-22.464 11.232-14.6-5.616-13.472-12.352 3.36-17.968 14.6-16.856 2.248-10.104 1.128-6.736z" fill="#5BC1ED" p-id="1056"></path><path d="M373.224 355.208l-2.808 26.952-2.24 43.232s3.368 43.8 11.792 61.208 33.128 66.824 69.072 93.216c35.936 26.392 57.272 32.568 61.208 32.568 3.928 0 28.64-5.616 28.64-5.616s68.512-37.064 87.04-84.232c18.528-47.176 19.648-36.496 19.648-36.496l12.352-80.864-3.928-15.16-34.248 35.376-20.216-12.352-38.744-37.624-37.624-28.08-42.112-15.16-39.304-2.248-37.064 11.232-31.464 14.048z" fill="#F3D8C2" p-id="1057"></path><path d="M520.352 196.856l-71.88 13.472-53.904 34.816-41.56 60.648-17.968 50.536-20.208 70.752-6.744 61.768 1.128 59.528 8.976 51.664 17.976 42.672 28.08 32.576 68.504-20.224 20.216-5.608 11.224-47.168-2.24-13.48-35.944-31.448-34.816-49.416-17.968-48.288-6.736-57.28 3.368-34.816 8.984-14.6 61.768-19.088 51.664 1.12 50.536 23.584 39.312 35.936 30.32 29.2 17.968-11.224 22.464-21.344 3.368 35.936-7.856 42.68-13.48 38.184-21.336 32.568-33.696 38.184-14.6 14.6 4.496 31.448 8.976 26.952 32.576 8.984 33.696 12.36 28.072-29.2 24.712-31.448 19.088-58.408 3.368-67.376-8.984-66.264-20.216-76.368-33.688-66.264-33.696-37.056-44.928-25.832z" fill="#DD9D00" p-id="1058"></path><path d="M466.064 595.544l-2.248 26.96-14.224 34.44 16.472 11.224 34.448 12.728 5.24 33.696h5.24l18.712-35.944 22.472-2.24 28.448-17.968-11.976-41.936-4.496-23.952-23.216 11.232-26.2 7.48-32.944-8.232z" fill="#F3D8C2" p-id="1059"></path><path d="M511.712 616.84c-14.44 0-33.016-7.392-52.32-20.832-48.36-33.64-97.152-101.56-97.152-177.456 0-22.152 0-35.52 5.6-56.6a6.332 6.332 0 0 1 7.792-4.512 6.37 6.37 0 0 1 4.52 7.792c-5.176 19.464-5.176 31.488-5.176 53.328 0 71.296 46.056 135.256 91.696 167.016 16.936 11.784 33.36 18.544 45.048 18.544 54 0 136.744-83.128 136.744-185.56 0-4.552 0.088-7.8 0.168-10.432 0.192-6.528 0.256-8.728-1.632-18.856a6.372 6.372 0 0 1 5.096-7.432c3.424-0.648 6.776 1.632 7.432 5.096 2.136 11.48 2.048 14.64 1.84 21.568-0.072 2.536-0.168 5.664-0.168 10.056-0.016 113.136-90.688 198.28-149.488 198.28" fill="#474341" p-id="1060"></path><path d="M613.768 431.72c-17.752-10.408-32.176-25.04-46.12-39.192-12.088-12.264-24.592-24.952-38.976-34.456-44.792-29.6-118.4-24.816-160.752 10.416l-10.112-2.888c-3.992-12-6.016-24.088-6.016-35.96 0-74.32 72.904-134.784 162.504-134.784 79.88 0 143.544 60.256 168.88 116.24a6.346 6.346 0 0 1-3.176 8.416 6.354 6.354 0 0 1-8.424-3.176c-23.712-52.384-83.04-108.76-157.288-108.76-82.584 0-149.776 54.752-149.776 122.056 0 7.648 0.96 15.432 2.856 23.232 47.096-33.136 121.832-36.144 168.304-5.44 15.504 10.248 28.48 23.416 41.032 36.152 12.944 13.136 25.232 25.6 39.92 34.96 15.12-11.568 27.32-25.704 35.424-41.104a6.348 6.348 0 0 1 8.6-2.664 6.364 6.364 0 0 1 2.664 8.6c-9.616 18.256-24.352 34.856-42.624 48.008l-6.92 0.344zM728.544 836.784H290.272l-6.36-6.712s3.176-58.2 5.288-98.416c0.384-7.496 9.92-46.848 159.224-86.024a6.398 6.398 0 0 1 7.776 4.544 6.376 6.376 0 0 1-4.544 7.776c-57.168 15.008-148.376 48.464-149.736 74.376-1.68 31.96-4.032 75.272-4.92 91.728h424.832c-0.896-16.456-3.24-59.768-4.92-91.728-1.376-26-86.12-60.168-139.224-75.6a6.376 6.376 0 0 1-4.344-7.896 6.378 6.378 0 0 1 7.896-4.336c14.952 4.344 146.096 43.68 148.384 87.168 2.12 40.216 5.288 98.416 5.288 98.416l-6.368 6.704z" fill="#474341" p-id="1061"></path><path d="M529.384 686.08a6.368 6.368 0 0 1-0.744-12.688c18.096-2.152 34.048-8.736 44.528-18.256-8.76-17.944-13.472-36.448-14.008-55.064a6.382 6.382 0 0 1 6.184-6.552c3.56-0.032 6.448 2.672 6.552 6.184 0.52 18.12 5.464 36.192 14.68 53.712l-0.952 7.28c-12.304 13.376-32.528 22.616-55.48 25.336a6.254 6.254 0 0 1-0.76 0.048M502.592 687.76a6.06 6.06 0 0 1-0.76-0.048c-24.08-2.872-43.808-12.048-57.064-26.536l-0.904-7.336c9.224-16.992 14.344-34.472 15.24-51.976 0.176-3.512 3.216-6.376 6.68-6.032a6.364 6.364 0 0 1 6.032 6.688c-0.912 17.952-5.808 35.832-14.56 53.192 11.168 10.52 26.64 17.024 46.08 19.352a6.37 6.37 0 0 1-0.744 12.696M370.608 267.92c-41.504 62.616-62.624 135.424-67.016 210.096-4.16 70.816-0.352 150.12 57.344 199.416 6.2 5.296 15.248-3.672 9-9.008-56.824-48.544-58.28-128.632-53.112-197.976 5.224-69.92 25.92-137.48 64.776-196.104 4.544-6.848-6.488-13.24-10.992-6.424M648.528 678.424c67.832-49.504 83.736-134.904 76.4-214.208-5.488-59.304-19.96-134.696-59.224-182.152-5.224-6.32-14.192 2.736-9 9.008 15.368 18.576 24.392 43.32 32.12 65.8 11.368 33.04 19.24 67.536 22.88 102.304 7.896 75.568-4.12 160.472-69.592 208.256-6.56 4.784-0.216 15.84 6.416 10.992" fill="#474341" p-id="1062"></path><path d="M453.328 725.752h-0.176c-12.568-0.16-24.52-5.488-29.744-13.264-5.432-8.08-4.136-18.384 3.632-29.024 2.264-3.104 4.88-6.096 7.512-9.088 3.728-4.24 7.248-8.24 9.616-12.472a4.484 4.484 0 0 1 6.12-1.72 4.5 4.5 0 0 1 1.72 6.12c-2.832 5.048-6.832 9.6-10.704 14.008-2.44 2.784-4.896 5.568-7 8.448-3.808 5.208-7.488 12.68-3.432 18.72 3.536 5.264 12.952 9.168 22.4 9.288h0.104c6.528 0 25.704-7.216 36.312-17.688 4.64-4.584 7-9.072 7-13.336a4.488 4.488 0 1 1 8.976 0c0 6.752-3.248 13.392-9.672 19.728-12.424 12.264-33.784 20.28-42.664 20.28M577.24 725.752c-8.88 0-30.24-8.016-42.664-20.288-6.424-6.336-9.672-12.976-9.672-19.728a4.488 4.488 0 1 1 8.976 0c0 4.264 2.36 8.752 7 13.336 10.6 10.472 29.792 17.688 36.312 17.688h0.104c9.448-0.112 18.864-4.024 22.4-9.288 4.056-6.04 0.376-13.512-3.424-18.72-2.112-2.88-4.56-5.656-7-8.44-3.872-4.408-7.88-8.96-10.704-14.016a4.49 4.49 0 1 1 7.832-4.4c2.368 4.232 5.896 8.24 9.616 12.48 2.632 2.984 5.248 5.976 7.512 9.08 7.776 10.64 9.064 20.944 3.632 29.024-5.224 7.776-17.176 13.104-29.744 13.264h-0.176v0.008z" fill="#474341" p-id="1063"></path><path d="M500.032 679.272v145.176c0 5.776 8.984 5.792 8.984 0v-145.176c0-5.776-8.984-5.784-8.984 0M534.416 748.088c3.2 0 3.208-4.976 0-4.976-3.192 0-3.208 4.976 0 4.976M534.416 777.128c5.776 0 5.792-8.984 0-8.984-5.776 0-5.784 8.984 0 8.984M534.416 802.776c3.2 0 3.208-4.976 0-4.976-3.192 0-3.208 4.976 0 4.976" fill="#474341" p-id="1064"></path><path d="M504.512 728.392a4.49 4.49 0 0 1-4.048-6.432l21.344-44.632a4.496 4.496 0 0 1 5.992-2.112 4.49 4.49 0 0 1 2.112 5.992l-21.344 44.632a4.49 4.49 0 0 1-4.056 2.552" fill="#474341" p-id="1065"></path><path d="M602.816 278.28c23.992 24.096 38.664 53.824 43.512 87.448 0.824 5.696 9.48 3.28 8.664-2.384-5.056-35.056-20.856-66.336-45.824-91.408-4.08-4.112-10.44 2.24-6.352 6.344M641.584 653.776a388.734 388.734 0 0 0 19.232-25.208c3.328-4.752-4.464-9.24-7.76-4.536a363.416 363.416 0 0 1-17.824 23.392c-3.664 4.424 2.656 10.808 6.352 6.352M669.96 617.312c12.6-15.296 21.136-32.736 25.112-52.168 1.152-5.648-7.504-8.056-8.664-2.384-3.664 17.888-11.176 34.08-22.8 48.2-3.656 4.432 2.672 10.824 6.352 6.352" fill="#B77917" p-id="1066"></path></svg>