<?xml version="1.0" standalone="no"?><!DOCTYPE svg PUBLIC "-//W3C//DTD SVG 1.1//EN" "http://www.w3.org/Graphics/SVG/1.1/DTD/svg11.dtd"><svg t="1658254345294" class="icon" viewBox="0 0 1024 1024" version="1.1" xmlns="http://www.w3.org/2000/svg" p-id="2232" xmlns:xlink="http://www.w3.org/1999/xlink" width="200" height="200"><defs><style type="text/css">@font-face { font-family: feedback-iconfont; src: url("//at.alicdn.com/t/font_1031158_u69w8yhxdu.woff2?t=1630033759944") format("woff2"), url("//at.alicdn.com/t/font_1031158_u69w8yhxdu.woff?t=1630033759944") format("woff"), url("//at.alicdn.com/t/font_1031158_u69w8yhxdu.ttf?t=1630033759944") format("truetype"); }
</style></defs><path d="M1001.472 640.414V450.26c0-274.66-97.134-356.878-233.42-356.878s-233.42 82.216-233.42 356.878v190.168z" fill="#F6E080" p-id="2233"></path><path d="M512.116 971.572H10.324A10.324 10.324 0 0 1 0 961.246v-181.792c0-109.06 88.41-197.468 197.468-197.468h117.178c109.06 0 197.47 88.41 197.47 197.47z" fill="#9EC8FC" p-id="2234"></path><path d="M0 934.402l0.008-154.95c0-109.052 88.402-197.474 197.454-197.474h117.188c109.052 0 197.474 88.422 197.474 197.474l18 72.466-18 82.484-256.062 18z" fill="#9EC8FC" p-id="2235"></path><path d="M10.324 971.572h75.34l15.488-18 15.488 18h278.832l15.49-18 15.484 18h85.67l18-18.582-18-18.588H0v26.844a10.324 10.324 0 0 0 10.324 10.326z" fill="#80B6FC" p-id="2236"></path><path d="M238.176 662.854c8 13.48 27.514 13.48 35.516 0l47.914-80.728c-2.35-0.082-4.708-0.14-7.078-0.14H197.352c-2.374 0-4.734 0.058-7.088 0.14z" fill="#E2AE84" p-id="2237"></path><path d="M116.638 803.944v130.458l-15.488 18-15.488-18v-130.458a15.492 15.492 0 0 1 15.488-15.488 15.48 15.48 0 0 1 15.488 15.488zM426.448 803.944v130.458l-15.49 18-15.484-18v-130.458a15.492 15.492 0 0 1 15.488-15.488 15.492 15.492 0 0 1 15.486 15.488z" fill="#6EAAF3" p-id="2238"></path><path d="M44.366 401.846c-80.006-131.44 22.542-318.618 139.56-344.574 101.778-22.576 139.626 40.978 139.626 40.978s19.436-15.348 74.684 4.346c99.014 35.294 142.4 168.236 66.026 283.176l-4.208 6.092z" fill="#26457D" p-id="2239"></path><path d="M40.138 410.532c0 21.468 19.79 54.316 42.764 54.316l12.944-19.762 23.054-20.522-23.134-48.596a54.218 54.218 0 0 0-5.524-0.284c-22.974 0-42.556 14.5-50.104 34.848z" fill="#E2AE84" p-id="2240"></path><path d="M90.24 445.378c-22.974 0-42.556-14.502-50.104-34.848a53.29 53.29 0 0 0-3.324 18.58c0 29.508 23.92 53.428 53.428 53.428 3.734 0 7.376-0.386 10.892-1.114l12.622-20.768-17.91-15.572a53.44 53.44 0 0 1-5.604 0.294z" fill="#D7A379" p-id="2241"></path><path d="M471.86 410.532c0 21.468-19.79 54.316-42.764 54.316l-12.946-19.762-23.054-20.522 23.134-48.596a54.188 54.188 0 0 1 5.524-0.284c22.976 0 42.558 14.5 50.106 34.848z" fill="#E2AE84" p-id="2242"></path><path d="M421.758 445.378c22.972 0 42.554-14.502 50.104-34.848a53.29 53.29 0 0 1 3.324 18.58c0 29.508-23.92 53.428-53.428 53.428-3.734 0-7.376-0.386-10.892-1.114l-12.622-20.768 17.91-15.572c1.84 0.194 3.71 0.294 5.604 0.294z" fill="#D7A379" p-id="2243"></path><path d="M256.058 581.402c126.546 0 160.27-89.754 160.27-178.27v-49.174a10.294 10.294 0 0 0-6.034-9.374c-58.328-26.498-91.44-81.552-104.522-107.876-3.274-6.59-12.162-7.756-17.016-2.226-71.97 81.992-158.252 105.614-184.8 111.18a10.3 10.3 0 0 0-8.17 10.096v47.376c0.002 88.512 43.224 178.268 160.272 178.268z" fill="#F0C69E" p-id="2244"></path><path d="M85.664 934.402h30.974v37.176H85.664zM395.47 934.402h30.974v37.176h-30.974z" fill="#5D9EE6" p-id="2245"></path><path d="M256.058 563.402c-88.514 0-160.27-71.754-160.27-160.27v37.17c0 88.516 71.756 160.27 160.27 160.27 88.514 0 160.27-71.754 160.27-160.27v-37.17c0 88.514-71.756 160.27-160.27 160.27z" fill="#E6BA94" p-id="2246"></path><path d="M840.716 563.172H695.4c-65.042 0-123.03 30.164-160.768 77.254v65.688h466.842v-65.702c-37.74-47.082-95.724-77.24-160.758-77.24z" fill="#ECCD61" p-id="2247"></path><path d="M1024 934.402l-255.942 18-255.942-18v-155.266c0-109.01 88.37-197.38 197.38-197.38h117.124c109.01 0 197.38 88.37 197.38 197.38z" fill="#DC4955" p-id="2248"></path><path d="M512.116 971.572h85.622l15.488-18 15.488 18h278.758l15.418-18 15.556 18h75.228a10.326 10.326 0 0 0 10.326-10.326v-26.844H512.116z" fill="#D82F3C" p-id="2249"></path><path d="M768.052 660.166c67.372 0 65.818-75.266 65.73-78.264a202.716 202.716 0 0 0-7.162-0.144h-117.124a198.58 198.58 0 0 0-7.172 0.144c-0.09 3.004-1.638 78.264 65.728 78.264z" fill="#E2AE84" p-id="2250"></path><path d="M613.156 843.584h309.802v64.028H613.156z" fill="#F6E080" p-id="2251"></path><path d="M628.712 803.53v130.872l-15.556 18-15.418-18v-130.872a15.494 15.494 0 0 1 15.488-15.488 15.494 15.494 0 0 1 15.486 15.488zM938.378 803.53v130.872l-15.488 18-15.488-18v-130.872a15.494 15.494 0 0 1 15.488-15.488 15.496 15.496 0 0 1 15.488 15.488z" fill="#C42D41" p-id="2252"></path><path d="M768.058 581.172c106.782 0 160.192-89.718 160.198-178.188v-20.536a10.34 10.34 0 0 0-5.692-9.228c-21.214-10.702-96.958-52.692-145.79-128.74-4.094-6.374-13.338-6.374-17.432 0-48.832 76.05-124.576 118.04-145.79 128.74a10.334 10.334 0 0 0-5.692 9.228v20.532c0.002 88.474 44.154 178.192 160.198 178.192z" fill="#F0C69E" p-id="2253"></path><path d="M597.738 934.402h30.974v37.176h-30.974zM907.472 934.402h30.974v37.176h-30.974z" fill="#B72D47" p-id="2254"></path><path d="M768.058 563.172c-88.476 0-160.198-71.722-160.198-160.198v37.17c0 88.476 71.724 160.198 160.198 160.198s160.198-71.722 160.198-160.198v-37.17c0 88.476-71.724 160.198-160.198 160.198z" fill="#E6BA94" p-id="2255"></path><path d="M690.82 375.138a15.52 15.52 0 0 0-15.522 15.52v35.992c0 8.572 6.948 15.52 15.522 15.52s15.52-6.95 15.52-15.52v-35.992a15.52 15.52 0 0 0-15.52-15.52zM846.41 442.172a15.52 15.52 0 0 0 15.52-15.52V390.66a15.52 15.52 0 0 0-15.52-15.52 15.52 15.52 0 0 0-15.522 15.52v35.992a15.52 15.52 0 0 0 15.522 15.52zM177.67 375.272a15.52 15.52 0 0 0-15.52 15.522V426.8a15.52 15.52 0 1 0 31.042 0v-36.008a15.52 15.52 0 0 0-15.522-15.52zM333.33 442.322a15.522 15.522 0 0 0 15.522-15.522v-36.008a15.52 15.52 0 1 0-31.042 0V426.8a15.52 15.52 0 0 0 15.52 15.522z" fill="#5E6B75" p-id="2256"></path><path d="M305.58 497.112a15.548 15.548 0 1 0-28.752-11.842c-0.038 0.09-4.458 9.044-20.772 9.044s-20.732-8.954-20.772-9.044a15.548 15.548 0 0 0-28.752 11.842c4.328 10.51 19.63 28.298 49.522 28.298s45.198-17.788 49.526-28.298zM817.576 497.112a15.548 15.548 0 1 0-28.75-11.842c-0.04 0.09-4.458 9.044-20.772 9.044s-20.732-8.954-20.77-9.044a15.55 15.55 0 0 0-28.752 11.842c4.328 10.51 19.63 28.298 49.522 28.298s45.194-17.788 49.522-28.298z" fill="#DC4955" p-id="2257"></path></svg>