<svg id="图层_1" data-name="图层 1" xmlns="http://www.w3.org/2000/svg" viewBox="0 0 1847.5 1820.16"><title>光谱</title><path d="M1662.6,1506.71c-10.65,16.61-20.21,31.54-30.15,47.06l250,221.76c.54-.56,1.06-1.13,1.6-1.69C1810.51,1685.18,1737,1596.52,1662.6,1506.71Zm-7.71-192.38c-1.39,1.81-2.2,2.38-2.2,2.94,0,40.35,0,80.71.41,121,.05,4.43,2.38,9.39,5.05,13.11q108.06,150.33,216.5,300.42c2.15,3,4.55,5.78,6.82,8.66.69-.49,1.38-1,2.06-1.44Q1769.37,1537,1654.89,1314.33Zm-60.84-230.94c-14.65-64.26-42.09-122.16-86.55-171.32-3.4-3.77-9.25-7.83-13.8-7.66-41.09,1.66-82.13,4.26-126.92,6.78l231.31,206C1598.31,1104.81,1596.5,1094,1594.05,1083.39ZM725,327.07c-41.46,72.75-81.86,143.6-123.46,216.55,95.76-13.51,189.56-17.33,286.64-9.3C833.06,464.31,779.76,396.62,725,327.07Zm334.77,1371.2q-446.32-242.34-894.12-485c-1.23,19.11-2,35.38-3.45,51.58-.61,6.81,1.93,10.18,7.93,13,42.26,20.16,84.35,40.67,126.51,61q330.07,159.19,660.15,318.38c33.7,16.22,67.55,32.13,104.06,49.5C1060.28,1701.7,1060.69,1698.76,1059.76,1698.27Zm-128.62,21.9,14-2.35L40.76,1557.14c-1.45,14.29-2.67,26.68-4.26,42.41Q482.06,1660,923.26,1719.9q-440.34-36.59-884.75-73.56v80.37h914.8c.05-.86.1-1.72.12-2.57C946.9,1723,940.36,1721.81,931.14,1720.17Zm-783-394.9c-4.29,37.54-8.15,74.4-12.93,111.13-1.37,10.59,5.61,11,12,12.87q451.57,134.64,903.18,269.19c3.94,1.17,8,1.93,13.26,3.16C1059.93,1712.61,196.25,1340.13,148.12,1325.27Zm821.66-95.09c13.56,12.84,27.09,25.74,40.7,38.51,13.46,12.63,27,25.16,41.33,38.42,10.3-48.5,9.64-117.63-1.22-145.09-39.33,13-78.34,27.16-118.2,38.45-23.08,6.55-40.06,17.15-48.9,40.11-2.84,7.44-8.44,13.87-13.14,20.53-1.61,2.3-4.31,3.86-8.93,7.9,1-8.54,1-13.85,2.35-18.79,5.63-20.83,12.28-41.38,17.3-62.33,2.72-11.36,8.54-16.5,19.77-19.51,43.9-11.74,87.51-24.59,133.59-37.68-6.29-2.6-10.32-4.38-14.46-5.92-40.08-14.76-80.29-29.22-120.18-44.49A27.17,27.17,0,0,1,886.45,1068c-13.36-27-25.77-54.42-38.54-81.69-1.37-2.91-2.35-6.63-4.7-8.37-21.44-15.85-43.12-31.37-67.27-48.82,6.66,21.78,12.87,40.24,17.72,59,1.42,5.51.73,12.94-1.94,17.91-18.82,35.19-38,70.21-58,104.69-6.1,10.5-5.71,16.67,2.74,25.92,77.25,84.52,153.85,169.59,230.67,254.5,21.53,23.82,43.09,47.58,65.56,72.37,1.37-3.67,2.74-5.78,2.86-8,1.91-32.49,3.89-65,5.09-97.49.15-4-3.33-9-6.46-12.19-20.51-21-41.43-41.6-62.08-62.45-2.5-2.52-6-5.68-6.1-8.66-.63-14.69-.29-29.44-.29-44.15C967,1230.49,968.41,1230.32,969.78,1230.18Zm-153.9-182,56.43,41.58-123.44,30.52C772.44,1094.87,793.71,1072,815.88,1048.15ZM336.92,857c-4.61,33.33-8.64,63.6-13,93.85-1,7.07.61,12,6.29,16.93q192.17,166.7,383.93,333.87,218.49,191.43,435.94,384c.88.78,1.76,1.61,2.62,2.45,1.45,1.39,2.86,2.86,4.26,4.3q-51.17-41.14-102.34-82.35l-743-598c-7.76,41.67-15.27,80.41-21.73,119.32-.62,3.65,4.52,9.74,8.54,12.41Q618.9,1358.51,939.7,1572.73q154.54,103.29,309.06,206.54c8,5.34,16.88,9.42,25.35,14.1.91-1.4,1.81-2.79,2.74-4.19Q807.58,1323.81,336.92,857Zm1272.84,378c4.21-20.19-2.64-35.26-16.07-49.75q-128.93-138.94-257.15-278.49c-3.35-3.67-6.54-7.51-12.29-14.12h130.46c-4-6.73-6.8-11.67-9.88-16.44-2.4-3.77-5-7.44-7.76-11C1349.46,751.7,1233.85,680.15,1097.64,640c-95.8-28.25-193.84-35-293-26.17-66.61,5.93-133.44,13.37-195.82,39.09-50.73,20.9-99.87,45.78-149.57,69.18-24.62,11.62-48.92,23.91-75.25,36.8l318.13,348.29c1.13-5.19,2.11-8.62,2.62-12.12q9-61.66,17.94-123.36c3.2-22.56,9.54-45.32,8.54-67.71-2.16-48.38-8.2-96.59-12.56-144.88-1.42-15.83-2.52-31.66-3.76-47.5,1.07-.36,2.15-.73,3.23-1.07a32.83,32.83,0,0,0,2.61,4.08Q798.92,807.11,877,899.66c3.28,3.91,5.53,9,7.19,13.9,13.39,39.69,26.75,79.41,39.6,119.27,2.76,8.57,7.27,13.17,15.9,16.23,29.57,10.4,58.76,21.85,88.1,32.84,3.94,1.47,8,2.64,14.1,4.65C993.91,932.92,902.16,815.89,770.51,728.87a29.92,29.92,0,0,1,9.12,3.6A654.68,654.68,0,0,1,945,861c33.43,35.92,65,73.78,86.59,117.9,47.81,97.87,73.48,201.92,77.06,310.77,1.34,41.82-2.72,83.82-3.53,125.74-.56,28.8-4.67,56.84-14.68,83.79-3.26,8.78-2.13,14.56,4.16,21.61q150.54,168.86,300.49,338.22c2.81,3.18,4.48,7.39,6.68,11.11,5.14-7.32,6.92-11.4,8.52-15.59,26.28-68.3,59.19-133.3,100.33-193.81,29.32-43.1,60.32-85,91.06-127.18,6.68-9.16,8.64-18.58,8.52-29.57q-1.26-118-1.74-236C1608.42,1257,1607.54,1245.62,1609.76,1235ZM1174,1045c-22.71-34.73-46.71-68.74-67.32-104.72-41-71.63-100.43-123.63-171.33-162.83-41.53-23-85.45-41.56-128.33-62.09-2.13-1-4.25-2-5.87-4.08,105.52,21,200.91,63.55,282.36,134.81,70.13,61.35,121.64,135.67,153.73,223.06-.91,1.08-1.79,2.15-2.69,3.21-16.82-5.71-33.8-11-50.37-17.4C1180.07,1053.37,1176.52,1048.94,1174,1045Zm73.64,141.42c-1,41.5-1,83.13-4.29,124.46-6.36,79.34-22.31,157-45.9,233a25.35,25.35,0,0,1-4.36,8.66c23.57-139.93,25.57-280,3.25-420.23l2.82-1.34c15.2,12.57,30.91,24.64,45.22,38.15C1247.83,1172.45,1247.75,1180.57,1247.61,1186.42Zm140.15,601.93c-13.85-12.94-28.32-26.43-41.63-38.88,25.55-13.32,50.56-26.38,71.68-37.42C1409.19,1734,1398.67,1760.67,1387.76,1788.35Zm186.57-394.48c-20.43-16-39.57-30.86-59.2-46.18-46.84,50.24-93.16,99.89-139.49,149.57l-2.2-1.17c29.44-63.85,58.86-127.7,88.61-192.33q-141.79-111-283-221.44c.34-.62.69-1.23,1-1.84,20.73,9,41.48,17.94,62.21,27q150.42,65.79,301,131.42c8,3.5,11.5,7.8,12.68,16.66,5.65,42,12.21,83.79,18.33,125.69C1574.75,1384.67,1574.33,1388.21,1574.33,1393.87Z" transform="translate(-36.5 -50)"/><path d="M921,50q79.29,137.55,158.59,275.09,84.9,147,169.93,294c1.61,2.79,3.17,5.6,5.86,10.36-4.27-1.27-6.71-1.77-9-2.7q-122.29-50.87-244.47-102a33.59,33.59,0,0,1-14.2-12.13c-51.21-79.42-101.94-159.16-153.21-238.54-4.48-6.94-4.09-12.22-1.2-19.07q40.9-96.69,81.41-193.54c1.55-3.7,2.55-7.63,3.8-11.45Z" transform="translate(-36.5 -50)"/><path d="M311.63,1012.1l848.82,683.17-.13.61c-3.41-3.41-6.65-7-10.26-10.2q-217.9-192.09-435.94-384Q522.76,1134,330.19,967.8c-5.67-4.92-7.31-9.86-6.28-16.93,4.36-30.23,8.41-60.5,13-93.84l939.93,932.15-2.72,4.18c-8.47-4.66-17.34-8.74-25.35-14.09q-154.63-103.11-309.06-206.53Q619,1358.38,298.44,1143.84c-4-2.68-9.14-8.77-8.54-12.41C296.36,1092.52,303.87,1053.77,311.63,1012.1Z" transform="translate(-36.5 -50)"/><path d="M969.78,1230.18c13.56,12.84,27.09,25.74,40.7,38.51,13.46,12.63,27,25.16,41.33,38.42,10.3-48.5,9.64-117.63-1.22-145.09-39.33,13-78.34,27.16-118.2,38.45-23.08,6.55-40.06,17.15-48.9,40.11-2.84,7.44-8.44,13.87-13.14,20.53-1.61,2.3-4.31,3.86-8.93,7.9,1-8.54,1-13.85,2.35-18.79,5.63-20.83,12.28-41.38,17.3-62.33,2.72-11.36,8.54-16.5,19.77-19.51,43.9-11.74,87.51-24.59,133.59-37.68-6.29-2.6-10.32-4.38-14.46-5.92-40.08-14.76-80.29-29.22-120.18-44.49A27.17,27.17,0,0,1,886.45,1068c-13.36-27-25.77-54.42-38.54-81.69-1.37-2.91-2.35-6.63-4.7-8.37-21.44-15.85-43.12-31.37-67.27-48.82,6.66,21.78,12.87,40.24,17.72,59,1.42,5.51.73,12.94-1.94,17.91-18.82,35.19-38,70.21-58,104.69-6.1,10.5-5.71,16.67,2.74,25.92,77.25,84.52,153.85,169.59,230.67,254.5,21.53,23.82,43.09,47.58,65.56,72.37,1.37-3.67,2.74-5.78,2.86-8,1.91-32.49,3.89-65,5.09-97.49.15-4-3.33-9-6.46-12.19-20.51-21-41.43-41.6-62.08-62.45-2.5-2.52-6-5.68-6.1-8.66-.63-14.69-.29-29.44-.29-44.15C967,1230.49,968.41,1230.32,969.78,1230.18Zm-153.9-182,56.43,41.58-123.44,30.52C772.44,1094.87,793.71,1072,815.88,1048.15Z" transform="translate(-36.5 -50)"/><path d="M148.12,1325.26c48.12,14.87,911.82,387.36,915.54,396.36-5.25-1.24-9.33-2-13.28-3.16q-451.61-134.55-903.17-269.18c-6.42-1.91-13.39-2.28-12-12.89C140,1399.66,143.83,1362.82,148.12,1325.26Z" transform="translate(-36.5 -50)"/><path d="M945.13,1717.82l-14,2.34,22.31,4-.13,2.57H38.51v-80.38l884.76,73.58L36.5,1599.56c1.58-15.74,2.82-28.12,4.25-42.41Z" transform="translate(-36.5 -50)"/><path d="M1060.85,1706.77c-36.53-17.37-70.38-33.28-104.06-49.52q-330.1-159.13-660.16-318.38c-42.17-20.35-84.26-40.86-126.51-61-6-2.86-8.54-6.23-7.93-13,1.45-16.21,2.22-32.48,3.45-51.59Q614,1456.34,1059.77,1698.27C1060.68,1698.77,1060.27,1701.7,1060.85,1706.77Z" transform="translate(-36.5 -50)"/><path d="M725,327.08,888.18,534.31c-97.08-8-190.89-4.19-286.64,9.32Z" transform="translate(-36.5 -50)"/><path d="M1366.77,911.18c44.81-2.52,85.84-5.1,126.91-6.76,4.56-.19,10.42,3.88,13.82,7.64,44.47,49.17,71.89,107.08,86.56,171.34,2.43,10.64,4.26,21.41,4,33.79Z" transform="translate(-36.5 -50)"/><path d="M1654.89,1314.32l228.65,444.73-2.06,1.45c-2.28-2.89-4.69-5.68-6.84-8.67q-108.33-150.13-216.5-300.41c-2.67-3.71-5-8.69-5-13.1-.47-40.34-.4-80.69-.42-121C1652.69,1316.72,1653.49,1316.15,1654.89,1314.32Z" transform="translate(-36.5 -50)"/><path d="M1632.44,1553.77l30.15-47.07L1884,1773.84l-1.59,1.69Z" transform="translate(-36.5 -50)"/><path d="M1246.63,1197.73" transform="translate(-36.5 -50)"/></svg>