<svg id="图层_1" data-name="图层 1" xmlns="http://www.w3.org/2000/svg" viewBox="0 0 1804.59 1697.64"><defs><style>.cls-1{fill:#fff;}</style></defs><title>利刃</title><path class="cls-1" d="M1487.27,1495c-1.6-3.38-3.68-4.6-7.52-4.58-32.06.17-64.12.09-96.18.11-1.55,0-3.11.18-5.78.35,3.37,4.45,6.35,7.73,8.57,11.45,4.38,7.38,10.76,9.94,19.07,9.91,29.13-.12,58.26.08,87.39.13a21.2,21.2,0,0,0,3.23-.55C1492.92,1505.85,1489.9,1500.5,1487.27,1495Zm-334.58-891.8c-5.15-9.21-9.92-18.65-15.15-27.81-8-14-16.2-27.8-24.36-41.66-2.2-3.74-7.15-4.67-8.44-1.49-2.48,6.11-4.38,12.46-6.34,18.2.84,2.91,1.07,5.09,2.06,6.85,13.7,24.34,27.45,48.66,41.46,72.83.86,1.49,4,2.26,6,2.2,1.14,0,2.7-2.3,3.23-3.85,1.31-3.81,2-7.84,3.18-11.71A16.52,16.52,0,0,0,1152.69,603.17ZM523.51,1261.52c-.59-1-3.18-1.51-4.78-1.35-3.21.33-6.34,1.28-9.52,1.93-6.51,1.32-11.48,4.38-15,10.47-8.71,15.24-18,30.14-26.87,45.28-6.42,10.93-12.61,22-18.83,33-1.9,3.38.05,7.57,3.65,7.5,4.43-1,9.14-2.16,13.89-3.14a16.47,16.47,0,0,0,11.47-8.21c15.48-26.52,31.1-53,46.46-79.55C524.88,1266,524.42,1263.14,523.51,1261.52Zm944.05,199.61q-21.75-37.26-43.55-74.48c-3.55-6.06-9-8.49-15.9-8.48q-57.6,0-115.21,0c-1.67,0-3.35.18-5.63.32a26.82,26.82,0,0,0,1.82,3.13c7.85,9.31,15.29,19,23.69,27.81,17,17.77,34.35,35.12,51.82,52.39a13.58,13.58,0,0,0,8.6,3.29c30.26.31,60.53.29,90.79.35,1.56,0,3.11-.16,5.24-.28A35.1,35.1,0,0,0,1467.56,1461.13Zm-337.88-798v0a21,21,0,0,0-2.86-7.87c-10-17.08-19.88-34.26-29.82-51.4-5.2-9-10.44-17.9-16.33-28-3.77,6.42-7,11.82-10.12,17.25q-17.49,30.11-35,60.23a20.3,20.3,0,0,0-3.16,10.65,19,19,0,0,0,2.91,9.4c18.32,31.23,36.16,62.74,54.19,94.13.77,1.34,1.74,2.56,3,4.43,1.58-2.06,2.79-3.51,3.87-5.06A117.52,117.52,0,0,0,1114,730.72c5.4-19.66,9.7-39.61,15-59.29A20.58,20.58,0,0,0,1129.68,663.16ZM659.24,1239.54c-31.13,6.85-62.12,14.33-93.28,21-7.15,1.53-11.33,5-14.76,11-12.14,21.3-24.62,42.4-36.94,63.6-4,6.84-7.89,13.73-12.2,21.23a18.46,18.46,0,0,0,2.76.59c29.43,0,58.86-.06,88.28-.23,7.64,0,13.16-3.13,17.23-10.32,18.94-33.5,38.39-66.7,57.64-100,.76-1.33,1.36-2.75,2.69-5.46C666.17,1240.35,662.46,1238.83,659.24,1239.54Zm602.59,257.72c-1.83-7.12-2.39-7.57-9.78-7.8-1,0-2,0-2.92,0q-252.11,0-504.19.17c-4.74,0-9.75,2-14.15,4.07-4.2,2-7.84,5.21-11.59,8.06a4,4,0,0,0-1.53,3c.88,5.39,3.71,7.64,9.15,7.64h538.9C1264.3,1506.89,1263.07,1502.07,1261.83,1497.26Zm-427-807.66c-3.85-.59-4.73,1.83-6.09,4.18Q697.06,921.18,565.38,1148.6c-.88,1.52-1.68,3.08-2.9,5.33l10,3.23c13.26,4.23,13.2,4.19,20.13-7.78Q638.2,1070.71,683.8,992q77-133.39,153.83-266.92a22,22,0,0,0,3-9.08c.45-6.6-.23-13.28.21-19.88C841.2,691.31,839,690.24,834.83,689.6Zm384.78,27.65c-4.36,4-8,7.23-11.51,10.58-5.34,5.07-5.52,6.27-2.25,13,.42.87,1,1.67,1.49,2.51q89,153.8,177.93,307.59,37.59,65,75.11,130c7.44,12.86,20.51,17.33,34.41,11.44ZM897.39,826.36c-10.72-20-20.66-40.48-31-60.74-3.28-6.46-6.7-12.86-10.66-20.45-82.83,143.1-165,285.09-247.54,427.61a26.58,26.58,0,0,0,3.26.66c16.22.71,32.45,1.36,48.67,2.09,10.54.47,21.13.52,31.58,1.75,11,1.31,18-2.74,23.52-12.25q56.21-97.56,112.87-194.85c22.88-39.51,45.58-79.13,68.47-118.63C901.45,843.17,902.19,835.33,897.39,826.36Zm359.92,636.47c-10.61-23.52-21.13-47.08-31.91-70.53-4.45-9.65-12.4-14.17-23-14.2-81.67-.2-163.34-.55-245-.62-42.61,0-85.22.55-127.84.52-9.33,0-16.54,3.49-21.86,10.58-18.26,24.3-36.25,48.8-54.32,73.25a24.82,24.82,0,0,0-1.76,3.48h506.36A19.18,19.18,0,0,0,1257.31,1462.83Zm-76.45-714.37c-1.37,1.88-2.2,2.84-2.84,3.91-14.86,25-29.63,50-44.59,75a13.88,13.88,0,0,0-.77,13.44,67.16,67.16,0,0,0,3.77,7.36q81.38,140.7,162.77,281.37,10.5,18.13,21.11,36.21c3.21,5.43,7.09,10.6,13.78,11.45,11.25,1.43,22.58,2.21,33.89,3.17q22.3,1.89,44.61,3.6c6.71.52,13.43.87,21.46,1.38Zm2.23-660.33a2.23,2.23,0,0,0-.93-.65,1.94,1.94,0,0,0-1.4.31,18.51,18.51,0,0,0-2.23,1.56c-.6.45-.84,1.37-1.25,2.07q-34.5,59.73-69,119.47L869.22,625l-3.93,6.8c-.87,1.5-1.69,3-2.59,4.66l17.88,16.13q128.67-222,256.91-443.26L1148.15,191l6.15,3.15a16.77,16.77,0,0,1-.54,1.95c-19.14,42.65-37,85.91-57.78,127.76-20.34,41-43,80.91-65.68,120.69-42.44,74.37-85.64,148.31-128.63,222.37-1.87,3.21-2,5.11.92,7.8,14.89,13.84,29.56,27.92,44.32,41.9,5.73,5.42,11.52,10.78,17.75,16.62,3.67-5.9,7.05-11,10.12-16.35q82.14-142.26,164.2-284.58c7.71-13.37,15.59-26.67,22.65-40.39a102.38,102.38,0,0,0,9.52-29.55c2.06-11.75,2.71-23.8,3.46-35.79q2.07-33.29,3.77-66.61c0-.34,0-.7,0-1.06l0-.67c1.08-22,2-44.1,2.9-66.16.07-1.67.14-3.37.22-5.12.07-1.6.14-3.09.2-4.46.27-5.53.54-11.07.72-16.6,0-.64,0-1.09.06-1.5l0-.81q.32-11.25.61-22.51.66-25,1.18-50.1A4.7,4.7,0,0,0,1183.09,88.13Zm341,1129.33c-.46-3.29-2-4.86-5.51-4.39-2.89.38-5.88.06-8.74.56-40.21,6.92-80.51,13.39-120.58,21.09q-54.35,10.44-108.22,23.27c-20.75,5-40.88,12.52-61.38,18.6-11.13,3.3-17.21-.74-19.31-11.92-.47-2.49,0-3.78,2.84-4.4,11.09-2.37,22.1-5.08,33.14-7.63q23.85-5.52,47.7-11a11.63,11.63,0,0,0-5.94-1.86c-23.3-1-46.37,1.21-69.31,5.07-14.87,2.5-29.29-4.87-33.21-25.48,13.67-.63,27.28-1.56,40.89-1.77,13-.2,26,.57,39,.54,26.18-.07,52.36-.39,78.53-.64,22.13-.21,44-3,65.72-6.94,3.67-.67,7.27-1.68,12-2.78-1.6-.93-2-1.3-2.37-1.35-19.57-2.65-39.08-6-58.73-7.66-17-1.39-34.12-.92-51.18-1q-37.92-.12-75.83,0l-32.55,0c-1.77,0-3.55.35-5.33.44-10.52.57-17.8-.18-23.7-3.74-4.32-2.61-7.89-6.73-11.45-13q-37.41-65.38-75.13-130.6c-12.81-22.25-25.8-44.4-38.34-66.81-2.78-5-5.31-10.75-5.67-16.31-.86-13,9.81-19.5,17.21-28.43l73.32,79,1.4-1.11c-7.7-12.4-15-25.1-23.2-37.12q-3.11-4.53-6.3-9c-9.06-12.8-18.48-25.35-27.77-38-3.94-5.36-6-10.33-6.08-14.95-.13-6.22,3.24-11.82,10.21-17l30.71,27.44,2.52-2.05,1.47-1.19c-9.59-11.9-18.37-23-27.42-33.86a6.26,6.26,0,0,1-1.63-3.28,6.33,6.33,0,0,1,1.21-3.9c14.42-23.95,28.52-48.09,43-72,20.81-34.43,43.41-67.57,70.67-97.35,11.84-12.94,24.72-25.32,34.34-39.8,14.79-22.28,27.25-46.11,40.56-69.36,6.52-11.41,12.72-23,19.22-34.8l-4.51-3.42-59.75,47.45c4.17-25.81,8.11-50.23,12-74.64l-1.37-.43c-1.28,1.62-2.61,3.21-3.85,4.86a493.35,493.35,0,0,0-41.72,66.39c-8.74,16.53-17.16,33.16-24.76,50.14-.39.87-.78,1.73-1.16,2.6a448.2,448.2,0,0,0-21,56.62,310.89,310.89,0,0,1-35,78.51c-10,16-19.33,32.37-28.89,48.61-3.6,6.12-7,12.35-10.84,19.08q-3.94-4-7.88-8L901,700.54q-33.54-34.21-67.13-68.45l-3.46,3.26-1.68,1.6L825,640.46,916.7,742l75.22,83.22,58.15,64.35.53.58-8.52,12.75c-5-5.31-9.5-10-13.94-14.74-17.23-18.4-34.42-36.85-51.76-55.15a4.43,4.43,0,0,0-2-1c-1-.27-2.09-.42-3-.72,0,.19.05.38.07.58.17,1.66,0,3.53.87,4.75,5.15,7.51,10.58,14.82,15.92,22.2q21,29,42,58.13c.2.27.4.58.61.91.87,1.41,1.67,3.22,1.21,4.05-4.71,8.43-9.85,16.63-15.08,25.26-.78-1.1-1.37-1.87-1.86-2.58-.17-.26-.33-.5-.48-.75-14.92-25-30.18-49.74-44.65-75-21.37-37.23-42.24-74.75-69.28-108.34-4.92-6.11-10.12-12-15.19-18l-.93.62-.22.14c.54,1.63,1,3.27,1.64,4.87,10.67,28.76,24.26,56.07,39,82.84,5.3,9.67,10.74,19.26,16.24,28.82,20.17,35.07,40.07,70.29,60.27,105.34a9.77,9.77,0,0,1,1.48,4.65,11.1,11.1,0,0,1-1.88,6q-35.72,61.41-71.26,122.92c-.08.14-.16.27-.23.41q-10.69,18.5-21.38,37c-8,13.8-15.61,27.79-23.64,41.54q-1.26,2.18-2.55,4.34l-.4.68a36.86,36.86,0,0,1-2.53,3.75c-.23.29-.45.58-.68.85-.46.57-1,1.17-1.56,1.76-.18.2-.37.39-.57.58-.47.48-1,1-1.51,1.4-.32.28-.64.55-1,.8s-.76.59-1.16.87-.65.45-1,.66-.78.5-1.18.72-.59.34-.89.49a9.44,9.44,0,0,1-.9.45c-.26.14-.52.26-.78.37l-.24.11q-.87.38-1.77.69l-1,.35-.67.2-.55.15-.89.23-.75.16c-.28.06-.56.12-.84.16-.53.1-1.07.18-1.61.26l-.79.09c-.65.07-1.3.12-2,.16l-.87,0a48.1,48.1,0,0,1-8.67-.58c-7-1.07-7.11-1.39-5.12-7.95q15.13-49.77,30.26-99.53c.64-2.1,1.51-4-1.43-5.16s-3.72.8-4.62,2.76q-3.24,7.1-6.45,14.19-20.64,45.45-41.33,90.88c-.73,1.59-2.24,3.88-3.52,4-5.91.43-11.87.19-18.41.19,4.91-21.55,9.61-42.2,14.32-62.85-6.14,3.39-8.17,9-10.51,14.52-4.89,11.47-9.5,23.09-15,34.26a23.06,23.06,0,0,1-18,12.85c-8,1.12-16.12,1.54-24.2,2.15-25.53,1.92-50.92.4-76.24-3.17-16.52-2.34-33.07-4.51-49.62-6.68-18.64-2.44-37.26-5-55.93-7.11-19.66-2.16-39.35-4.76-59.08-5.34-25.17-.73-50.4.25-75.6.74-6.25.12-12.49,1.18-18.73,1.8-.09.5-.17,1-.26,1.49l75.53,28.47c-1.73.73-2.61,1.13-3.51,1.47l-61.33,23.52c-2.19.84-4.19,1.55-3.5,4.77.63,2.94,2.27,3.34,4.84,3.37,13.82.13,27.64.85,41.44.56,27.77-.57,55.53-1.6,83.3-2.56a168.77,168.77,0,0,0,46.82-8c26-8.53,52.73-12.2,79.93-12.49,30.92-.32,61.84-.09,92.76-.07,1.24,0,2.48.2,4,.34-.2,1.13-.28,1.91-.49,2.65q-28.34,102.33-56.71,204.65-12.59,45.44-25,90.9c-.39,1.42-.71,3.6,0,4.47a6.65,6.65,0,0,0,11.4-2.35q47.9-144.48,95.8-289c4.22-12.73,4.2-12.74,16.81-10.59.15,0,.27.18.91.61-2.33,8-4.72,16.19-7.12,24.37-4.55,15.55-9.14,31.09-13.61,46.67a7,7,0,0,0,.28,4c.2.54,2.16,1.11,2.54.77a10.32,10.32,0,0,0,2.42-3.48c10.69-22.78,21.31-45.58,32-68.34.69-1.49,2.06-3.73,3.18-3.77,8.82-.31,17.65-.17,27.25-.17-1.41,2.92-2.26,5-3.36,6.94q-28.07,49.1-56.2,98.13c-17.5,30.44-34,61.32-44.94,94.88-.49,1.53-.9,3.09-1.71,5.86a50.5,50.5,0,0,0,16.59-16.84q38.25-62.92,76.54-125.81,15.18-25,30-50.23c5.38-9.14,12.45-15.35,23.71-15.17,2.41,0,4.83.15,7.24.15q54.2.12,108.39.21,61,.08,122,.1c7.48,0,12.58,1.5,16.33,5.2a19.43,19.43,0,0,1,3.19,4.18c.32.54.62,1.11.91,1.71a41.2,41.2,0,0,1,2,5c1.55,4.57,2.69,9.28,4.15,14.38l-110.5,25.6c.09.6.19,1.2.28,1.81,9.22-.42,18.46-.56,27.66-1.31,27.47-2.21,55-4.36,82.38-7.14,16.48-1.68,21.45,6.91,22.2,18-2.2.77-4.47,1.6-6.76,2.35-14.48,4.74-29,9.41-43.42,14.25-1.23.42-2.09,1.92-3.13,2.91,1.3.55,2.68,1.73,3.88,1.57,18.14-2.46,36.28-4.91,54.35-7.84,4-.65,6.15-.25,8.22,3.41q16.54,29.28,33.51,58.33c20.81,35.69,40.33,71.81,48.28,113.1,4.84,25.19,17,47.58,30,69.37,16,26.61,32,53.14,47.95,79.79,1.37,2.31,2.59,2.86,5,2.11,3.07-.94,2.78-3.21,2.41-5.45-2.71-16.29-5.49-32.56-8.23-48.84-1.14-6.75-2.25-13.5-3.55-21.37l58.3,46.42c.18-1.31.43-1.85.28-2.21-1.84-4.33-3.46-8.79-5.68-12.92-17.24-32-34.3-64.15-52.1-95.87-5.19-9.23-11.42-18.52-19.2-25.52a415.78,415.78,0,0,1-59.84-66.68c-21-29.14-36.69-61.31-54.31-92.4a4,4,0,0,1-.13-1.48c1.11-.39,2.16-.84,3.24-1.12l197.57-51.09q49.15-12.72,98.29-25.49C1521.52,1220.76,1524.61,1221.13,1524.1,1217.46Zm-627.75-21L1015,980l121.23,216.48ZM1097.27,1178l-81.22-140.07c-27.41,47.38-54,93.36-81,140.07Z" transform="translate(-30 -84)"/><path d="M30,1513l253.71-132.56,417.46-3.06q-3.12,15-7,30.78c-4.94,19.77-10.4,38.4-16.13,55.84H281l-152,27,544,2-4.72,18.54Z" transform="translate(-30 -84)"/><path d="M1834.59,1781.64,1592,1633l-205.66-355.37L1469,1252l216,360,103,123-289-492,17.9-6Z" transform="translate(-30 -84)"/><path d="M1546,1208l-211,38-131,33-11-17q23-4.71,46.12-9.58,45.33-9.54,89.88-19.42l-147,12-21-35,211,2,54-5-54-6-218-5L1023,965l22-38,78.33,90.29L1056,912l10-18,47,41q-19.5-24.5-39-49l81-135,48-50,77.31-133.33-59.75,47.45,10.68-75.07c-23.64,41.41-48.38,82.38-71.49,124L1141,742l-75,128c-73.92-91.26-163.2-167.34-249-247,75.85,89.79,147,183.66,237,260q-6,9.93-11.92,19.88L961,818l72,96q-10,17-20,34L946,835.1,872,727l62.6,121.5Q969.79,907.25,1005,966L878,1196l-36.78-.57Q863.6,1115.21,886,1035l-63,161-26.47.71q7.15-31.43,14.32-62.85L781,1197l-151,1-62-20-160-.12L485,1206l-78,26H567l63-22,148-1c-50.6,108-75.67,223.35-102,339,43.71-102.43,88.66-231.55,118-339h26l-48,133,66-131h31c-42.35,76.48-93.92,148.37-126,230,58.54-69,92-154,146-230l255-1,23,39-125,28,136-11,12,19-77,26,84-12,76,130,24,86,66,110-9.78-75.39,58.3,46.42L1354,1485l-65-65-76-125,117-25Zm-649.65-11.52L1015,980l121.23,216.48Z" transform="translate(-30 -84)"/><path d="M1151,170,879,649l-16.3-12.52q121.35-213.64,245.58-425.59Q1145.51,147.37,1183,84c.83,33.71.28,60.73-.41,79.55-.08,2.24-.11,2.84-1,23.37-2.46,56-2.88,65.93-3.2,73-1,22.21-2.63,54.86-5.38,99.07L964.66,733.2q-31.5-33.16-63-66.32Q1003.33,485.44,1105,304,1128,237,1151,170Z" transform="translate(-30 -84)"/><path d="M1180.86,748.46l253.19,436.88-24-4.34-39-4.87-1-.13-38,1L1131.35,833.38,1164,766Z" transform="translate(-30 -84)"/><path d="M1257.93,1465.31H751.57L797,1410l18.88-28.75,401.71,1.25L1246,1426Q1252,1445.65,1257.93,1465.31Z" transform="translate(-30 -84)"/><path d="M608.22,1172.78c82.51-142.52,164.71-284.51,247.54-427.61q22.44,46.44,44.87,92.89L705,1181H636Z" transform="translate(-30 -84)"/><path d="M1494.79,1192.31,1474,1190,1202,733l15-14Z" transform="translate(-30 -84)"/><path d="M562.48,1153.93Q694.73,922,827,690q6.5,14.5,13,29L582,1161Z" transform="translate(-30 -84)"/><path d="M1269,1511l-548,1,9-18,535-1Q1267,1502,1269,1511Z" transform="translate(-30 -84)"/><path d="M502.06,1356.41q6-10.58,12.2-21.23,21.47-36.89,43.42-71.18L634,1239l36.66,2L605,1357Z" transform="translate(-30 -84)"/><path d="M1080.67,575.88q24.51,43.64,49,87.27L1114,730.72,1092.54,772l-60.13-108Q1056.53,619.94,1080.67,575.88Z" transform="translate(-30 -84)"/><path d="M1469,1468h-97l-5-9q-26.76-24.8-54.22-49.6-6.9-6.23-13.78-12.4l-11.73-18.54L1419,1381.1Z" transform="translate(-30 -84)"/><path d="M443,1355l51-89,33-1-49,90Z" transform="translate(-30 -84)"/><path d="M1098.4,550.41q5.79-9.7,11.6-19.41l45,79-13.08,20.09Q1120.16,590.25,1098.4,550.41Z" transform="translate(-30 -84)"/><path d="M1377.79,1490.85l106.72.65L1495,1510H1388Q1382.9,1500.43,1377.79,1490.85Z" transform="translate(-30 -84)"/><path class="cls-1" d="M1015.6,1039l-76.52,132.23h153.19C1066.65,1127.05,1041.46,1083.61,1015.6,1039Z" transform="translate(-30 -84)"/><path d="M1097,1178H934l80-147Z" transform="translate(-30 -84)"/></svg>