<svg id="图层_1" data-name="图层 1" xmlns="http://www.w3.org/2000/svg" viewBox="0 0 1722.03 1670.19"><title>燃灰</title><path d="M347.43,784.35c-.13.52-.24,1-.34,1.42.19-.79.38-1.57.58-2.35Zm-.53,92.5a230.12,230.12,0,0,1-5-50c-4.05,29.63-6.28,40.85.12,53.15a42.33,42.33,0,0,0,8.11,10.83Q348.34,883.89,346.9,876.85Zm.77-93.43q1.45-5.65,3.27-11.2C349.77,775.76,348.67,779.47,347.67,783.42ZM364.1,934.18c4.19,12.6,9.51,24.27,19.93,46.68C376.93,965.5,370.14,950,364.1,934.18Zm17.35-209.26c7.74-16.24,22.4-42.37,21.55-42.92s-17.35,20.48-33.33,49.83c4.24-7,9.09-13.52,13.71-20.24a34.32,34.32,0,0,1,2.44-2.87c1.07.73.54,1.51.41,2.15A81.06,81.06,0,0,1,381.45,724.92ZM554.2,232.37c-.11-.45-.22-.9-.32-1.35l.12,1c.22.71.43,1.41.65,2.1C554.49,233.53,554.34,233,554.2,232.37ZM536,185a104.15,104.15,0,0,1,15,31.88,47.36,47.36,0,0,1-.4-5.43c1.74.18,2.19,1.48,2.85,2.4,11.65,16.24,22.87,32.78,33.52,49.7C574.67,243.07,557.69,216.06,536,185Zm31.32,165.38c-.46-1.67-.81-3.36-1.41-5.87,3.9,3.32,5.3,7.56,8.44,10.72a14.5,14.5,0,0,0,1.46-1.9L576,353c-14-27.26-17.78-30.47-19-30s-1.68,5.39,7,34l-10-7a174.7,174.7,0,0,1,17.48,33.31,187.38,187.38,0,0,1,10.3,38.41C579,397.52,573.8,373.82,567.32,350.38Zm8.9-59.24c1.3,3.76,2.42,7.23,3.35,10.3C578.61,298,577.48,294.54,576.22,291.14Zm6.59,28.39a88,88,0,0,0-1.15-8.92L577,319a29.63,29.63,0,0,1,4.94,16.9A62.26,62.26,0,0,0,582.81,319.53ZM874,1624.7q-12.24-.18-24.47-.18-69.31-.06-138.63-.07c40.9,0,98.84.26,171,1.36A29.91,29.91,0,0,0,874,1624.7Zm23.16,13.68c.77,1.79,1.37,2.56,2.11,4.12C898.67,1641.09,898,1639.71,897.19,1638.38Zm21.28,6.24c.5-3.29,2-5.41,2.81-9.91A30.3,30.3,0,0,0,918.47,1644.62Zm14-19.07a48.16,48.16,0,0,1,7.15-.77A28.39,28.39,0,0,0,932.46,1625.55Zm12,97.23a2.89,2.89,0,0,1,.13-.93,1.78,1.78,0,0,1,1-.42c-4.42-2.08-7-4.09-7.64-3.43s.65,3.23,8.16,12C945.56,1727.62,945,1725.2,944.47,1722.78Zm12.38,2.12a11.54,11.54,0,0,0,7.15.37A37.86,37.86,0,0,1,956.85,1724.9Zm6.82,45.43a29.7,29.7,0,0,0,4.77,6l.07.06C966.8,1774.42,965.2,1772.41,963.67,1770.33ZM974,1688q-3.11,13.18-7,27-1.47,5.2-3,10.27a46.05,46.05,0,0,0,6-10.26c4-8.75,6.57-18,8.68-27.35,2.29-10.12,4.48-20.27,6.79-30.39C984.09,1662.64,981.13,1671.74,974,1688Zm14,104.9c-.18-.11-.36-.22-.53-.34l.54.44A.34.34,0,0,0,988,1792.9Zm5-156.9c-1-.06-3.45,7.06-5.26,13.3.63-.31.92-.57,1.19-.57,1.1,0,2.2.15,3.17.22.31.41.66.66.66.92q.09,50.57.14,101.15l.1,0C995.63,1661.14,994.82,1636.11,993,1636Zm22.29,92.49c0-.79,0-1.57.07-2.36C1015.33,1726.89,1015.31,1727.67,1015.29,1728.49Zm0,12.07c0,.59,0,1.19,0,1.8a0,0,0,0,0,0,0,.24.24,0,0,0,0,.12c0,.56,0,1.13.05,1.7,0,1.24.08,2.52.15,3.83Q1015.32,1744.3,1015.24,1740.56ZM1021,1634a130.75,130.75,0,0,0-3,19c-1.09,13.08.44,18.57.72,30.83,1.17-9.67,2.18-19.36,3.27-29,.16-1.37.06-2.85,1.44-4.27,1.8,6.76,3.51,13.22,5.23,19.68C1026.49,1661.85,1023.66,1649.73,1021,1634Zm4.93,158c-1,.69-2,1.28-3,1.86l0,.16a88.81,88.81,0,0,0,9.94-7.47C1030.72,1788.43,1028.38,1790.26,1025.93,1792Zm24.13-25.13.72-1.14.75-1.21.77-1.31q1-1.77,1.83-3.33l.63-1.24Q1052.59,1762.88,1050.06,1766.85Zm41.44-130.35c.33,2,.94,2.91,1.28,5.11A29,29,0,0,0,1091.5,1636.5Zm3.29,34.27c0,8-.62,13.07.21,13.23.53.1,1.35-1.86,2-3.49A24.42,24.42,0,0,1,1094.79,1670.77Zm4.93,5.75a31,31,0,0,0,2.15-4.2Q1100.84,1674.44,1099.72,1676.52Zm33.67-51.91a147.29,147.29,0,0,1,23.43-.35C1149,1623.75,1141.2,1623.33,1133.39,1624.61Zm259.1-1314.26q2.48-4.67,5-9.29C1395,305.54,1393.35,308.68,1392.49,310.35ZM1424.3,428c.77-7.3,1.74-14.29,2.77-21.21Q1425.38,417.35,1424.3,428Zm3.88-77.41a10.08,10.08,0,0,0,1.3-.85C1429,350,1428.61,350.29,1428.18,350.56Zm-.56-36.77c-.59,3.31-1.09,6.63-1.46,10A33.27,33.27,0,0,1,1429,317Zm4.54-19.6c2.11-6.18,3.26-10.56,4.41-14.66Q1434.22,286.82,1432.16,294.19Zm2.25,51.46c1.32-1.09,2.63-2.18,4-3.26.4-.32.81-.63,1.27-1,.39-1.35.84-2.83,1.36-4.43A39.17,39.17,0,0,1,1434.41,345.65Zm4.39,6.49q-1.42,5.37-2.75,10.78l9-14.92Q1440.35,353,1438.8,352.14Zm8.9-105-1.34,3.84c-1.91,5.46-3.84,10.92-5.71,16.39A106.57,106.57,0,0,1,1449,251C1448.56,249.7,1448.13,248.4,1447.7,247.1Zm4.14-12a66.17,66.17,0,0,0,3.14-9.65Q1453.47,230.27,1451.84,235.08Zm5.21-28.64,1.85-2.59C1458.26,204.72,1457.63,205.61,1457.05,206.44Zm7-8.44c-.42-.25-2.36,2.14-4.41,4.9.36-.4.85-.77,1.57-1.46a39.77,39.77,0,0,1-1.38,7C1462.24,202.12,1464.5,198.3,1464,198Zm36.6,785.71,9.35,16.2c.32,0,.63.07.94.08C1506.5,993.43,1503.08,987.87,1500.6,983.71Zm16.63,15.54.06,0a17.63,17.63,0,0,0,1.51-5.43C1518.27,995.76,1517.74,997.58,1517.23,999.25ZM1622.3,709.36a20.81,20.81,0,0,1,1.9,2.31,185.41,185.41,0,0,1,16.51,34c-3.45-10.79-6.45-19.9-8.71-26.68l-6-5-16-25c11,26.41,18.48,46.12,20.59,52.43-2.39-9.12-5-18.19-7.49-27.27A15.67,15.67,0,0,1,1622.3,709.36Zm184,805.23q23.52,40.83,47,81.7C1831.37,1555.3,1812.63,1525.35,1806.29,1514.59Z" transform="translate(-145.13 -123.81)"/><path d="M1853.29,1596.29c-21.92-41-40.66-70.94-47-81.7l-.29-.5-.54-.93q-93.17-161.62-186.34-323.23c-14.94-25.89-30-51.69-45-77.55-3.84-6.61-5.26-13.64-3.49-21.22a45.23,45.23,0,0,1,4.38-11.63c2.16-3.91,4.49-7.74,6.87-11.53,3.14-5,6.48-9.9,9.6-14.92a73,73,0,0,0,7-15.19c2.61-7.72,5.26-15.43,8.27-23,7.21-18.12,15.77-35.65,24-53.32s16.26-35.1,23-53.24c6.46-17.43,11.81-35.14,13.34-53.8.73-8.83.62-17.61-1.74-26.19-3.34-12.17-7-24.26-10.37-36.41-.18-.65-.36-1.27-.53-1.88s-.41-1.45-.6-2.14c-5.31-18.77-5.68-18.9-13.14-42.23-3.45-10.79-6.45-19.9-8.71-26.68l-6-5-16-25c11,26.41,18.48,46.12,20.59,52.43a64.64,64.64,0,0,1,1.52,7c.13.7.25,1.43.37,2.19.06.33.11.67.16,1s.11.69.16,1.05c.91,6.28-1.24,11.55-5.94,16.26-1.16-1.63-2.18-3-3.15-4.45q-14.79-21.57-31.38-41.8c-18.72-23-39-44.43-59.82-65.51-14.25-14.47-28.51-28.93-42.53-43.62a329.75,329.75,0,0,1-33.07-40.44,189.88,189.88,0,0,1-33.8-99c-.07-1.29-.14-2.56-.19-3.82a276.87,276.87,0,0,1,1.18-40.42c.06-.65.13-1.3.2-1.94.77-7.3,1.74-14.29,2.77-21.21A413,413,0,0,1,1436,363l0-.08,9-14.92q-4.65,5-6.2,4.14-1.9-1,.84-10.71c.39-1.35.84-2.83,1.36-4.43a39.17,39.17,0,0,1-6.59,8.65,34.75,34.75,0,0,1-4.93,4.06c-.44.29-.87.58-1.3.85l-.2.12-1.1.64c-.13-.72-.27-1.39-.4-2s-.25-1.25-.35-1.84c-.06-.4-.11-.79-.15-1.18-.69-7.64-2.13-14.73.18-22.51A33.27,33.27,0,0,1,1429,317l-1.38-3.21L1426,310c1.54-3.5,3.82-8.95,6.16-15.81,2.11-6.18,3.26-10.56,4.41-14.66a107.29,107.29,0,0,1,4-12c0-.06,0-.12.08-.19A106.57,106.57,0,0,1,1449,251c-.44-1.3-.87-2.6-1.3-3.9l-.7-2.1a84.53,84.53,0,0,0,4.82-9.86.14.14,0,0,1,0-.06,66.17,66.17,0,0,0,3.14-9.65c1.25-5.08,1.88-9.48,4.8-17,2.46-6.32,4.72-10.14,4.22-10.44s-2.36,2.14-4.41,4.9l-.69.95c-.64.87-1.27,1.76-1.85,2.59a1.77,1.77,0,0,0-.16.22l-.89,1.27-.77,1.11-.22.32c-29.26,42.46-48,74.57-57,90.72-.18.33-.37.66-.54,1-2.49,4.48-4.15,7.62-5,9.29l-.17.33-.16.3-.14.27-.18.34-.06.12c-15.66,29.75-29.25,60.39-39.36,92.51a356.84,356.84,0,0,0-14.6,66.88,277.5,277.5,0,0,0-1.49,48.83,273.42,273.42,0,0,0,7.56,49.21c5.78,23.07,14.63,45,25.57,66a491.42,491.42,0,0,0,34.87,56.76c13,18.42,26.29,36.63,39.47,54.91,13.66,18.94,27.06,38,39,58.17,11.17,18.89,20.87,38.48,28,59.27a234.89,234.89,0,0,1,12.91,65.63c.77,15.74,2.26,37.35-4.92,63.91-.53,2-1.06,3.78-1.57,5.45-.82,2.69-1.59,5-2.23,6.75-1.45-2.08-2.82-4.09-4.11-6-4.39-6.56-7.81-12.12-10.29-16.28l-.52-.89-.29-.51-.17-.29-.6-1-.48-.83q-.78-1.33-1.83-3.18-.18-.3-.36-.63c-.5-.85-1-1.79-1.61-2.8l-3.47-6q-4.68-8.1-9.33-16.21l-9.32-16.21q-4.66-8.12-9.34-16.21L1454,902.66l-9.32-16.21-9.32-16.21q-4.68-8.12-9.35-16.21l-9.33-16.21-9.32-16.21q-4.66-8.1-9.34-16.2l-9.33-16.21-9.57-16.63-9.32-16.21-9.33-16.21-9.34-16.2-9.33-16.21-9.31-16.22q-4.67-8.1-9.34-16.21l-9.34-16.2q-4.66-8.1-9.32-16.22l-9.33-16.21q-4.66-8.1-9.34-16.2l-9.34-16.2q-4.67-8.12-9.31-16.22l-9.33-16.21q-4.68-8.1-9.35-16.2t-9.32-16.22l-9.32-16.21L1220.47,497q-4.67-8.1-9.34-16.2t-9.33-16.21l-9.32-16.21q-4.68-8.1-9.35-16.2L1173.8,416q-4.65-8.12-9.32-16.22l-9.32-16.21q-4.68-8.1-9.35-16.2l-9.32-16.21-9.57-16.63-9.32-16.21-9.34-16.2q-4.66-8.12-9.34-16.21t-9.31-16.22l-9.34-16.2-9.34-16.21-9.33-16.21-9.32-16.21L1043,188.63q-4.68-8.1-9.34-16.2l-9.32-16.22c-3.11-5.4-6.16-10.84-9.33-16.2s-6-10.88-9.59-16.2c-1.71,1.49-2.41,3.29-3.34,4.9Q906.11,295.38,810.2,462.05,669.44,706.66,528.67,951.26q-15.42,26.82-30.86,53.62c-.76,1.31-1.32,2.84-2.52,3.7-.46-.19-.67-.22-.71-.31-.49-1.18-1-2.34-1.42-3.55A230.32,230.32,0,0,1,481.37,950a194.12,194.12,0,0,1,2.71-53,229.14,229.14,0,0,1,17.42-53.16c8.85-19.23,19.7-37.31,31.41-54.89,12.07-18.1,25-35.58,37.87-53.1,14.77-20.11,29.48-40.25,42.92-61.28,12.76-20,24.27-40.61,33.55-62.44,15.21-35.76,23.25-73,23-111.92a315.83,315.83,0,0,0-8.59-69.82c-6.32-27-15.58-53-26.8-78.35-.94-2.12-1.87-4.2-2.81-6.24-.33-.72-.65-1.43-1-2.13q-1.42-3.1-2.86-6.11l-.06-.14c-1.3-2.73-2.6-5.4-3.91-8a1.09,1.09,0,0,0-.08-.15c-.85-1.73-1.72-3.45-2.59-5.17l-1.35-2.63c-9.48-18.33-19.71-35.58-33.16-57.92-12.34-20.48-29.32-47.49-51-78.55a102.76,102.76,0,0,1,17.88,46l.12,1c.22.71.43,1.41.65,2.1,3.64,11.62,7.19,21.09,10,28.1l.9,2.22c3.65,8.89,6.75,15.42,10.66,26.72,1.3,3.76,2.42,7.23,3.35,10.3l0,.11c1,3.32,1.8,6.18,2.4,8.45l-.34.61L577,319a29.63,29.63,0,0,1,4.94,16.9v0A29.65,29.65,0,0,1,576,353v0c-14-27.26-17.78-30.47-19-30s-1.68,5.39,7,34l-10-7a174.7,174.7,0,0,1,17.48,33.31,187.38,187.38,0,0,1,10.3,38.41c3.26,20.33,2.4,36.09,1.92,46.43a219,219,0,0,1-5.63,40.78c-5.53,23.11-15.3,44.34-28.31,64.15a324.78,324.78,0,0,1-34.18,43.22q-22.44,24-45.47,47.45c-32.38,33-63.68,67-90.71,104.67a11.6,11.6,0,0,1-1.85,1.63,33.78,33.78,0,0,1-3.77-23,72.4,72.4,0,0,1,3-10.59c.17-.5.35-1,.53-1.46,2-5.35,3.76-9.23,4.12-10l.05-.11c7.74-16.24,22.4-42.37,21.55-42.92s-17.35,20.48-33.33,49.83c-7.16,13.14-13.5,24.93-18.44,39.52-.09.29-.19.57-.29.87-1.17,3.54-2.27,7.25-3.27,11.2l-.24.93c-.13.52-.24,1-.34,1.42-.06.23-.11.44-.16.65-1.28,5.72-.21,5.1-5.05,40.43-4.05,29.63-6.28,40.85.12,53.15a42.33,42.33,0,0,0,8.11,10.83A49.37,49.37,0,0,0,355,895a220.55,220.55,0,0,0,9.1,39.18c4.19,12.6,9.51,24.27,19.93,46.68l1.21,2.6L386,985q1.77,3.78,3.56,7.56c.12.26.25.52.37.79q2,4.17,4,8.33,18.86,39.35,37.57,78.75a90.7,90.7,0,0,1,4.59,12.08,29.43,29.43,0,0,1,.63,15.17,49,49,0,0,1-5.53,13.72c-6.34,11.11-12.6,22.26-19,33.32q-65.31,112.35-130.67,224.68c-40,68.82-79.64,137.86-117.8,207.73q-8.74,16-17.35,32c-.55,1-1.7,2-.87,3.53.61,0,1.24.15,1.87.16,8.63.2,17.27.46,25.9.56,32.13.41,64.27.9,96.4,1.11q62.13.4,124.25.43c32.46,0,64.92-.1,97.38-.16l139.45-.27h.85l12,0,22,0,16.21,0,13.63,0,15.57,0c40.9,0,98.84.26,171,1.36l12.1.19a42.45,42.45,0,0,0,3.19,12.38c.77,1.79,1.37,2.56,2.11,4.12.16.34.32.7.49,1.13.1.24.2.5.31.78,1.36,3.58,2.63,7.21,3.71,10.88,1.71,5.82,3.07,11.76,4.88,17.54,1.53,4.87,3.48,9.61,5.31,14.38.24.63.48,1.6,1.89,1.32a40.46,40.46,0,0,0,1.43-10.17c.12-6.71.09-13.43.27-20.14.12-4.31.36-8.63.79-12.92,0-.23,0-.46.09-.68.5-3.29,2-5.41,2.81-9.91A47.3,47.3,0,0,0,922,1627c2.55-.41,6.1-.94,10.36-1.43l.1,0a48.16,48.16,0,0,1,7.15-.77h.83q39.57.09,79.15.16c17.59,0,35.18,0,52.77-.08.41,0,1.66,0,3.36,0A143.32,143.32,0,0,1,1092,1626a25.4,25.4,0,0,0-.5,10.5c.33,2,.94,2.91,1.28,5.11,0,.15,0,.3.07.46.48,3.64.82,7.31,1.05,11,.78,12.7.89,11,.89,17.73,0,8-.62,13.07.21,13.23.53.1,1.35-1.86,2-3.49a38.19,38.19,0,0,0,2.77-4,31,31,0,0,0,2.15-4.2c4.5-10.48,1.1-18.06,7.13-26.32,3-4.15,5.35-4.23,8-9.48a27.8,27.8,0,0,0,3-10.52c5.4-.74,10-1.15,13.39-1.39a147.29,147.29,0,0,1,23.43-.35c3.35.22,6.7.5,10,.49,28.78-.1,57.56-.34,86.34-.4,25.75-.06,51.49,0,77.24.09q37.41.09,74.83.23,86.82.3,173.65.6c23,.06,46-.09,69.07-.17,19.51-.06,39-.11,58.53-.26q35.25-.27,70.5-.71c25.42-.36,50.84-.89,76.26-1.31,4.62-.08,9.25,0,13.87,0C1864.22,1617.07,1859.4,1607.72,1853.29,1596.29Zm-27.68,2.33a4.33,4.33,0,0,1-1.22.38q-819.78,0-1639.81,0c0-.93,0-1.29.1-1.53q409.74-711.1,819.5-1422.2c.23-.4.5-.76.9-1.35.7,1,1.21,1.6,1.6,2.27q409.52,710.69,819,1421.39C1825.79,1597.82,1825.64,1598.19,1825.61,1598.62Z" transform="translate(-145.13 -123.81)"/><path d="M1066.78,1719.93c-.29,1.76-.46,3-.7,4.2a137.11,137.11,0,0,1-9.65,31,91.43,91.43,0,0,1-7.4,13.27c-.53.81-1.11,1.63-1.72,2.47-.44.61-.88,1.21-1.34,1.81h0l-.62.81-.19.24c-.46.6-.94,1.19-1.42,1.78l-.38.45-.7.83c-.22.26-.44.51-.67.76s-.27.32-.41.47c-.61.69-1.24,1.37-1.87,2-1,1.12-2.1,2.15-3.14,3.15l-.08.07A90.93,90.93,0,0,1,1023,1794l0-.16a123,123,0,0,1-1-37.84l-6,1c0-.5-.08-1-.11-1.49a267,267,0,0,1-.56-29.36c0-.6,0-1.2.07-1.8l.06-1.35c0-.61.06-1.21.09-1.79,1.08-19.19,3.52-21.08,3.14-37.36-.28-12.26-1.81-17.75-.72-30.83a130.75,130.75,0,0,1,3-19c2.66,15.73,5.49,27.85,7.66,36.2a.43.43,0,0,1,0,0,1.85,1.85,0,0,0,.06.2c0,.23.16.61.3,1.15.08.32.18.69.29,1.11l.12.44.26,1,.15.55c.1.38.2.79.32,1.21s.23.88.36,1.36c.31,1.19.67,2.53,1.07,4,.07.3.16.6.24.91l.79,3c.09.35.18.7.28,1.06.18.69.38,1.41.58,2.15.1.41.22.83.33,1.26q2.6,9.72,5.19,19.43c1.7,6.45,3.27,12.93,5.3,19.58C1052,1726.12,1058.91,1722.47,1066.78,1719.93Z" transform="translate(-145.13 -123.81)"/><path d="M993,1751l-.1,0-7.9,2q1.5,19.95,3,39.9a.34.34,0,0,1,0,.1l-.54-.44,0,0c-1.39-1.15-3.25-2.7-5.44-4.54-1.37-1.16-10.74-9-13.49-11.65l-.07-.06a29.7,29.7,0,0,1-4.77-6C961,1766,958.4,1759.55,957,1750l-10-19-.84-1c-7.51-8.79-8.71-11.42-8.16-12s3.22,1.35,7.64,3.43a40.23,40.23,0,0,0,11.21,3.47,37.86,37.86,0,0,0,7.15.37q1.53-5.07,3-10.27,3.9-13.8,7-27c7.13-16.26,10.09-25.36,11.45-30.73l.09-.35c.27-1,1-3.44,1.92-6.68.1-.3.19-.62.28-.94,1.81-6.24,4.28-13.36,5.26-13.3C994.82,1636.11,995.63,1661.14,993,1751Z" transform="translate(-145.13 -123.81)"/><path d="M1565.83,1448.55c.51,1.48,1,3,1.51,4.43C1567.68,1451.13,1566.54,1449.87,1565.83,1448.55Zm-24.51-45.62q-6.06-10.64-12.17-21.26l36.68,66.88C1557.71,1433.32,1549.86,1417.93,1541.32,1402.93ZM1452,1241l2.22,4a19.46,19.46,0,0,1,3.93-10,32.91,32.91,0,0,1,2.13-2.59c17.93-19.59,34.74-40.14,51.76-60.51Q1482,1206.84,1452,1241Zm-109.55,322.23q-75.79-.23-151.59-.12c-9.59,0-19.19.18-28.78.14-3.5,0-7-.43-10.51-.75a14.73,14.73,0,0,1-3.23-.82,5.65,5.65,0,0,1-4-4.91,14.32,14.32,0,0,1-.1-3.81,76.7,76.7,0,0,1,4.06-17.21c3-8,4.5-16.31,6-24.65.56-3.08,1.12-6.17,1.7-9.25q-9,31.08-18,62.15c229.43,0,329.72,0,376.18,0C1456.94,1563.79,1399.7,1563.39,1342.45,1563.23ZM1447,1139.48c.79-.3,1.59-.57,2.41-.8s1.77-.32,3.08-.55h0c1.16-2,2.32-4.09,3.49-6.13Zm-64.57-82.19a132.65,132.65,0,0,1-7.47,37c-.49,1.35-1.06,2.67-1.64,4L1383,1087C1382.81,1080.23,1382.56,1069.91,1382.44,1057.29Zm-8,184.72a32.8,32.8,0,0,1,2.62,10.69l2-3.7Zm-2-227.87q-.12,11.75-.25,23.49c.39-1.31.72-2.65,1-4A43.89,43.89,0,0,0,1372.4,1014.14Zm-3.62-10.12q1.82,5.06,3.62,10.12C1371.56,1010.75,1370.79,1007.33,1368.78,1004Zm-6,3.05c-3.69,2.24-7.27,4.65-10.92,6.94s-7,4.48-10.66,6.46a36.39,36.39,0,0,1-7.51,3.08c-5.91,1.67-10.33-.36-13.14-5.85a17.73,17.73,0,0,1-2.36-7.93,24.07,24.07,0,0,1,2.51-1.22c6.75-2.47,13.51-4.89,20.27-7.35.61-.22,1.19-.49,1.94-.83L1314,1010l16,23,38.78-29C1366.69,1005.07,1364.65,1005.93,1362.77,1007.07ZM1360,1220l-1.75,2.34a3.06,3.06,0,0,1,.85.45,72.49,72.49,0,0,1,7.49,7.27Zm-21.71,111a22,22,0,0,0,4.06,4.21c5.44-2.81,10.37-6.33,15.51-9.49s10.29-6.45,15.43-9.69C1366.38,1320.35,1355.53,1325.86,1338.29,1331ZM1353,1071l1.7,2.28a15.87,15.87,0,0,1,1-5.14Zm-9.58-71.54.5.46,0,0C1343.77,999.75,1343.59,999.6,1343.42,999.46ZM1338,1251l-1.26,12c1.77-.77,2-2.34,2.59-3.58,5.38-11.07,10.68-22.17,16-33.26Q1346.13,1238.72,1338,1251Zm-25.75-31.76c-.87,11.2,2.88,21.29,10.35,30.46a76.28,76.28,0,0,0,14.14,13.35Zm10.47-64.29a33.93,33.93,0,0,1,1,17.71,208.25,208.25,0,0,1-5.75,22.76c-.8,2.6-1.55,5.21-2.26,7.85L1329,1164Zm-18.07-180.23a92.46,92.46,0,0,1-13.44-11.56,72.24,72.24,0,0,1-8-9.74c6.56,10.3,12,18.77,15.8,24.58a96,96,0,0,0,23.67,8.57C1316.59,982.73,1310.56,978.8,1304.65,974.72Zm-11.27,200.12c1.21-1.51,2.34-3,3.43-4.58Zm-13.6,31.35h0c-.44.59.26,1.69.28,2A9.85,9.85,0,0,0,1279.78,1206.19Zm-1.29-2.47a20.4,20.4,0,0,0-5.28,1.39,11.81,11.81,0,0,1,6.45.75A19.79,19.79,0,0,0,1278.49,1203.72Zm-23.74-164.17,0,0a140.42,140.42,0,0,1-11.73,8.69c3.74-2.41,7.76-5.15,12-8.26ZM1250,1031c-37.94,16.94-65.36,30.29-72.6,34.39a304.74,304.74,0,0,1,28.52-12.49c6.69-2.63,13.45-5.09,20.09-7.83q9.73-4,19.29-8.5a8.65,8.65,0,0,1,6.9-.62l.67.22Zm.07,129.9a28.38,28.38,0,0,1,2.38-2A21.74,21.74,0,0,0,1250.07,1160.9ZM1225,1185c-5.7,4.37-8.71,8.58-14,16-9.22,12.92-10.92,20.25-15.64,28.42,10.31-13.66,20.44-27.44,30.8-41.06,2.08-2.73,4.22-5.43,6.39-8.09A46.7,46.7,0,0,0,1225,1185Zm-77.06-465.3q4.74,8.29,9.17,16.08c.72,1.28,1.43,2.54,2.15,3.79l6,10.65,2,3.62c.17.29.33.58.49.87l1.31,2.32q4.68,8.28,9,16c.63,1.12,1.26,2.23,1.87,3.33s1.17,2.07,1.74,3.1l2,3.52q1.37,2.41,2.68,4.78l2,3.55,4.68,8.36,1.08,1.93,11.92,21.3c.32.58.64,1.16,1,1.73q3.11,5.55,6.1,10.89c.31.56.63,1.11.93,1.66,12.83,22.83,24.26,42.91,36.8,63.93,1.14,1.92,2.3,3.85,3.46,5.79,4.36,7.26,8.88,14.66,13.65,22.36l4,6.47q2.31,3.71,4.72,7.51,1.93,3.09,4,6.26C1235.92,873.22,1192,796.44,1147.94,719.7Zm47.9,553.94c7.31,2.82,15.18-1.28,23.14-5A54.9,54.9,0,0,1,1195.84,1273.64Zm5.55-203,.5-.24.88-.43,3.89-1.9.64-.31,2-1,1.47-.73,0,0,1.51-.76.81-.41,1.13-.57,5.29-2.69q.9-.48,1.86-1l3.52-1.83C1217.15,1062.81,1209.26,1066.69,1201.39,1070.65ZM1187,1368a19.55,19.55,0,0,0-4.71-8.49c0,16.39-.16,34.62-.37,41.69a20.78,20.78,0,0,0,2.08-1.2q1-10,2-20A20.78,20.78,0,0,0,1187,1368Zm-23.82-109.71c.89,1.72,2.56,2.42,3.88,3.41,1.61,0,2.24-1.24,3.08-2.12,4.94-5.21,9.65-10.6,14.19-16.14A88.32,88.32,0,0,1,1163.18,1258.29Zm7.72,81.08c3.44-3.5,6.77-7.1,10.34-10.49.46.53.8.73.81,1,.06,1,.1,2.6.14,4.78A140,140,0,0,1,1190,1318C1182,1327.59,1175.45,1334.63,1170.9,1339.37Zm-5.32,48.82c6.26,7,6.45,12.43,10.42,13.81a6,6,0,0,0,3,.2C1174.49,1397.55,1170.05,1392.86,1165.58,1388.19Zm8.25-113.16c1.39-.34,1.94-.17,4.29-.79A26,26,0,0,0,1173.83,1275ZM1169,1457l-4.24,14.65c3.68-7.08,8.69-12,15-14.75Zm-11-379c-6,7,1.63,18.68,2.61,34.37-.43-9.24-1.31-18.46-2.17-27.66a9.37,9.37,0,0,1,2.2-7.54,35.4,35.4,0,0,1,4.14-4C1160.64,1076,1158.57,1077.34,1158,1078Zm2.68,35.87c.2,6.13-.61,15.07-5.68,26.13l3,25c0,6.59-.21,16-1.12,27.35C1160.15,1166.29,1161.78,1140.13,1160.68,1113.87Zm-34,284.5c.28.31.52.57.71.75C1127.19,1398.84,1127,1398.59,1126.73,1398.37Zm-1.82-2.69a11.79,11.79,0,0,0,1.19,1.92C1125.7,1397,1125.3,1396.32,1124.91,1395.68ZM1102,1550c-.4-7.66-3.17-12.88-4.89-16.66.92,4.2,1.33,8.52,1.83,12.8a20.18,20.18,0,0,1-1.08,9c-1.31,3.74-3.78,6.35-7.64,7.25-2.1.48-4.22.92-6.35,1.25l16.13.39A37.61,37.61,0,0,0,1102,1550Zm-20.11-216.86a108.75,108.75,0,0,1-10.31-20.89c4.65,13.92,7,20.9,7.42,21.75,5.86,11.64,14.33,20,22.86,28.47C1094.92,1352.89,1088.09,1343.24,1081.89,1333.14ZM1074,1518c-3.58,5.15-6.79,9-8.94,15.83q11.37-19,22.76-38C1084.86,1495.53,1084.61,1502.76,1074,1518Zm-110.24,43.72a2.12,2.12,0,0,0,.11.29H964ZM954,1544a47.62,47.62,0,0,1-2-13l-15-17c-1.94-7.74-6-20-12.75-20.79q15,25.82,30,51.64C954.17,1544.57,954.09,1544.29,954,1544Zm-21.21,19.17a34.32,34.32,0,0,1-7.63-2.7c-6.19-2.92-9.34-8-9.88-14.75,0-.33,0-.65-.07-1A80.86,80.86,0,0,0,914,1564l19.14-.77C933,1563.22,932.91,1563.19,932.79,1563.17Zm-25.7-193.41c6.12-12.9,11-24.81,19.67-49.43C920.87,1337.07,914.55,1353.63,907.09,1369.76Zm-38.55,173.61c-.11.42-.23.83-.37,1.25a9.82,9.82,0,0,0-.16,3.26c.06,1.75.37,3.51.26,5.25a11.81,11.81,0,0,1-1,4.13,6.28,6.28,0,0,1-6,4c-1.76,0-3.86-.42-5.2.37a10.82,10.82,0,0,1-4,1.38l21,0Q870.77,1553.19,868.54,1543.37ZM848,1453c-226.83-.67-363.41-.46-374.56,1,44.28.92,88.57,1.07,132.87.85,28.46-.15,56.91-.56,85.37-.69,23.35-.1,46.69.06,70,.06,18.55,0,37.09-.12,55.64-.09a80.39,80.39,0,0,1,10.51.77c9.06,1.24,15.63,6,19.62,14.31a127.42,127.42,0,0,1,9.24,25.66c.64,2.64,1.38,5.27,1.78,8a61.09,61.09,0,0,0,3.86,13.41Zm-54.36-84.77-.66-1.62c-.44-1.07-.88-2.13-1.3-3.17-.22-.52-.43-1-.64-1.55-.31-.76-.62-1.5-.93-2.24l-.94-2.27q-1.9-4.56-3.63-8.64-.27-.65-.54-1.26c-1-2.5-2.06-4.85-3-7.06,6.65,15.63,13,31.41,19.39,47.14Q797.32,1377.23,793.64,1368.23Zm-64.37-183.62,9.14,11.24c.37.47.7,1,1.09,1.56,2.91-.07,5.13.37,5.5-.41C745.49,1196,742.62,1192.93,729.27,1184.61Zm.05,31.65a38.58,38.58,0,0,0,2.11,6.42C731.05,1221.65,730.44,1219.71,729.32,1216.26ZM698,1140l-4.6,9.91a32.69,32.69,0,0,1,3.84-4,21.4,21.4,0,0,1,2.1,2c.61.75,1.22,1.49,1.82,2.24Q699.59,1145.06,698,1140Zm-1.92,55.41c-2.3-7-4.94-13.85-6.51-21.05-.34-1.56-.68-3.12-1-4.69a25.4,25.4,0,0,1-.13-9.14L685,1168a270.11,270.11,0,0,1,15.87,44C699.56,1206.37,697.87,1200.86,696.08,1195.41Zm-16,63.74c7.42-6.1,13.87-13.07,18.21-22C691.6,1244.56,685.55,1251.91,680.06,1259.15Zm-7.11-.68a22,22,0,0,0,.76,2.58C673.49,1260.24,673.23,1259.37,673,1258.47Zm-9.62-22.07a138.38,138.38,0,0,1,9.5,21.7C672,1255.56,672.07,1252.36,663.33,1236.4Zm-.32-.6c-.14-.25-.28-.51-.43-.76.26.45.51.9.75,1.36C663.23,1236.2,663.12,1236,663,1235.8Zm-23.83,42a49.43,49.43,0,0,1-4.34-13.15,36.7,36.7,0,0,1-.66-6.12L631,1264c6.43,12.57,12.24,22.23,16.48,28.89C644.55,1288,641.77,1282.9,639.18,1277.77Z" transform="translate(-145.13 -123.81)"/><path d="M1418.63,971l-3,3.41c-3.81-3.09-7.4-6-11-8.92s-7.41-6.09-11.13-9.12c-3.57-2.91-7-5.92-10.54-8.55-1.42.48-1.21,1.4-1.31,2.12a186.69,186.69,0,0,0-1.25,30.17c.41,12.94,1.2,25.87,1.85,38.81,0,.57.06,1.13.08,1.66.55,12.2-.12,14.66.1,36.7.12,12.62.37,22.94.56,29.71l-9.67,11.27-18.63-25L1353,1071l2.72-2.86h0L1372,1051q.07-6.68.14-13.35v0q.12-11.75.25-23.49-1.82-5.05-3.62-10.12L1330,1033l-16-23,28.9-9.63h0l1.07-.36-.08-.08-.5-.46,0,0L1331,988c-2.65-.33-5.43-.8-8.33-1.43A96,96,0,0,1,1299,978c-3.77-5.81-9.24-14.28-15.8-24.58a.09.09,0,0,0,0,0l-2.45-3.86q-2-3.16-4-6.26-2.41-3.81-4.72-7.51l-4-6.47c-4.77-7.7-9.29-15.1-13.65-22.36-1.16-1.94-2.32-3.87-3.46-5.79-12.54-21-24-41.1-36.8-63.93l-.93-1.66q-3-5.34-6.1-10.89c-.33-.57-.65-1.15-1-1.73l-11.92-21.3-1.08-1.93-4.68-8.36-2-3.55q-1.32-2.37-2.68-4.78c-.65-1.17-1.31-2.34-2-3.52s-1.15-2.06-1.74-3.1l-1.87-3.33q-4.35-7.74-9-16l-1.31-2.32c-.16-.29-.32-.58-.49-.87-.68-1.19-1.36-2.4-2-3.62l-6-10.65c-.72-1.25-1.43-2.51-2.15-3.79q-4.44-7.78-9.17-16.08l-1.55-2.71L1138,702.42c-42.48-74-85.11-148-128.75-221.35-1-1.64-2-3.25-3-4.9-1.84,1.16-2.47,2.87-3.36,4.34-17.08,28.16-34.29,56.24-51.13,84.53C912.54,631,874.67,697.7,836.73,764.39c-33.59,59.05-67.16,118.12-101.57,176.7a51.24,51.24,0,0,0-2.62,5.11,63.73,63.73,0,0,1-20.29,25.7c-5.61,4.22-11.58,8-17.49,11.77-6.71,4.33-13.54,8.48-20.29,12.76-1.3.83-2.47,1.88-4.11,3.14a6.77,6.77,0,0,0,.65.26,5.24,5.24,0,0,0,.62.17l.3.06.58.08h0c.57.06,1.1.06,1.62.07h.38l.38,0c1.28.12,2.56.17,3.83.25,1.44.09,2.87.2,4.31.28,1.28.07,2.56.12,3.83.16l4.32.13c1.28,0,2.56,0,3.84.14s2.78.29,4.48.48a8.87,8.87,0,0,1-.38,2q-6.6,13.31-13.28,26.59a9.53,9.53,0,0,1-1.09,1.3c-.93-.55-1.88-1-2.77-1.64-8.92-5.93-17.81-11.89-26.75-17.79-1.28-.85-2.41-2.11-4.44-2.18-2.58,16.13-5.08,32.17-7.41,48.49,5,3.15,9.85,6.18,14.65,9.18-1.82,3.89-15.88,25.12-18.69,28.25-.61-.75-1.26-1.44-1.78-2.22-3.84-5.7-7.61-11.45-11.49-17.12a8,8,0,0,1-1.51-5.82c.87-6.82,1.59-13.66,2.39-20.49q1.72-14.76,3.48-29.52,2.17-18.33,4.36-36.67,1.68-14.28,3.32-28.57c.37-3.16.72-6.33,1.06-9.35-1.51-1.09-2.36,0-3.2.51a254.7,254.7,0,0,0-35.61,25.14c-1.32,1.12-2.66,2.22-4,3.35-1.18-.76-2.12-1.35-3.05-2-.54-.34-1.06-.7-1.56-1,0-.07.06-.16.1-.24l.22-.55.57-1.35q205-356.35,410.1-712.68l2.8-3.74c.22.33.51.72.75,1.13Q1212.38,612.74,1418.63,971Z" transform="translate(-145.13 -123.81)"/><path d="M873,1563l-21,0h0c-179.2.15-394.08.24-570.35.24H258.19l-3.85-6L483,1160.08a31.88,31.88,0,0,1,2.92,1.89,208.2,208.2,0,0,1,28.48,29.08c7.29,8.91,14.39,18,21.58,27a263.07,263.07,0,0,0,22,24.74c.55.54,1,1.17,1.58,1.84-.31.68-.54,1.26-.84,1.81-7.88,14.08-15.6,28.27-23.7,42.23-14.92,25.72-30.06,51.3-45.1,76.95-14.08,24-27.8,48.18-40.31,73-1.87,3.71-3.68,7.45-5.49,11.19-.41.84-.73,1.73-1.24,3a16.87,16.87,0,0,0,2.82.58l4.47.12c12.6.36,21.86.73,23.34.53,11.15-1.46,147.73-1.67,374.56-1l14.37,63.23q3.09,13.56,6.17,27.13h0Q870.78,1553.18,873,1563Z" transform="translate(-145.13 -123.81)"/><path d="M1757.77,1560.61c-1.07,1.11-2.24.8-3.29.82-20.3.44-40.6,1-60.9,1.25q-50.36.66-100.73,1l-11.82.08h-1.91l-5.62,0c-33.15.18-56.6.15-59.32.16-46.46,0-146.75.07-376.18,0q9-31.08,18-62.15v0q4.38-15.09,8.74-30.17h0L1169,1457l10.71-.1h0c166.32-1.47,244.93-2,279.21-2.08,5.56,0,10,0,13.37,0,25.1,0,50.2-.62,75.3-1,5.6-.08,11.19-.34,16.78-.54.95,0,1.9-.17,3-.27-.5-1.48-1-3-1.51-4.43l-36.68-66.88-74.93-136.62-2.22-4q30-34.17,60-69l13.06-15.2c2.37,3.11,227,392.44,232.1,402.2A11.22,11.22,0,0,1,1757.77,1560.61Z" transform="translate(-145.13 -123.81)"/><path d="M1464.66,1400.83a6.71,6.71,0,0,1-1.53.62c-5.62.42-250.54.08-253.84-.35-.77-1.15-.28-2.41.08-3.55,2.25-7,4.15-14.14,7-20.9,7.06-17,14.42-33.81,21.9-50.59,9.62-21.61,19.91-42.92,28.59-64.93q5.19-13.16,9.79-26.53a64,64,0,0,0,3.43-26.45c0-.26-.72-1.36-.28-2h0a1.12,1.12,0,0,1,.22-.19l-.34-.14a11.81,11.81,0,0,0-6.45-.75h0c-2.1.4-4.74,1.64-9,7l-.42.53a63.84,63.84,0,0,0-7,12,116.22,116.22,0,0,1-10.19,17.9,155.75,155.75,0,0,1-10,12.86c-.5.56-1,1.1-1.52,1.63-.27.29-.54.57-.82.85l-.32.31c-.28.29-.57.57-.86.83-.51.5-1,1-1.55,1.43s-.88.76-1.33,1.13-.87.71-1.31,1.06l-.08.06c-.37.29-.75.58-1.13.85-1.12.83-2.26,1.6-3.43,2.32-.25.16-.5.32-.76.46l-.86.5c-.39.23-.78.44-1.18.65s-.79.42-1.19.62l-1.21.59c-8,3.73-15.83,7.83-23.14,5-2.92-1.12-4.49-2.84-7.84-2.64-3.08.19-4.34,1.8-9.88,3.24-2.35.62-2.9.45-4.29.79l-.66.18c-.38.11-.75.23-1.12.36l-1,.35c-.37.14-.73.29-1.09.45l-.12.05c-.31.14-.63.29-.94.45s-.7.35-1,.54-.69.38-1,.59l-1,.64c-.33.21-.66.43-1,.67s-.57.41-.85.63-.56.44-.84.67-.69.57-1,.88-.68.6-1,.92a51.29,51.29,0,0,0-9.36,12.68,129.31,129.31,0,0,0-10,24.86c-4.43,14.54-7.56,29.39-10.41,44.31a17.45,17.45,0,0,0-.13,2.1c2.45,2,5.37,3.24,8.28,4.75,3.91-3.17,7.09-7,10.59-10.46s6.94-7.08,10.4-10.63l3.21-3.29,1.79-1.84,1.53-1.57c.47-.47.89-.9,1.27-1.3l1-1c.31-.3.57-.57.79-.81l.77-.79c4.55-4.74,11.07-11.78,19.1-21.37a140,140,0,0,0-7.81,16.62c-5,13.25-4,19.86-1.19,23.38.33.42.78.92,1.29,1.5h0A19.55,19.55,0,0,1,1187,1368a20.78,20.78,0,0,1-1,12q-1,10-2,20a20.78,20.78,0,0,1-2.08,1.2,10.91,10.91,0,0,1-3,1,6,6,0,0,1-3-.2c-4-1.38-4.16-6.78-10.42-13.81a39.73,39.73,0,0,0-3.55-3.51l-34.59,14.44c-.19-.18-.43-.44-.71-.75l0,0c-.18-.21-.38-.46-.59-.73a11.79,11.79,0,0,1-1.19-1.92h0c-1.63-3.22-1.51-6.37-1.9-8.67-.34-2-1.09-3.5-10-13-4.38-4.67-6.57-7-11.14-11.53-8.53-8.44-17-16.83-22.86-28.47-.43-.85-2.77-7.83-7.42-21.75-.17-.49-.33-1-.5-1.49-.23-.68-.45-1.34-.68-2s-.43-1.29-.65-1.92l-.6-1.74c-.16-.45-.31-.9-.47-1.34-1.72-4.87-3.4-9.41-5.56-15.11a109,109,0,0,0-4.79-11,188.47,188.47,0,0,0-32-44.71c-.66-.69-1.3-1.41-2-2a2.8,2.8,0,0,0-4.46.75,28.81,28.81,0,0,0-1.57,3.49c-3.11,7.54-6.19,15.08-9.3,22.61-.54,1.32-1.18,2.59-1.92,4.2-2.42-3.43-3.48-7.13-5.08-10.55s-3.07-7-4.61-10.54-3.08-7-4.7-10.58a18.44,18.44,0,0,0-2,1,133.61,133.61,0,0,0-22.13,19.06c-7.86,8.62-13.92,18.3-17.09,29.63a17.8,17.8,0,0,1-2.63,5.06q-9.45,14.16-18.84,28.36a30.33,30.33,0,0,0-3.28,6.9c-8.65,24.62-13.55,36.53-19.67,49.43A111.42,111.42,0,0,1,885.73,1400c-11-6-22.76-10.58-34.78-15.14-2.84,2.36-5,5.37-7.44,8s-4.9,5.47-7.4,8.28h-5.48c-.33-1.12-.73-2.12-.93-3.17-1-5.67-1.78-11.35-.94-17.15a31.14,31.14,0,0,1,2.82-9.62c4-8,4.48-16.28,2.26-24.74-1.55-5.87-3.47-11.63-5.26-17.42-.52-1.66-1.17-3.27-1.9-5.3,1.59.15,2.12,1.14,2.79,1.85q19.81,20.87,39.6,41.78c1.2,1.27,2.26,2.68,3.42,4.07l4.93-2,2.79-1.11h0a12.53,12.53,0,0,0-1-4.71Q861.13,1304,843,1244.42q-6.33-20.87-12.73-41.72a28.52,28.52,0,0,1-1.28-8,297.34,297.34,0,0,1,1.08-34,188.36,188.36,0,0,1,7.12-37.13c2.25-7.22,3.14-14.67,4.13-22.12.06-.47,0-1,.08-1.43.72-7.61-2.28-13.4-8.65-17.47-3.09-2-6.21-4-9.45-5.67q-15.45-8.2-31-16.21c-9.8-5.05-19.56-10.18-28.63-16.52a18,18,0,0,1-4.51-3.72,24.13,24.13,0,0,1,3.61-5.92c1.5.55,3,1,4.43,1.65,12.7,5.65,25.43,11.22,38,17,11.32,5.21,22.68,10.31,34.31,14.83a40.66,40.66,0,0,1,6,2.86c7.14,4.24,10.1,10.42,8.79,18.62-.78,4.89-1.91,9.73-2.82,14.6a121.72,121.72,0,0,0-2.4,22.37,62.13,62.13,0,0,0,6.72,29.15,15.69,15.69,0,0,1,1.57,9.75c-2.59,18.68-1.85,37.3.93,55.9,2.87,19.18,7.88,37.84,13.25,56.42q7.67,26.47,15.29,53a86.94,86.94,0,0,1,2.2,8.83,6.07,6.07,0,0,0,3.2,4.47c1.23.71,2.41,1.5,3.47,2.17,1.22-.36,1.16-1.26,1.33-2a228.74,228.74,0,0,1,22.11-59.58c19.56-36,47.26-63.74,83.42-83,1.54-.82,3.12-1.59,4.82-2.46,1.34.44,2.71.83,4,1.34,24.38,9.46,42.9,25.59,55.11,48.79a47.1,47.1,0,0,1,3.16,8c6.68,21.45,15.34,42,27,61.27a219.73,219.73,0,0,0,16.76,24c1.09,1.35,2.23,2.66,3.46,4.12l6.06-2.16c.43-1.3.88-2.48,1.21-3.71,7.45-27,14.7-54,20.73-81.27.32-1.45.63-2.87.93-4.25,9.37-42.93,10.33-55.3,10.92-62.76.91-11.31,1.11-20.76,1.12-27.35l-3-25c5.07-11.06,5.88-20,5.68-26.13,0-.5,0-1-.07-1.5-1-15.69-8.63-27.36-2.61-34.37.57-.66,2.64-2,6.78-4.81l.07,0c.72-.48,6.63-4.39,12.55-7.75,7.24-4.1,34.66-17.45,72.6-34.39l2.87,5.17,1.88,3.38.25.45c-4.24,3.11-8.26,5.85-12,8.26-.32.22-.65.42-1,.63-6,3.85-11.32,6.86-15.64,9.16l-1.41.74c-13,6.81-20.51,10.35-24.87,12.49l-.89.44-.8.4c-4.56,2.3-9.09,4.69-13.62,7.05-8.78,4.58-13,11.93-13.26,21.73-.18,6.45,1,12.72,2.4,19,1.53,6.87,3.22,13.69,4.65,20.57,1.34,6.44,2.18,12.93.89,19.52a25.53,25.53,0,0,0-.19,3.82c-.65,16.3-1.57,32.58-4,48.74-2.17,14.58-5.43,28.89-11,42.61-.42,1-.79,2.09-1.19,3.16a88.32,88.32,0,0,0,21.15-14.85h0a63.35,63.35,0,0,0,11-14c4.72-8.17,6.42-15.5,15.64-28.42,5.29-7.42,8.3-11.63,14-16a46.7,46.7,0,0,1,7.55-4.73c3.79-2,6.53-3.09,9.45-7.27s3.5-7.64,8.07-12.1a21.74,21.74,0,0,1,2.38-2l.84-.61c.78-.54,1.65-1.1,2.62-1.66l.46-.27.74-.4a15,15,0,0,1,13-.47,31,31,0,0,1,9.26,5.89c3.68,3.31,7.18,6.82,10.76,10.25,1,1,2,2,3.26,3.19l3.43-4.58L1300,1166l9-1,6-21.19,7.7,11.11,0,0,6.28,9-13.34,39.27h0L1311,1217l1.25,2.23h0l24.49,43.81,1.26-12q8.13-12.27,17.35-24.79c1-1.3,1.93-2.59,2.89-3.87h0L1360,1220l6.59,10.06,0,0,7.81,11.93,4.58,7-2,3.7-42,79.3,3.29-1c17.24-5.18,28.09-10.69,35-15l1.09-.69.48-.29.38-.24.19-.12,1-.63.38-.24.41-.26,11.5-7.22,15.61-9.78a34.09,34.09,0,0,1,2,2.79q28.32,49,56.6,98C1463.55,1398.46,1464.05,1399.6,1464.66,1400.83Z" transform="translate(-145.13 -123.81)"/><path d="M1206.65,970.5c-.64-3.45-1.37-6.9-2.31-10.28-2.47-9-6.26-17.43-10.12-25.86-11.39-24.88-24.65-48.77-38.49-72.34-7.77-13.23-15.82-26.3-23.42-39.62-16.08-28.18-32-56.43-49.17-84q-16.71-26.88-33.64-53.62c-.9-1.43-1.57-3.12-3.64-4.41.87,5.69,1.67,10.87,2.46,16,.81,5.37,1.66,10.74,2.41,16.12.73,5.18,2,10.3,2.09,15.64l-7,3.83c-1.19,10.64-1,21.35-2.18,32.28a22.73,22.73,0,0,1-2.8-.95,107.42,107.42,0,0,1-16.31-10c-10.32-7.71-17.55-17.6-21.07-30.06-1.3-4.61-2.56-9.24-3.66-13.9-3-12.51-7.06-24.57-13.8-35.6a5.8,5.8,0,0,1-.3-1.68c8.64,4.51,16.39,9.79,25,14.19,4.13-12.88,8.14-25.44,12.09-37.79-5.91-13-16.66-33.57-19.28-36.84a18,18,0,0,0-2.82,4.33q-26.58,46.11-53.13,92.23-13.39,23.26-26.77,46.55c-.48.83-1.53,1.64-.69,3,1.39-.7,2.68-1.32,3.94-2,7.91-4.18,15.9-8.21,23.69-12.61,4.45-2.51,8.94-4.11,14.09-3.47a14.09,14.09,0,0,0,7.85-1.68c4.34-2,8.73-4,13.12-5.88.82-.36,1.71-.55,2.75-.88.92,1.93.7,3.71.69,5.41a87.8,87.8,0,0,1-11.11,42.68,30.34,30.34,0,0,1-8.54,10.16A97.74,97.74,0,0,0,952,802.67a111,111,0,0,0-14.43,20.27c-.41.73-.51,2-2,1.64A40.66,40.66,0,0,1,935,810.8a29.4,29.4,0,0,0-.9-13.26c-.47-1.63-.16-3.56-1.51-4.81a2.14,2.14,0,0,0-.57-.23,11.39,11.39,0,0,0-1.43,0,69.74,69.74,0,0,0-32.45,12,22.3,22.3,0,0,0-6.78,7.25Q840.78,896.92,790.07,982c-.8,1.35-1.52,2.74-2.37,4.28a33.46,33.46,0,0,0,3.27,1.48c6.36,2.11,12.67,4.42,19.13,6.18a91.52,91.52,0,0,0,27,3.35A54.77,54.77,0,0,0,859.34,992a21.49,21.49,0,0,1,3.52-1.47,58.48,58.48,0,0,0,15.65-7.13,146.31,146.31,0,0,0,12.64-8.67c7.66-6,15.13-12.3,22.6-18.57,4.41-3.7,8.67-7.54,13.42-10.84,3.53-2.46,6.88-5.22,10.17-8,6.83-5.78,13.57-11.68,20.36-17.51a214.62,214.62,0,0,1,21.24-16.41,74.65,74.65,0,0,1,19.88-9.33c1.49-.44,3-1,4.68-.29.38,10.48-.1,20.84.29,31.33h3.6c0-3,.07-5.7.08-8.4s0-5.12,0-7.67c0-2.72-.06-5.44,0-8.16s-.33-5.36.35-8.09a18.06,18.06,0,0,1,5.75,1.3,93.72,93.72,0,0,1,26,13c11.7,8.42,22.58,17.84,33.32,27.41,13.48,12,26.94,24.08,41.48,34.85,8.5,6.29,17.22,12.17,26.86,16.6,10.29,4.73,21,7.61,32.39,7.66,3.68,0,7.35-.12,11-.09a31.19,31.19,0,0,0,17.72-4.94,6.94,6.94,0,0,0,3.33-4.35C1206.83,979.74,1207.5,975.14,1206.65,970.5ZM1007.89,815.23c-.16-1.16-.32-2.41-.5-3.77l-22.7-18.23a10.82,10.82,0,0,1,1.7-1.58c4.34-2.38,8.63-4.89,13.11-7a51.76,51.76,0,0,1,9.47-3.28,88.56,88.56,0,0,1,30.46-2.31c9.21,1,18.39,2.28,27.57,3.56,7.91,1.11,15.79,2.38,23.68,3.62a27.89,27.89,0,0,1,3.35,1c-1.56,2.33-3.55,3.69-5.24,5.33s-3.76,3.48-5.64,5.21-3.54,3.24-5.3,4.88-3.49,3.26-5.22,4.88c.26,2.05,1.6,3.29,2.59,4.67q19,26.55,39.58,51.85c.86,1.05,1.62,2.18,2.62,3.55C1103.26,865.41,1024.9,827.86,1007.89,815.23Z" transform="translate(-145.13 -123.81)"/><path d="M806.58,1401c-.7.31-1.12.66-1.53.66q-126.12,0-252.24,0a4.12,4.12,0,0,1-1.32-.51c-.12-1.93.88-3.44,1.62-5,4.38-8.88,8.78-17.75,13.34-26.54,2.28-4.39,4.89-8.61,7.38-12.9q11.46-19.68,22.94-39.34c1.94-3.3,3.88-6.63,6.12-9.73,4.28-5.92,7.49-6.66,13.92-3.27,3,1.56,5.77,3.42,8.58,5.25q18.09,11.75,36.15,23.55c1.19.77,2.43,1.47,3.85,2.31l3.53-2.85c.2-2.25-.75-3.81-1.53-5.34-2.84-5.54-5.66-11.1-8.8-16.47-4.8-8.23-8.82-14.34-11.11-17.93-4.24-6.66-10.05-16.32-16.48-28.89l3.18-5.5,20.29-35.1c1.93.83,2.49,2.42,3.34,3.72q1.52,2.34,2.93,4.73l1,1.64c.3.52.59,1,.87,1.55.15.25.29.51.43.76s.22.4.32.6c8.74,16,8.7,19.16,9.5,21.7l.12.37c.28.9.54,1.77.76,2.58v0c.57,2,1,3.7,1.28,4.93q2.44-3.4,5-6.84h0c5.49-7.24,11.54-14.59,18.21-22q3.38-3.71,6.73-7.2c-1.12-5.79-2.48-11.82-4.13-18A270.11,270.11,0,0,0,685,1168l3.47-7.47h0q2.46-5.31,4.93-10.61L698,1140q1.57,5.07,3.16,10.13h0q3.42,10.93,6.83,21.86c9,5.17,16,9.3,21.26,12.6h0c13.35,8.32,16.22,11.35,15.73,12.39-.37.78-2.59.34-5.5.41A14.81,14.81,0,0,0,731,1200a9.86,9.86,0,0,0-4,5c-.58,1.92-.21,3.49,2.32,11.26,1.12,3.45,1.73,5.39,2.11,6.42a4,4,0,0,0,.15.39c1.64,4,3.52,7.87,5.17,11.85,2.76,6.64,5.31,13.36,8.16,20l.78,1.8c.84,1.93,1.75,4,2.72,6.29.26.58.51,1.16.75,1.73l2.14,4.92,1,2.32c1.07,2.46,2.18,5,3.34,7.68l1.16,2.67c7.82,18,17.07,39.29,24.7,57,5.11,11.86,12,28.22,19.87,48.26a.69.69,0,0,1,0,.13Q804,1394.08,806.58,1401Z" transform="translate(-145.13 -123.81)"/><path d="M1100,1564l-16.13-.39h0l-35.36-.84c9.74-7,13.19-13.79,14.52-18.77,1-3.63.53-5.27,2-10,0,0,0-.11,0-.16h0c2.15-6.85,5.36-10.68,8.94-15.83,10.61-15.24,10.86-22.47,13.82-22.13,4.3.5,0,17.13,9.29,37.47,1.72,3.78,4.49,9,4.89,16.66A37.61,37.61,0,0,1,1100,1564Z" transform="translate(-145.13 -123.81)"/><path d="M964,1562h-.13l-30.71,1.22h0L914,1564a80.86,80.86,0,0,1,1.21-19.26h0c.23-1.21.49-2.46.79-3.73,2.25-9.55,5-13.26,7-22a69.81,69.81,0,0,0,.81-25.82h.05l.39,0c6.8.78,10.81,13,12.75,20.79l15,17a47.62,47.62,0,0,0,2,13c.09.29.17.57.27.85a48.26,48.26,0,0,0,9.49,16.87Z" transform="translate(-145.13 -123.81)"/><path d="M604.81,1157.17c-1.39,4.22-15,31-17.5,34.36-.58-.84-1.16-1.57-1.62-2.36-14.77-25.41-38.05-67.63-39-72.29l56.47,38.8A16.34,16.34,0,0,1,604.81,1157.17Z" transform="translate(-145.13 -123.81)"/><path d="M1456,1132c-1.17,2-2.33,4.09-3.49,6.13h0l-29,50.78-13.49-18.7,36.94-30.73h0Z" transform="translate(-145.13 -123.81)"/><path d="M1007.18,1430.39h-2.92a10.81,10.81,0,0,1-.45-1.94c-.6-15-.23-126.15.47-130.56l2.66-.21a5.07,5.07,0,0,1,.58,1.37c.1,1.43.13,2.87.13,4.31q0,60.87,0,121.73C1007.64,1426.82,1007.89,1428.59,1007.18,1430.39Z" transform="translate(-145.13 -123.81)"/><path d="M1007.2,1077.22a7.88,7.88,0,0,1-1.43.29,8.49,8.49,0,0,1-1.53-.3,9.83,9.83,0,0,1-.43-1.78c-.51-11.81-.18-71.72.45-75.92l2.65-.23a4.68,4.68,0,0,1,.6,1.35c.11,1.43.14,2.87.14,4.3q0,33.54,0,67.08C1007.64,1073.73,1007.93,1075.51,1007.2,1077.22Z" transform="translate(-145.13 -123.81)"/><path d="M1007.17,1555.3c-1.2.54-2.1.32-2.35-1.12a17.1,17.1,0,0,1-.12-2.87q0-35.22,0-70.46c0-1.23.19-2.47.29-3.77h2.26c.1,1.06.26,2,.28,2.92C1008,1500.64,1007.76,1550.5,1007.17,1555.3Z" transform="translate(-145.13 -123.81)"/><path d="M1006.73,1186.5c-.24-.37-.68-.74-.67-1.08.47-10,1-20,1.54-30.8C1015.27,1163.86,1015.1,1179.91,1006.73,1186.5Z" transform="translate(-145.13 -123.81)"/></svg>