<svg id="图层_1" data-name="图层 1" xmlns="http://www.w3.org/2000/svg" viewBox="0 0 1818.24 1908.24"><defs><style>.cls-1{fill:#fff;}</style></defs><title>荒芜</title><path class="cls-1" d="M1744.41,1426.44c-.12-1.76-1.31-3.12-2.16-4.6q-55-95.11-110-190.22-89-154.11-178-308.28c-57.66-100.21-114.92-200.64-172.57-300.86Q1166.83,422.68,1050,224c-19.17-32.51-38.75-64.77-58.19-97.12-3-4.93-6.21-9.69-9.36-14.51-.48-.73-.85-1.74-2-1.6a4.64,4.64,0,0,0-.4.31,2.67,2.67,0,0,0-.31.36,3.51,3.51,0,0,0-.27.4l-.24.42c-.16.27-.33.54-.49.82l-.24.41L830.31,370.3l-1.2,2.07-.49.83-.24.41-.49.83c-.08.14-.17.27-.26.4a2.75,2.75,0,0,1-.26.4,1.22,1.22,0,0,1-.36.32,8.34,8.34,0,0,1-.89.37c-4.33-3-8.63-6.53-13-9.88s-8.64-6.62-13-9.94l-13.33-10.22-13.31-10.24-13.32-10.23c-4.32-3.31-8.61-6.65-12.94-9.93s-8.77-6.9-13.5-10.2l-2.66,2.62c1,1.79,1.85,3.46,2.77,5.12q30.33,54.77,60.66,109.53c.92,1.65,1.77,3.34,2.49,4.69a7.73,7.73,0,0,1-.4,1.4q-6.58,11.14-13.23,22.27c-.26.45-.86.7-1.61,1.27-3.11-5-6.25-9.67-9-14.55-7.2-13-14.19-26.13-21.3-39.2Q712.73,327.24,674,256.05a98.73,98.73,0,0,0-8.56-13.3,93.42,93.42,0,0,0-17.17-16.66q-52-40.22-104-80.42c-5.19-4-10.67-7.61-16-11.37a24.72,24.72,0,0,0-2.59-1.41l-2.45,2.39L678.46,450.36a1.45,1.45,0,0,1,.14.46,1.24,1.24,0,0,1,0,.47,4.65,4.65,0,0,1-.29.64,14.09,14.09,0,0,1-4-.84L418.15,377.15q-15-4.32-29.94-8.63c-1-.28-2.08-1-3.13.38l172.5,473c-.1.55-.12.71-.16.86a4,4,0,0,1-.16.45c-.07.15-.15.28-.22.43s-.15.28-.22.42-.14.29-.22.43q-167.22,289.83-334.43,579.66c-.16.28-.32.56-.47.84l-.23.43c-.15.27-.32.55-.47.83a2.39,2.39,0,0,0-.18.44,1.56,1.56,0,0,0,0,.48,4.12,4.12,0,0,0,.14.68c2,.83,4.28.4,6.45.4q365.27,0,730.53,0c1.76,0,3.52-.06,5.28,0,1.08,0,2.15.31,3.14.45.46,1.12.86,2,1.18,2.9,12.81,36.41,32.76,68.48,58.5,97.16q43.59,48.59,86.67,97.62,95.79,109.1,191.37,218.36c3.15,3.6,6.81,6.74,10.26,10.06a12,12,0,0,0,1.86,1.23c1.78-1.62,1.83-1.64,1.54-2.32-.56-1.32-1.17-2.63-1.79-3.92L1143,1488.07q-13-27.25-26-54.53c-.66-1.39-1.82-2.68-1.49-4.42,3.79-.59,89.61-.63,94.18,0q107.92,111.48,216.25,223.41c1.19-.93,2.17-1.68,3.11-2.4-.23-2-1.35-3.44-2.17-5q-48.9-90.53-97.84-181-9-16.66-18-33.35c-.57-1.06-1.67-2-1-3.47.17-.06.31-.13.45-.17l.47-.09.48,0h431l.48,0a3.88,3.88,0,0,0,.48,0,2.35,2.35,0,0,0,.45-.14A5.41,5.41,0,0,0,1744.41,1426.44Z" transform="translate(0 -12)"/><path class="cls-1" d="M0,21.6a4.56,4.56,0,0,1,1.78,3.28c.28,2.85.78,5.71.78,8.57q.07,72.94,0,145.88,0,79.41-.08,158.83l-.12,285Q2.33,752,2.29,880.87q0,516.56-.09,1033.12c0,2.07-.18,4.13-.28,6.2H0Z" transform="translate(0 -12)"/><path class="cls-1" d="M5.76,12c-1.59,2-3.7,3.64-4.57,6.21-.09.27-.78.34-1.19.51V12Z" transform="translate(0 -12)"/><path class="cls-1" d="M1817.27,1920.19l1-1.92c0,.48,0,1,0,1.44C1818.3,1920.68,1817.57,1920,1817.27,1920.19Z" transform="translate(0 -12)"/><path d="M1744.41,1426.44c-144.44,1.93-289.79-.58-434.39.86l119,222.82c-.94.72-1.92,1.47-3.11,2.4q-108.33-111.91-216.25-223.41h-94.18q100.33,213.48,200.68,427L1006,1516l-39.68-87.24c-124.24-.17-248.48-.7-372.72-.49s-248.55.43-372.68-.41C330.84,1232,447,1037.78,557.58,841.91l-172.5-473c97.21,24,195.49,57,293.21,83C628.92,346.24,574.31,241,523.12,135.28l2.45-2.39c37.47,25.3,51,40.34,139.84,109.85q58.15,104.73,116.33,209.45L797,427.25q-16.41-29.87-32.93-59.68Q745.59,334.24,727,301l99.12,74.93c53.11-86.69,101.79-177.71,154.27-265.17C1243.74,543,1488.87,988.94,1744.41,1426.44Zm-43.84-25.11a4.69,4.69,0,0,0-.25-1.42Q1341.93,779,983.49,158c-.13-.23-.54-.29-1-.51-.74,1.19-1.53,2.36-2.24,3.59q-23,39.89-46,79.77L668.48,701.24q-192.55,333.66-385.12,667.3-8.52,14.76-17,29.52c-.59,1-1.76,2-.79,3.65q716.7,0,1433.6,0A6.09,6.09,0,0,0,1700.57,1401.33Zm-972.44-855L533,487.75a5.77,5.77,0,0,0-1.45,0,5.09,5.09,0,0,0,.13,1.42c31.8,76.92,63.62,153.83,95.72,231.45,2.87-4,4.84-7.82,7-11.46s4.43-7.41,6.56-11.17,4.61-7.25,6.31-11.31c-6.47-15.23-12.94-30.36-19.33-45.52S615,611,608.71,595.62c1.86-.45,3.16.19,4.5.59q34.66,10.41,69.33,20.8c1.49.45,3,.79,4.76,1.24,13.4-23.35,26.68-46.49,39.94-69.63A20.88,20.88,0,0,0,728.13,546.29Z" transform="translate(0 -12)"/><path class="cls-1" d="M1700.57,1401.33a6.09,6.09,0,0,1-1.41.36q-716.85,0-1433.6,0c-1-1.64.2-2.63.79-3.65q8.46-14.79,17-29.52,192.56-333.64,385.12-667.3L934.2,240.87q23-39.88,46-79.77c.71-1.23,1.5-2.4,2.24-3.59.46.22.87.28,1,.51q358.44,620.93,716.83,1241.89A4.69,4.69,0,0,1,1700.57,1401.33Zm-473.35-124c8.61,16.12,17.29,32.07,25.94,48s17.22,32.08,26.14,48.15q183.62,0,366.84,0a10.65,10.65,0,0,0,2-.4c-.37-2-1.48-3.37-2.33-4.84Q1508.39,1130.21,1371,892.16,1191.85,581.8,1012.71,271.45q-13.79-23.89-27.61-47.76c-.66-1.13-.92-2.73-2.58-3-4.19,6.27-55.49,95.59-56.92,99.09a6.27,6.27,0,0,0,.9,1c11.8,8.79,23.27,18,35.62,26.05a119.62,119.62,0,0,1,24.27,21,168.51,168.51,0,0,1,14,18.27l217.45,324.41q15,22.32,29.84,44.69c.82,1.23,2.08,2.32,2,4.48-5.83-1.7-11.32-3.28-16.8-4.89s-11-3.25-16.56-4.89L1199.8,745c-5.51-1.63-11-3.33-16.55-4.9s-10.85-3.55-17.12-4.72c.79,1.66,1.24,2.79,1.84,3.83q7.52,13.11,15.08,26.19,136,235.82,272.08,471.61,9.94,17.25,19.87,34.51c.59,1,1.73,2,.92,3.75h-5.59l-108.47,0q-43.92,0-87.83-.09c-13.76,0-27.51-.06-41.24,1.08C1231.09,1276.32,1229.27,1276.05,1227.22,1277.36ZM857.63,805.55c2.52-.06,4.54,1,6.63,1.7,42,13.88,84.06,27.85,126.13,41.62a12.94,12.94,0,0,1,8,6.72q100.89,186.21,201.95,372.31c.91,1.68,1.88,3.33,2.75,4.89,5.19.75,144.7,1.07,183.5.43,1.08,0,2.15-.18,3.17-.27.09-.53.29-.92.17-1.12Q1188.3,882.12,986.6,532.45c-.62-1.07-1.37-2.06-2.09-3.14-2.43,2.86-10.22,16.76-12.11,21.59.78,1.37,1.62,2.91,2.51,4.4,16.38,27.29,32.67,54.62,49.16,81.84q54.06,89.25,108.25,178.42c9.28,15.32,18.33,30.77,27.49,46.16a12.57,12.57,0,0,1,1,1.67c.2.49.9,1-.2,1.83l-28-9.12q-14.37-4.67-28.74-9.32-14.13-4.6-28.25-9.25l-28.27-9.2L1019,819.14l-28.71-9.39q-14.13-4.62-28.27-9.2t-28.27-9.2c-9.42-3.07-18.83-6.18-28.25-9.25s-19.15-6.23-28.73-9.32c-9.4-3-18.72-6.28-28.42-9.13l-28.17,49.49a8.88,8.88,0,0,0,.29,1.35c.43,1,.88,2.06,1.37,3.07q98.94,206.79,197.9,413.59a1.23,1.23,0,0,0,.27.4,4.54,4.54,0,0,0,.65.4,12.55,12.55,0,0,0,1.62.18q20.14,0,40.3-.12a.83.83,0,0,0,.45-.15,3.74,3.74,0,0,0,.48-.63c-.63-1.4-1.28-3-2-4.53q-92.67-188-185.36-376-9.85-20-19.73-40c-.41-.84-.68-1.74-1-2.64Zm.38,470.93c.73,2.11,1.2,3.6,1.76,5.06q6.76,17.7,13.55,35.38a24.23,24.23,0,0,1,1.1,3.64c.07.31-.4.88-.76,1.1s-1,.33-1.29.13a37.9,37.9,0,0,1-3.06-3q-18-19.65-36-39.29c-4.94-5.36-2.64-4.43-10.19-4.43q-163.17,0-326.33,0c-1.6,0-3.2,0-4.8,0-.74,0-1.47-.15-2-.21-.21-.49-.36-.69-.32-.78L627.89,1033q-21.79-59.54-43.66-119.19c-.16-.42-.59-.73-1.1-1.35-.32.47-.62.84-.86,1.25q-132,228.93-264,457.88a1,1,0,0,0-.1.47,1.52,1.52,0,0,0,.2.43c.26.14.52.39.79.39q310.49,0,621,0a5.15,5.15,0,0,0,1.23-.3,3.88,3.88,0,0,0,.21-.57,2.36,2.36,0,0,0,0-.46,1.79,1.79,0,0,0-.1-.47q-18.23-42.52-36.47-85c-1.26-2.94-2.6-5.84-3.9-8.75a1.4,1.4,0,0,0-.3-.38c-.12-.1-.27-.17-.66-.42Zm-66.07-43.77c-6.93-9.7-123.4-139.93-130-145.45-1.44,1.28-2.15,3.07-3.08,4.69q-28,48.63-55.91,97.28-11.34,19.76-22.66,39.52c-.67,1.18-1.94,2.24-1.26,4.2H789C789.79,1232.94,790.54,1232.82,791.94,1232.71ZM752.51,931c-1.82.7-2.11,2.25-2.77,3.45q-8.62,15.49-17.15,31.06c-2.91,5.31-2.73,3.83-.49,9.25q26.76,64.66,53.56,129.33,25.68,62,51.39,124c.66,1.6,1.41,3.16,2,4.56,7.54.59,38.47.4,42-.25a3.7,3.7,0,0,0,0-1.37Q817.56,1080.73,752.51,931Zm32.43-367.64c-2.82,3.67-34.14,57.68-41.14,70.86a24.16,24.16,0,0,0-.92,2.29c1.22.48,2.23.94,3.28,1.27q45.27,14.21,90.55,28.35a22,22,0,0,0,2.95.52l46.59-81.11c-3.59-6.37-7-12.49-10.47-18.62q-21.49-38.24-43-76.48c-.82-1.46-1.34-3.19-3.18-4.38-5.39,9.05-10.69,17.94-15.89,27,.87,1.75,1.62,3.33,2.43,4.87q15.61,29.7,31.25,59.39c.62,1.19,1.63,2.31,1.39,4.31-7.28-1.89-14.27-4-21.29-6s-14.13-4-21.2-6.05S792.19,565.48,784.94,563.39Zm370.85,809.15c-1.07-1.08-2.14-2.23-3.27-3.31a396.54,396.54,0,0,1-28-28.94c-15.79-18.33-28.82-38.31-36.88-61.28a18.68,18.68,0,0,0-1.21-2.41,6.08,6.08,0,0,0-1.13-.23q-20.87,0-41.74,0a7.22,7.22,0,0,0-1.8.52c.56,1.33.94,2.37,1.41,3.36q21.51,45,43,90c.54,1.13,1.25,2.18,1.84,3.19,22.49,0,44.71,0,66.93,0C1155.18,1373.37,1155.38,1373,1155.79,1372.54ZM655,789q23.65,56.36,47.33,112.7c.1.24.52.33,1,.64l21.29-36.67q-24.12-56.19-48.24-112.35c-.1-.23-.5-.34-.76-.5C673.39,755.54,658.76,781.1,655,789ZM954,468.36c-.89-1.48-1.68-2.86-2.52-4.21l-46.24-74.51c-2.94-4.75-5.86-9.51-8.85-14.24a12.45,12.45,0,0,0-1.89-1.88,15.4,15.4,0,0,0-1.1,1.42q-10.68,18.44-21.34,36.91a8.57,8.57,0,0,0-.53,1.87c.82.48,1.48.91,2.18,1.26a85.62,85.62,0,0,1,26.33,21.21,158.09,158.09,0,0,1,14,19.42c4.14,6.64,8.11,13.38,12.3,20,3.42,5.39,7,10.66,10.61,16a26.74,26.74,0,0,0,2.17,2.42C944.28,485.2,949.2,476.86,954,468.36ZM894.8,684.23c6.44,2.55,51,15.92,54.61,16.41.05-.13.15-.27.14-.39a2.48,2.48,0,0,0-.21-.92Q934,672,918.71,644.61a.81.81,0,0,0-.36-.3,1.07,1.07,0,0,0-.4,0C915.49,647.45,896.56,680,894.8,684.23Z" transform="translate(0 -12)"/><path class="cls-1" d="M728.13,546.29a20.88,20.88,0,0,1-.89,2.33C714,571.76,700.7,594.9,687.3,618.25c-1.74-.45-3.27-.79-4.76-1.24q-34.68-10.38-69.33-20.8c-1.34-.4-2.64-1-4.5-.59C615,611,621.59,626,628,641.15s12.86,30.29,19.33,45.52c-1.7,4.06-4.2,7.58-6.31,11.31s-4.32,7.47-6.56,11.17-4.17,7.44-7,11.46c-32.1-77.62-63.92-154.53-95.72-231.45a5.09,5.09,0,0,1-.13-1.42,5.77,5.77,0,0,1,1.45,0Z" transform="translate(0 -12)"/><path d="M1227.22,1277.36l248.7-2.13c-100.08-180.61-208.08-359.37-309.79-539.89l83.58,24.3L988,357l-61.5-36.22,56-100.13q332.79,576.24,665.6,1152.48l-368.82.42Z" transform="translate(0 -12)"/><path d="M857.63,805.55l-2.24,2.53c.35.9.62,1.8,1,2.64q9.86,20,19.73,40,92.69,188,185.36,376c.76,1.54,1.41,3.13,2,4.53a3.74,3.74,0,0,1-.48.63.83.83,0,0,1-.45.15q-20.14.08-40.3.12a12.55,12.55,0,0,1-1.62-.18,4.54,4.54,0,0,1-.65-.4,1.23,1.23,0,0,1-.27-.4q-99-206.79-197.9-413.59c-.49-1-.94-2-1.37-3.07a8.88,8.88,0,0,1-.29-1.35l28.17-49.49c9.7,2.85,19,6.11,28.42,9.13q14.37,4.63,28.73,9.32c9.42,3.07,18.83,6.18,28.25,9.25s18.85,6.14,28.27,9.2,18.85,6.12,28.27,9.2l28.71,9.39,28.27,9.19,28.27,9.2q14.13,4.62,28.25,9.25,14.37,4.68,28.74,9.32l28,9.12c1.1-.81.4-1.34.2-1.83a12.57,12.57,0,0,0-1-1.67c-9.16-15.39-18.21-30.84-27.49-46.16q-54.08-89.23-108.25-178.42c-16.49-27.22-32.78-54.55-49.16-81.84-.89-1.49-1.73-3-2.51-4.4,1.89-4.83,9.68-18.73,12.11-21.59.72,1.08,1.47,2.07,2.09,3.14q201.69,349.68,403.34,699.38c.12.2-.08.59-.17,1.12-1,.09-2.09.25-3.17.27-38.8.64-178.31.32-183.5-.43-.87-1.56-1.84-3.21-2.75-4.89q-101-186.14-201.95-372.31a12.94,12.94,0,0,0-8-6.72c-42.07-13.77-84.09-27.74-126.13-41.62C862.17,806.56,860.15,805.49,857.63,805.55Z" transform="translate(0 -12)"/><path d="M858,1276.48H900.1q20.61,48,41.23,96.1c-207.47.49-415.66.74-623-.12,86.84-153.46,176.64-306.82,264.8-460C599.31,951.87,612.69,993,627.89,1033,582.34,1113.74,534,1194.19,490,1274.81l339.24.45L874,1321Z" transform="translate(0 -12)"/><path d="M791.94,1232.71c-1.4.11-2.15.23-2.91.23H579c-.68-2,.59-3,1.26-4.2Q591.57,1209,603,1189.23q27.94-48.64,55.91-97.28c.93-1.62,1.64-3.41,3.08-4.69C668.54,1092.78,785,1223,791.94,1232.71Z" transform="translate(0 -12)"/><path d="M752.51,931q64.93,149.76,128.6,300a3.7,3.7,0,0,1,0,1.37c-3.58.65-34.51.84-42,.25-.62-1.4-1.37-3-2-4.56q-25.71-62-51.39-124-26.79-64.66-53.56-129.33c-2.24-5.42-2.42-3.94.49-9.25q8.52-15.56,17.15-31.06C750.4,933.28,750.69,931.73,752.51,931Z" transform="translate(0 -12)"/><path d="M784.94,563.39c7.25,2.09,14.3,4.13,21.36,6.15s14.14,4,21.2,6.05,14,4.15,21.29,6c.24-2-.77-3.12-1.39-4.31q-15.6-29.72-31.25-59.39c-.81-1.54-1.56-3.12-2.43-4.87,5.2-9,10.5-17.92,15.89-27,1.84,1.19,2.36,2.92,3.18,4.38q21.53,38.22,43,76.48c3.44,6.13,6.88,12.25,10.47,18.62l-46.59,81.11a22,22,0,0,1-2.95-.52Q791.43,652,746.16,637.81c-1-.33-2.06-.79-3.28-1.27a24.16,24.16,0,0,1,.92-2.29C750.8,621.07,782.12,567.06,784.94,563.39Z" transform="translate(0 -12)"/><path d="M1155.79,1372.54l-67.75.86q-22.44-46.58-44.89-93.16l42.13-3.87L1112,1329Z" transform="translate(0 -12)"/><path d="M655,789c3.76-7.91,18.39-33.47,20.66-36.18.26.16.66.27.76.5q24.14,56.16,48.24,112.35l-21.29,36.67c-.52-.31-.94-.4-1-.64Q678.65,845.37,655,789Z" transform="translate(0 -12)"/><path d="M954,468.36,939.15,494,905,435l-31.26-20q9.85-20,19.69-40Z" transform="translate(0 -12)"/><path d="M894.8,684.23c1.76-4.22,20.69-36.78,23.15-39.93a1.07,1.07,0,0,1,.4,0,.81.81,0,0,1,.36.3Q934,672,949.34,699.33a2.48,2.48,0,0,1,.21.92c0,.12-.09.26-.14.39C945.79,700.15,901.24,686.78,894.8,684.23Z" transform="translate(0 -12)"/></svg>