<svg id="svg" xmlns="http://www.w3.org/2000/svg" viewBox="0 0 313.05 350.8"><defs><style>.cls-1{fill-rule:evenodd;}</style></defs><title>蛮鳞</title><g id="svgg"><path id="path0" class="cls-1" d="M354.9,307.6h-2c-10.1-18.8-20.2-37.5-30.3-56.3.3-5.4.6-10.7.8-16A99,99,0,0,1,323,210a103,103,0,0,1,12.1-38.6l-3.3,1.8a325.16,325.16,0,0,1,20.7-38.8c2.3-3.7,9-14.1,8.3-14.6-.2-.1-.9.5-1.4,1a315.78,315.78,0,0,1-24.9,28.9,303.43,303.43,0,0,1-23.4,21.8c-.9.4-1.8.9-2.7,1.3,1,.6,1.9,1.2,2.8,1.8-3.6,4.2-7.1,8.4-10.7,12.6a13,13,0,0,1-2.7,1c-1.9.4-3,.1-3.4.7-.3.4-.3,1.1.8,3a25,25,0,0,0-2.4,4.3c-.5,1.3-.9,2.3-1.5,2.4s-1.2-.7-1.5-1.3c-2.4-4-4.9-8.1-7.3-12.3-1.8-3-3.5-6-5.2-8.9-1.1,1.4-2.1,2.8-3.2,4.2-3.7-6.9-7.5-13.9-11.2-20.8a24.17,24.17,0,0,0-2.5,2.8,4.37,4.37,0,0,0-.8,1.7c0,.5.2.7.2,1.3a4.06,4.06,0,0,1-.4,2.2c-4.8-8.3-9.7-16.6-14.5-25-.9,1.2-1.7,2.3-2.6,3.5-.2-1.3-.4-2.7-.5-4a61.85,61.85,0,0,1-6,8.6,43.77,43.77,0,0,1-3.5,3.8l-.5.5c-.3.4-.4.4-.4.5,0,.3,1.2.4,1.4.4,1.2.1,1.5-.2,1.8,0,.7.5.2,2.5,0,3.1a9.36,9.36,0,0,1-1.8,3.4c-3.4-5.5-6.8-11.1-10.2-16.6-.5.4-1.3.9-2.3,1.6-2.6,1.7-3.1,1.9-3.4,2.7-.3,1,0,2.1-.6,2.5a1.53,1.53,0,0,0-.7.5.73.73,0,0,0-.1.6l-3.6-7.5c-2.5-4.3-5.1-8.6-7.6-12.9-.3-7.1-.5-12.4-.6-14.7-.1-4.7,0-2.8,0-3-.1-1.8-.2-2.6.3-3.6.3-.7.5-.5.8-1.3a5.68,5.68,0,0,0,.1-3.4,9.07,9.07,0,0,0-.4-1.6c-.1-1.4-.1-2.8-.2-4.3,4.1-6.4,8.1-12.8,12.2-19.2,7.7,13.1,15.5,26.1,23.2,39.2-1.5,1.7-3,3.3-4.5,5L218.1,96.6c-4.3,6.4-8.6,12.9-12.8,19.3,5.8,9.4,11.6,18.9,17.4,28.3,1-2.2,2.1-4.5,3.1-6.7.8-.8,1.6-1.5,2.4-2.3a26.08,26.08,0,0,0,3.8-2.8,19.36,19.36,0,0,0,3.7-4.3c2.8,4.9,5.5,9.8,8.3,14.7,1.5-2.5,2.9-5,4.4-7.6,4.8,8.1,9.6,16.2,14.4,24.2,1.1-.9,2.2-1.8,3.3-2.8-5.4-9.4-10.9-18.9-16.3-28.4-.8,1.6-1.6,3.2-2.3,4.8-2.4-4-4.7-8-7-12,1.1-1,2.2-1.9,3.3-2.8,2,3,4,6,5.9,9a63.92,63.92,0,0,1,4.9-6.9c3.3-4.1,4.8-4.8,9-9.5,2.5-2.8,2.5-3.2,6.3-7.8,3.1-3.8,5.7-6.7,7.3-8.5-5.3,3-10.7,6.4-16.4,10A167.9,167.9,0,0,0,243.5,117c-9-14.6-18.1-29.2-27.1-43.7-3.6,6-7.3,12-10.9,18a60,60,0,0,1,.9-14.6,60.9,60.9,0,0,1,5.1-15.5c-2-4.9-4-9.9-6.1-14.8Q177.5,89.6,149.6,133a2.65,2.65,0,0,0,1-.3c1.8-.8,2-3.2,2.6-3.1.3,0,.6.9.6,1.6-.1,1.6-1.8,1.9-2.1,3.9a7,7,0,0,1-.3,1.2,4.43,4.43,0,0,1-1.2,1.5l-.6.6a14,14,0,0,0-2.2,2.4c-1,1.4-.8,1.7-1.5,2.6a6.44,6.44,0,0,1-3.3,2.2c-8.4,14-16.9,27.9-25.3,41.8a2.11,2.11,0,0,1-.4,1c-.4.7-.8.7-1.2,1.2s-.3,1.1-.5,1.9a6.19,6.19,0,0,1-1.5,2.7,10.59,10.59,0,0,1-1,1.2,5.37,5.37,0,0,0-1.2,2.4c-.2.9.1,1.5.5,3.3.2.7.4,1.9.7,3.3a21.57,21.57,0,0,1,.1,3.7,19.13,19.13,0,0,1-1,4.9,1.8,1.8,0,0,1,1.2,1.3c.3,1.3-1.7,1.8-2,4a17.59,17.59,0,0,1-.2,2.8c-.2,1.3-.5,1.6-.6,1.6-.7.2-1.6-1.6-2.1-1.4s.3,1.6-.3,2.4-2.6.4-3.7.2c-1.7-.4-2.6-1-2.8-.7s.5,1.8,1.7,4.3a1.72,1.72,0,0,1,.1.8c0,.7-.4,1.1-1,1.8-1.1,1.5-1,1.9-1.5,2.1a2,2,0,0,1-1.7-.3c-.7-.3-1.3-.5-2-.8a1.13,1.13,0,0,0-1,.7c-.1.3.2.6.2.6a2.46,2.46,0,0,0,1.5.5,3.68,3.68,0,0,1,1.6,1c.6-.2,1.2-.5,1.8-.7s1.2-.7,1.7-1c.3.7.6,1.3.9,2v2.3c0,.3.1.7-.2.9a1.18,1.18,0,0,1-1,.1c-2.5-.5-3.3-.8-3.7-.5s-.4,1.1-.4,1.3a2.51,2.51,0,0,0,1.3,2c1,1,1.5.8,2.3,1.7a3,3,0,0,1,.8,1.7c0,.5-.4.9-1.1,1.8a9.6,9.6,0,0,1-1.4,1.5,7.74,7.74,0,0,1-1.2,1,1.74,1.74,0,0,0-.1,1.4c.6.6,2.1-.3,2.7.4s-.4,2.3-.4,2.4a6.54,6.54,0,0,1-2.5,2.1c-.9.5-1.3.7-1.7.6-.7-.2-1.1-1.3-1.1-2.6a4.23,4.23,0,0,0-1.3-1.7,3.76,3.76,0,0,0-1.7-.8h-.3a.6.6,0,0,1-.1.4,4,4,0,0,1-.4,3.4c-1.5,1.9-5.3.8-5.5-.2-.1-.5.7-1.1.5-2.1,0-.3-.1-.4-.2-.4-.3-.1-.8.6-.9.8a4.93,4.93,0,0,0-.6,1.4,3.23,3.23,0,0,0-.2,1.2c.2,1.1,1.8,1,2.8,2.4a4,4,0,0,1,.8,1.8,27.47,27.47,0,0,1-2.1,2.3,28.11,28.11,0,0,0-2.4,2,22.89,22.89,0,0,0-1.6,2.3c-1.9,2.6-4,3.8-5.2,5.8-.3.6-.5,1.1-.6,1.3a6.86,6.86,0,0,0-.4,1.9,9.66,9.66,0,0,0,0,3c.4,1.3,1.1,1.2,1.4,2.5a5.76,5.76,0,0,1-.1,2.1,3.28,3.28,0,0,1-.8,1.5c-.8,1.1-2,2.7-3.6,4.9-2,3.2-4.1,6.4-6.1,9.6,0,.2-.1.5-.1.7v.9a12.41,12.41,0,0,1-1.6,1.9q-1,.9-1.8,1.5h.7c1.7-1.2,3.5-2.4,5.2-3.6,3.6,0,7.3.1,11,.1a11.55,11.55,0,0,0-.2,1.6V302c.1.6.2.7.4,1.5a6.37,6.37,0,0,0,.2.9c.1.5,0,.5.1,1.1a7.5,7.5,0,0,1,.1,1.2,1.54,1.54,0,0,1-.4.6l-15.7.3-.9-2.1c-.3-.6-.5-1.3-.8-1.9-.1-.4-.2-.9-.3-1.3-1.7,0-3.5,0-5.2.1,4.2-7.7,8.3-15.4,12.5-23.1-1.1,0-2.2,0-3.3-.1-6.5,10.8-12.9,21.6-19.4,32.4,1.2,0,2.4.1,3.6.1a3.53,3.53,0,0,1,.9,1.1,4.57,4.57,0,0,1,.5,1.5c.4,2.2-1.7,6.8-1.6,11.3,0,1.8.4,2.3.3,4.6,0,.7-.2,1.1-.5,3.5,0,0-.2,1.2-.3,2.8-.4,3.3-.2,6.1-.4,12.2a39.4,39.4,0,0,0-.1,4.6c.1,0,.4-2.7,1.3-14,.2-2,.4-4.1.8-6.3a15.54,15.54,0,0,1,.5-2.3c0-1.1.1-2.2.2-3.2.8,0,1.6.1,2.3.1a9.13,9.13,0,0,1,.8-2.7,13.77,13.77,0,0,1-.3,3.3c.6.4,1.2.7,1.8,1.1.4,2.9.7,5.8,1.1,8.7a22.42,22.42,0,0,0-.8,4.8c-.2,3.3.6,3.9.1,6.6-.1.6-.2.5-1.1,4-.3,1.2-.5,2.1-.7,2.8.1,1.8.3,4.4.3,7.7,0,4.3-.3,6.6-.6,10.8a106.06,106.06,0,0,0-.3,12.9c.1,0,.6-6,1.9-30.7a31.23,31.23,0,0,0,1.7-7.9c.2-2.6-.2-3.2,0-6.6a62.8,62.8,0,0,1,1-8,57.58,57.58,0,0,1,2.4-8.6c-.1-.9-.2-1.8-.4-2.8,1-3.4,1.9-6.8,2.9-10.2,6.2,0,12.4,0,18.6-.1a63.23,63.23,0,0,0,.4,7.3c.3,2.4.5,3.3.6,5.3a41.65,41.65,0,0,1-.3,6.5c-1.2,9.4-1.8,14.1-1.9,15.6-.3,4-.1,5.6-.7,7.9a19.63,19.63,0,0,0-.7,4.1,19.14,19.14,0,0,1,0,2.4c-.2,1.7-.7,2.1-1.2,3.8a13.68,13.68,0,0,0-.4,4.4,8.84,8.84,0,0,0,.5,3.7c.3.6.6,1.2,1.2,1.3a2.36,2.36,0,0,0,2-1.3,220.65,220.65,0,0,1,.4-22.4c.5-6.7.7-10.8,1.8-16.4.7-3.8,1.3-6,2-10.5a90.92,90.92,0,0,0,1-11.8l36.1-.4c-.4,5.3-.8,10.7-.9,16.3,0,1.6-.1,3.2-.1,4.8a5.58,5.58,0,0,0,.2,4,6.89,6.89,0,0,0,1.3,2,34.9,34.9,0,0,0,1.5-5.4c.7-3.6.5-5.9.6-9.1a58.22,58.22,0,0,1,1.2-10.1c.4-1,.9-2,1.3-3a4.1,4.1,0,0,1-1.1-.1,7.93,7.93,0,0,0,0-2.7,13.5,13.5,0,0,0-.9-2.6c-.2-.5-.4-.9-.5-1.2l.3-5.4h-2c-.2,2.7-.4,5.3-.5,8-11.9-.1-23.9-.3-35.8-.4-.5-1.7-.1-4.8,1.5-8,16.8-.4,35.8.9,43.4,0,.4-1.9.8-3.9,1.3-5.8.3-1.3.7-2.6,1.1-3.8.4-.5.7-1.1,1.1-1.6.1-2.3.2-4.5.3-6.8.4-.5.7-1.1,1.1-1.7H123.5c.7-3.5,1.4-7,2.1-10.6l4.7-.2,6-9.3a12.72,12.72,0,0,1-4.1-1.7,10.91,10.91,0,0,1-3.1-2.8c-1.2,4.1-2,6.1-2.4,6.1-.2,0-.3-.4-.3-1.3.3-1.6.5-3.2.8-4.8-.4-5.2-.8-10.3-1.2-15.5Q151.65,196,177.3,151q13.35-23.55,26.4-47c.1,1.5.3,3.1.4,4.6-.1.5-.2.9-.3,1.4,0,.7-.1,1.4-.1,2.1,0-.9-.1-1.9-.1-2.8-.5-.2-1-.5-1.5-.7.1,1,.3,2,.4,3l-.6,12.9c-.7.2-1.4.5-2.1.7-.4.6-.9,1.2-1.3,1.8-2.8,7-5.6,13.9-8.3,20.9.6.4,1.3.8,1.9,1.2,1.2,1.3,2.3,2.6,3.5,3.9,1.4-2,2.9-4.1,4.3-6.5,1.4-2.6,2.7-5.3,3.9-7.2,0,1.2.1,2.4.1,3.7-1.3,1.7-2.7,3.5-4.1,5.4-1.2,1.7-2.3,3.3-3.3,4.9a3.85,3.85,0,0,1,.7,2.6,3.78,3.78,0,0,1-.8,1.9,5.69,5.69,0,0,1-1.2,1.1c-.3.6-.6,1.3-.9,1.9-2.3,4-4.5,8-6.8,12a15.26,15.26,0,0,1,1.1,1.6c.2,0,4.3-.3,4.6.7a2,2,0,0,1,0,.8,1,1,0,0,1-.8.7c-1.4-.2-2.7-.4-4.1-.5a12.2,12.2,0,0,0-1.7.7c-2.9,4.5-3.7,5.3-3.9,5.2s.1-.9.5-2.4c.5-1.9.7-3.4.9-4.5a2.34,2.34,0,0,0-.2-1.1,3.37,3.37,0,0,0-2.3-1.9l-3.9-2.4c-5.4,9.3-13,22.5-18.4,31.8-6.2,10.7-12.4,21.6-18.9,32.6,1.4.8,2.9,1.5,4.3,2.2l3.3,1.1,1.2.4c1.7-2.3,3.6-4.6,5.6-7,3-3.5,6-6.5,8.9-9.3a3.62,3.62,0,0,0,.8-2.8c-.2-.6-.6-1.1-2.5-2.2-3.3-2-5.3-2.4-5.3-3.4a1.15,1.15,0,0,1,.6-.9c.7-.3,1.6.3,2.1.6,1.1.7,4.3,2.9,6.1,3,1.2.1,3.1-.6,5.6-4.8a2.18,2.18,0,0,1,.6.1c.4.6-1.9,2.4-2.8,5.6-.2.8-.2,1-.1,1.3.5,1.6,3.7,1.7,3.7,2.3,0,.2-.2.4-1.1.6l-3-.6a1.7,1.7,0,0,1-.7-.1q-4,5.1-8.7,10.5c-2.1,2.4-4.2,4.8-6.3,7a3.58,3.58,0,0,1-.4,1.1,2.4,2.4,0,0,1,.2,1.5,6.6,6.6,0,0,1-.4,1.1c0,.8,1,1.5,1.7,2a19.73,19.73,0,0,0,2.2,1.1c1.7.2,4.1.7,7.2,1.3a28.19,28.19,0,0,0,3-4.6c1-1.8,1.3-2.6,2.1-4.1,1.5-2.7,2.2-2.7,3.9-5.5s4.4-7.2,4.9-10.9a8.59,8.59,0,0,1,2.5-5.2,86.75,86.75,0,0,0,6.6-8.5,32.24,32.24,0,0,1,.8,5.9,33.77,33.77,0,0,1-.6,7.4c-.9,4.8-2.5,16.1-4.8,31.9.2,1.2.3,2.4.5,3.6-2,1.2-2.3,1.8-2.2,2.1.2.6,2.1.4,2.2,1,.1.3-.5.8-.9,1-.8-.3-1.5-.6-2.3-.9-4,3.4-8,6.9-11.9,10.3-5.8-.1-11.6-.1-17.4-.2l-2.8,2.8c-1.8.1-3.7.1-5.5.2-.8,1.3-1.5,2.6-2.3,3.9a26.35,26.35,0,0,1,2.8.2c-.2.4-.3.9-.5,1.3a13.3,13.3,0,0,1-1.9,1.4l20.5.3c-2.6,3.1-5.4,6.2-8.2,9.3-3.1,3.4-6.4,6.9-9.4,10,2.2,0,4.5-.1,6.7-.1-.3,1.9-.5,3.7-.8,5.6-.8.9-1.7,1.8-2.5,2.7l-9.6.3,5.7-8.1-7.4.3c-1.7,2.9-3.4,5.9-5.1,8.8,1.4-.1,2.7-.1,4.1-.2-1.2,1.2-2.3,2.4-3.5,3.7H147c1,.9,2,1.7,2.9,2.6.1,1.1,1.5,11.4,1.9,18,.3,5.6.5,8.4.4,9.2a4.89,4.89,0,0,0,.1,1.6,3.52,3.52,0,0,0,.5,1.6c.4.8.5,4-.3,13.3l.9,3.6a2.67,2.67,0,0,0-1,2.1,1.65,1.65,0,0,0,.5,1.3c.7.6,1.4.1,2.3.5s1.1,1.2,1.6,2.8c.4,1.1,1,2.7,1.8,4.7q.15,1.65.3,4.2c.1,2.6,0,2.9,0,7,0,5,.2,6.1-.3,7.6a26.81,26.81,0,0,0-.7,2.7c-.4,1.5-.6,2-.4,2.2s1.2-.3,1.7-.9a3.77,3.77,0,0,0,.7-1.5c.4-21.4.9-29.8,1.3-31.1a9.63,9.63,0,0,0,.2-4.7,8.27,8.27,0,0,0-1-2.7c0-1.2-.1-2.4-.1-3.6-.3-7.7-.7-10.6-.9-11.2a3,3,0,0,1-.2-.9,2.39,2.39,0,0,1,.3-.9,2.38,2.38,0,0,0-.1-1.5c-.4-1.5-.5-6.2-.6-9.2a41.75,41.75,0,0,1,.5-7.2,33.74,33.74,0,0,1,1.3,3.8,36.42,36.42,0,0,1,1.4,9.6c.3,2.6.7,5.3,1,7.9.5,1.1.8,2,1.1,2.6a2.9,2.9,0,0,1,.3,1.1,2.57,2.57,0,0,1-.5,1.4c.1.6.2,1.1.3,1.7a6.16,6.16,0,0,0,2.2-3c1.5-4-2.3-6.6-3.8-14.9a48.09,48.09,0,0,1-.8-8c0-2.8.3-3.2,0-5.3a14.59,14.59,0,0,1-.2-4.3,8.51,8.51,0,0,1,.6-2.2c7.5,0,15.1.1,22.6.1-1.7,2.7-3.5,5.3-5.2,8a2,2,0,0,0,.2,1.4,1.41,1.41,0,0,0,1,.7c3.3-3.1,6.6-6.1,9.8-9.2,13.9-.1,27.8-.1,41.6-.2-.9,7-27.8,50-25,50.5a.22.22,0,0,0,.2.2c1.3,1,7.8-4.9,19.3-17.7a28.86,28.86,0,0,1,.3,3.7c0,1.1-.1,1.7-.1,2.4a30.58,30.58,0,0,0,.1,5.5c.4,5.8-.4,20.3,0,20.4.2,0,.5-2,1.5-10.8a37.13,37.13,0,0,1,.2-7c.4-3.3.9-3.6,1.2-6.9a15.23,15.23,0,0,1,.6-4.2c.5-1.4.8-1.6,1.5-3.3a17.81,17.81,0,0,0,1.4-4.9,31.39,31.39,0,0,0,.5-5.7c1.6-1.9,3.2-3.9,4.8-5.8-.2,5.1-.5,10.2-.7,15.3-.9,14.8-1.2,21.9-1.2,25.5a50.22,50.22,0,0,1-.3,7.6c-.3,3-.7,4.2-.6,7s.4,2.6.3,4.5-.7,3.3-.2,5.3a3.63,3.63,0,0,0,.8,1.6c.2-.1-.3-1.8-.4-4.1s.5-2.2.7-5c.2-2.4-.2-2.7.1-5.1.2-2,.5-2.1.8-4.1.5-3,0-4,.2-7.4a44.4,44.4,0,0,1,.7-5.7c1.4-8.1.7-11.4,1.9-19.9.4-2.5,1-6.2,2.1-10.6.6-1.3,1.2-2.6,1.8-4a14.8,14.8,0,0,0,.8-1.3,7.41,7.41,0,0,0,.7-3.2q0-1.5.3-1.5c.4-.1,1.2,2,2.4,6.1l.3.9a16,16,0,0,1,0,3.1,14.87,14.87,0,0,1-.6,3.4c-.2.5-.3.9-.5,1.4.1,2.3.1,4.6.2,6.9,0,.5.1.9.1,1.4s.1.9.1,1.3-.2.5-.3.8v7.7c.2-2.5.4-5,.6-7.6a3,3,0,0,1,.4-.8v-2.9l.3-6.6c.2-.5.5-1,.7-1.5.2-.9.5-2.3.8-3.9a41.52,41.52,0,0,0,.4-4.9c.1-2.1.2-5.2.6-9.5,1.3-1.8,2.6-3.7,3.8-5.5h4c.6-.4,1.2-.9,1.8-1.3.9.1,1.7.3,2.6.4,5.7-.3,11.4-.5,17.1-.8,1.3.1,2.7.2,4,.2,9.5-.4,19-.9,28.4-1.3-.3-.4-.5-.9-.8-1.3-3.3-.1-6.5-.2-9.8-.4-.4-.1-.8-.3-1.2-.4-.4-.9-.7-1.7-1.1-2.6-31.5,1.2-47.2,1.7-47.2,1.2h0q-.3-.15-.3-.3c-.8-1.3,3.2-5.3,5-6.9-6-.1-12.1-.1-18.1-.2-.6,1.5-1.1,3-1.7,4.5-1.1,1-2.3,1.9-3.4,2.8,5.7.2,11.4.5,17.2.7,0,.4.1.8.1,1.2-.7.1-1.4.1-2.1.2a21,21,0,0,1-1.7,1.4h-1.3c-.6.7-1.1,1.5-1.7,2.2-.6-.1-1.2-.1-1.8-.2-.7.1-1.3.2-1.9.3-3-.1-6-.3-9-.4.3-1.6.6-3.2.9-4.7H194.9c1.8-2.8,3.6-5.5,5.4-8.3-3.2,0-6.5,0-9.7-.1-.6,1.2-1.1,2.5-1.7,3.7-.7,1.6-1.4,3.2-2,4.7,2.3.1,4.7.2,7,.2-1.3,1.1-2.7,2.2-4,3.3-1.6.1-3.3.1-4.9.2l1.5-3.6H160.4a17.3,17.3,0,0,1,1.1-3.8,19.25,19.25,0,0,1,2.9-5.2c8.7.1,17.3.3,26,.4,4-5.5,7.8-10.9,10.1-19.7-5,0-12.5-.1-20-.2l1.8-9.9c7-.1,14-.3,20.9-.5.3-.5.7-.9,1-1.4-4.2-2.1-8.5-4.3-12.7-6.5a4.25,4.25,0,0,0,.2-1.1c4.5,2,8.9,4.1,13.4,6.1,3.5-6.6,6.9-13.2,10.4-19.8a25.62,25.62,0,0,1-4.9-1c-2.8-.9-3.9-1.7-6.6-2.4a20.22,20.22,0,0,0-4-.6,24.6,24.6,0,0,0-5.8,7.4c-.8,1.6-.6,1.7-1.8,4a39.11,39.11,0,0,1-4.8,7.4c-1,1.1-1.9,1.9-2.5,2.5a1.47,1.47,0,0,1-1.1-.1c-.5-.3-.5-1.1-.5-1.9a6.27,6.27,0,0,1,.2-1.6c1-.3,2.1-.5,3.1-.8,1.2-2.5,2.5-5,3.7-7.5a25.25,25.25,0,0,1,3.3-5.7c1.7-2.2,3.6-3.8,3.3-5.8a6.66,6.66,0,0,0-.5-1.9,8.15,8.15,0,0,0-1.5-2.1c-1.2,1.6-2.4,3.3-3.7,4.9-2.3,1.9-4.6,3.7-6.9,5.6,1.1-8.5,1.6-17.3,2.9-26.1,1.4-9.4,2.7-19,2.4-27.5,1.3-1.6,2.6-3.4,4-5.5a57.64,57.64,0,0,0,4.2-8.1c-.5-.1-1-.3-1.5-.4-.6-.3-1.2-.7-1.8-1a.8.8,0,0,1-.9-.5.82.82,0,0,1,.4-1c1.5.5,3,1.1,4.4,1.6,2.3-3.7,4.7-7.3,7-11-.3,4.2-.7,8.4-1,12.5a7.54,7.54,0,0,0-2.3,4.3c0,.3-.2,2.7.7,3.1,1.1.5,4-2.1,4-5a5.92,5.92,0,0,0-.6-2.4c-.1-5.3-.1-10.5-.1-15.8-1-.7-2-1.5-3.1-2.2s-2-1.4-2.9-2.1c-.7-1.3-.7-2.4-.2-2.7s1,.1,1.6.6c2.1,1.4,4.3,2.9,6.4,4.3a23.09,23.09,0,0,1,3.5-4,18.94,18.94,0,0,1,4.4-3.1c2.4,3.7,4.8,7.5,7.1,11.4l3.6,6c2.3-3,4.6-6,6.9-8.9l15.3,22.5c1.4-1.8,2.8-3.6,4.1-5.4a15.21,15.21,0,0,0,1.7-3.4c.3-.8.2-.8.6-2.1a18.63,18.63,0,0,1,1.5-3.6,5.52,5.52,0,0,1,1.2-1.6,3.64,3.64,0,0,1,2.1-.7c3.6,6.4,7.2,12.8,10.8,19.1l3.6-6c1,1.4,1.9,2.8,2.9,4.3,4.2,6.2,8.3,12.5,12.3,18.6.4-.9.8-1.7,1.2-2.6,2.1,3.1,11.2,16.5,13.3,19.7l1,1.5c.7-1.2,1.4-2.5,2.1-3.7A26.84,26.84,0,0,1,305,218c-1.2-1-2.3-1.9-3.2-2.8,2.6-.5,5.2-1,7.8-1.4,1.2-.6,2.4-1.3,3.6-1.9a20.54,20.54,0,0,1,3.2,5.2c1.3,3.4,1.1,5.7,1.7,12.6.2,1.8.4,4.1.7,6.9.5.8.9,1.7,1.4,2.5l-.3,6.6,1.2,3c0,.7-.1,1.4-.1,2.1-.6-1.1-1.1-2.3-1.7-3.4L305.5,224c-1.1,1.7-2.3,3.5-3.5,5.2-2.8-5.1-7.7-14.9-12.9-22-1,2.1-1.9,4.2-2.9,6.3-5.1-8.1-10.2-16.2-15.3-24.2-3.8,6.3-7.5,12.7-11.3,19-3.7-6.9-7.4-13.8-11.1-20.6-2.3,3.3-4.5,6.5-6.8,9.7-3.3-5-6.7-10-10-15.1-1.8,2.7-3.6,5.5-5.3,8.2a5.63,5.63,0,0,0-1.1,4.4,3.55,3.55,0,0,0,.8,1.2c.5.4,1,.6,1.1.7a6.78,6.78,0,0,1,2.7,2.6c.8,1.1,2.6,2.9,6.9,5.9,1.6-2.2,3.1-4.3,4.7-6.5,3.5,4.9,6.9,9.8,10.4,14.7,1.4-1.1,2.8-2.1,4.2-3.2-1.1,1.6-2.1,3.3-3.2,4.9L252,214a81.42,81.42,0,0,0-4.5,8.9,57.69,57.69,0,0,0-2.5,7.3c1.2-.6,2.3-1.1,3.5-1.7-.3.6-.7,1.3-1,1.9-.7.5-1.4,1.1-2.1,1.6,1.5.4,3.1.7,4.6,1.1a10.91,10.91,0,0,0,1.1-.6c2.4-2,4.8-4,7.2-6.1-1.4-2.9-2.9-5.8-4.3-8.7-.5,1-1,2.1-1.4,3.1-.5.2-.9.5-1.4.7.8-1.8,1.6-3.5,2.4-5.3a5.58,5.58,0,0,1,.8.5c.3-.5.6-1,.9-1.4l4.2-6.3c2.5,4.4,5.1,8.8,7.7,13.2s5.2,9,8,13.7c3.7-7,7.5-13.9,11.2-20.9,4.1,7.1,8.2,14.2,12.4,21.3,1.5-2,3.1-4,4.6-5.9,6.6,10.9,13.2,21.8,19.8,32.8-.7,3.3-1.3,6.6-2,9.9-7.4-11.7-14.8-23.4-22.3-35.1-2.8,4.9-5.7,9.7-8.6,14.6-2.2,3.8-3.5,3.6-5.4.8-3.4-5.6-6.8-11.2-10.1-16.8-1.5,3.2-3.1,6.3-4.6,9.5-3.7-5.9-7.3-11.8-11-17.7a18.57,18.57,0,0,1-1.8,2.3c-1.8,1.9-3,2.4-4,4.2a8.94,8.94,0,0,0-.7,1.8,33.83,33.83,0,0,1,7.7,4.3c.8.6,1.6,1.3,2.3,1.9-.1.2-.3.5-.4.7-2.8-.8-5.6-1.6-8.4-2.5H253a3.51,3.51,0,0,1-.8.5,23.79,23.79,0,0,0-4.1,1.5c-5.4,2.7-8.2,7.1-10.2,10.2a39.74,39.74,0,0,0-5.7,16.3h21.3c-.1-1-.1-2.1-.2-3.1a11.39,11.39,0,0,0,4.9-3.8,10.89,10.89,0,0,0,1.9-5.3,7.21,7.21,0,0,0-.2-2.7c1.8-2.2,3.6-4.3,5.4-6.5-.6-1.2-1.3-2.5-1.9-3.7.3-.2.5-.4.8-.6,1.2,1.1,2.3,2.3,3.5,3.4.8.1,1.5.3,2.3.4,3,5.3,6.1,10.5,9.1,15.8l1.2,1.8a20.07,20.07,0,0,0,3.2-1.7,26.47,26.47,0,0,0,5.1-4.4c7.3,13.3,14.6,26.5,22,39.8,3-.1,6-.1,9-.2.1.3.3.5.4.8-.3,2.2-.7,4.3-1,6.5-1,.1-2,.2-3.1.4.9,1.5,1.9,2.9,2.8,4.4v3.4c0,4.4-.2,5.1-.1,6.6.2,2.6.5,6.6,2.9,7.6a4.75,4.75,0,0,0,5.5-2.1c.7-1.4-.2-2.7.7-3.6s2.1-.1,3.2-1.1a3.18,3.18,0,0,0,1-2,11.34,11.34,0,0,0-.8-1.9c-.8-1.6-1.3-2-1.7-3.1a4.65,4.65,0,0,1-.2-2.5h1.9c1.5.1,3,.2,4.4.2-.1.4-.2,1-.3,1.7-.1,1.5.4,2.1.6,3.8a11,11,0,0,1,0,3.7c-.2,1.3-.4,1.4-.7,3.2-.3,1.5-.4,2.6-.5,3.5-.2,2.5.1,2.6-.1,4.7a38.32,38.32,0,0,1-.6,3.9s-.3,1.6-.6,4.3c-.8,6.4-1,14.5-1,14.5-.6,19-1,18.3-.8,24.8.2,7.9.9,14.5,1.1,14.5s-.3-5.8-.4-14.3c0-8,.3-6.7.8-22.9,0,0,.5-15.8,1.5-19.5a26.57,26.57,0,0,0,.8-4.1,10.62,10.62,0,0,0,.1-1.5c0-1-.1-1.8-.1-2-.2-2.2.7-5.8,1.2-7.8.6-2.3.8-2.7.8-3.9-.1-1.9-.2-2.7-.2-2.7-.1-1.1-.3-1.7.1-2s1,0,1.5-.4.5-1,.5-1.5c1.2.1,2.4.1,3.6.2a4.51,4.51,0,0,0-.1,1.3,4.28,4.28,0,0,0,.8,1.8c.5.7,1.1,1.7,2,3-.1,1.4-.3,3.4-.5,5.9a51.43,51.43,0,0,0-.3,7.3c.1,1.3.3,2.1.4,2.8.6,3.9.4,6.7.4,11.7-.1,3.9.1-3.4,0,11-.1,9.9-.1,14.9-.2,18.7-.3,12.9-1,21.1-.8,21.1s.4-1.4,1.1-7.8c0-8.1.4-14.4.8-18.7a82.38,82.38,0,0,0,.5-13.2c-.1-2.4-.4-3.9-.4-7.2,0-3,.2-3.5.3-8.4.1-2.9,0-2.6.1-7.8.1-5.4.2-6.7.3-7.8.3-2.7.6-5,.9-6.4,1.5-2.2,3.1-4.4,4.6-6.7.8,0,1.7-.1,2.5-.1-.5-.9-1-1.9-1.4-2.8a2.51,2.51,0,0,0,.8-.5A2.66,2.66,0,0,0,354.9,307.6ZM327.8,174.7c1-2.2,1.6-3.3,1.9-3.2s.2,1.1-.1,3.1c-1.8,2.3-2.9,3.3-3.1,3.2S326.8,176.7,327.8,174.7ZM84.3,276.8a4.52,4.52,0,0,1-1,2.4,2.76,2.76,0,0,1-.9.7c-.4,0-.9-.2-2.3-2.1a8.12,8.12,0,0,1-1.5-2.3,3.66,3.66,0,0,1,.2-3.5,2.75,2.75,0,0,1,2.1-1.1c1.9,0,3.5,2.6,3.6,4.7A3.73,3.73,0,0,1,84.3,276.8Zm36.8.3a20.58,20.58,0,0,1-.3,2.1l-15.8.2c-14.9.2-15.8.1-15.2-1.1a25.33,25.33,0,0,0,.9-5c.2-2,.4-3,.8-3,.1,0,.1,0,.5.2s.7.3.9.4c2.8-4.1,5.7-8.3,8.5-12.4.9-1.9,1.9-3.9,2.8-5.8.5-1.5.9-3,1.3-4.5.8-1.5,1.6-3.1,2.4-4.6,2.5-3.9,5.1-7.7,7.7-11.6a3.23,3.23,0,0,0-2.4-1.3c-.9,0-1.2.7-2.6,1.7-.8.6-3.3,2.4-4.7,1.6a2.26,2.26,0,0,1-1-1.5.75.75,0,0,1,.1-.8c.2-.3.5-.3.6-.5s-.1-.3-.2-.6a.82.82,0,0,1,.1-.7,1.07,1.07,0,0,1,.3-.5c.7-.7,1.8-.5,2-1a.83.83,0,0,0-.3-.8c-.8-.9-1.7-.8-1.9-1.5,0-.1-.1-.4.1-.6s1,.1,3.1,1.2c1.7.9,2.1,1.2,2.6.9s.8-.8.8-1.8a17.6,17.6,0,0,1,2.4-2.9,24,24,0,0,0,1.1-2.3c.7,1,1.5,1.9,2.2,2.9.3,1.3.7,2.5,1,3.8a37.17,37.17,0,0,0-.8,7.2s0,7.1-.8,9.2a15.06,15.06,0,0,1-.8,1.7,4.05,4.05,0,0,0-.5.9c-4.3,7.8-8.6,15.4-13,23,1.4,0,2.8,0,4.2.1,4.1-6.6,8.2-13.3,12.3-19.9a79,79,0,0,1-.1,10.1c-.2,2-.1,3-.2,4.1-.1,1.8-.2,1.8-.2,2.3.2,1.6,1,2,1.8,4.3a9,9,0,0,1,.7,2.2C121.7,273.7,121.4,274.5,121.1,277.1Zm1.2-76.2c-.8.6-1.5.1-2.3.6a8.72,8.72,0,0,0-1,1.5c-.9,1.5-1,1.7-1.3,1.8-.7.2-1.6-1-2-1.7a1.94,1.94,0,0,1-.3-1.3c.1-.7.7-.9,1.5-1.7s1.1-1.9,1.6-3.5c.3-1,.4-1.5.7-1.5s.7.9.9,1.8a17.39,17.39,0,0,0,1.8,1.1,2,2,0,0,1,1.1,1.9A2.27,2.27,0,0,1,122.3,200.9ZM186.1,78.4c.4-1,1.6-.7,3.5-1.7a10.68,10.68,0,0,0,4.2-4.4c1.5-2.4,1.5-4.2,2-4.2.3,0,.8.9,1.1,4.8-1.8,3.6-3.6,7.3-5.4,10.9l-.9.8a3.85,3.85,0,0,1-1.2-.5,5.26,5.26,0,0,1-2.3-2.7C186.2,80,185.8,79.1,186.1,78.4ZM185,87.1c.3,0,.3.7-.2,1.5-.8,1.5-2.3,2.1-2.3.9C182.6,88.7,184.2,87.1,185,87.1Zm-10,13c.5.2.9.5.8.9-.1.9-1.1.7-1.5-.3C174.2,100.2,174.5,99.9,175,100.1Zm-45.4,76.4a5.15,5.15,0,0,1,1.5-3.3,10.22,10.22,0,0,1,1.8-1.1c1.1-.6,1.3-.7,1.6-.7.9,0,1.6.9,2,1.4,1.2-.3,2.3-.5,3.5-.8a5.85,5.85,0,0,0,1.3.2,3.18,3.18,0,0,1,1.3,1,3.43,3.43,0,0,1,.8,2.3l-4.4.3c-1,0-1.9.1-2.8.1-.5-.2-1.1-.3-1.6-.5a7.57,7.57,0,0,1-.1,1.5c.2.5.3,1,.5,1.5a4.27,4.27,0,0,1-2.6,1.5,2.28,2.28,0,0,1-1.8-.1,2.81,2.81,0,0,1-1-2.1A4.8,4.8,0,0,1,129.6,176.5Zm62.7-62.6c-5.5,9.6-12.9,22.4-16.3,28.3s-6.3,10.9-6.3,11.1a71.11,71.11,0,0,1-3.8,6.4,61.28,61.28,0,0,0-3.8,6.6,8.25,8.25,0,0,1-1.4,2.5A51.71,51.71,0,0,0,157,175c-1.5,2.5-9.8,16.4-31.4,52.9.5-4.8,1.1-9.6,1.6-14.4.1-3.2.4-4.3.8-4.6.1,0,.3-.2.4-.5s-.2-.6-.3-.9c-.1-.6,1-1.1,2.1-1.9a16.47,16.47,0,0,0,1.7-1.5c.7-1.1,1.6-2.7,2.8-4.7,2.3-4,4-7.5,6-11.1,2.1-3.8,4.5-8,5.2-9.5a9.87,9.87,0,0,1,2-2.9c.5-.2.5-.8.6-1,3.1-5.5,4-7.5,6.1-11.3,2.1-3.6,3.4-5.3,2.7-6.2-.2-.3-.4-.3-1.8-.6-3.9-1-4.4-1.6-4.6-1.8-.8-1-.8-2.6-.4-2.8s1.4,1.4,2.4,1.1a2.27,2.27,0,0,0,1-.7,2.09,2.09,0,0,0,.4-.6c1.1-2,1.4-2.1,1.6-2.2a1.33,1.33,0,0,1,.7.3,4.43,4.43,0,0,1,1.2,1.5c1,1.9,1.1,2.1,1.4,2.1s.6-.4,1-1.1a4.71,4.71,0,0,0,.9-3.2,6.83,6.83,0,0,0-.4-1.3c-.1-.4-.3-.6-.5-1.2-.5-1.1-.7-1.3-.6-1.6s.4-.4.7-.5a4.88,4.88,0,0,1,2-.3c.2,0,.8-.2,1.8-1.1a39.46,39.46,0,0,0,6.1-7.8c1.2-2,2.6-4.5,4-7.3,8.3-10.6,10.7-15.2,10.9-17.2a8.84,8.84,0,0,1,.5-2.4c.4-1,.8-1.6,3-4.2a43.13,43.13,0,0,0,2.9-3.5,14.19,14.19,0,0,0,1.5-2.2c1-2,.3-2.6,1.2-4.7.6-1.5,1.2-1.7,2.2-3.6a9.43,9.43,0,0,1,1.1-1.7l.5-.5a2.64,2.64,0,0,0,.5-1.5q1.65-4,2.1-3.9c.3.1.4.9.2,2.4a34.55,34.55,0,0,1,.6,4.9,28.25,28.25,0,0,1,.2,2.9,34,34,0,0,1,.7,3.4Zm-14,82.3c-2.6-1-2.9-.5-4,5.3-.7,3.7-2.1,6.8-2.8,6.6-.3-.1-.3-.9-.3-1.1a3.94,3.94,0,0,1,.5-2c.4-.8.6-1.7,1-2.5.5-1.1,1.2-3.3,1.9-8.1-1.5-1.2-2.8-2-3.7-2.6-2.3-1.3-4.2-2.1-4.2-3.2s.9-.9,4.2,1.2c2.4,1.5,3.8,2,4.9,1.7.6-.2,1.1-.8,2-2,1.7-2.1,2.3-3.6,2.6-3.5s.1.8,0,1.6c-.3,2.1-.8,2.3-.8,3.5,0,.6-.1,2.2.9,3.1.6.6,1.4.8,1.5,1.4C181.8,195.5,181.6,197.4,178.3,196.2Zm.2,83.2c-7.1-.1-14.1-.1-18.8-.2,1.7-2.3,5.1-6.8,7-9.4,3.2,0,6.4.1,9.6.1a24.76,24.76,0,0,0,2.6-1.9C178.8,271.8,178.6,275.6,178.5,279.4Zm147,45.5c0,.7-2.5,1.4-2.9.9s.2-1.5,1.2-1.8S325.6,324.4,325.5,324.9Zm2.8-5.2c-.9,0-1.9-3.2-1.4-3.6s2.4,1.2,2.1,2.6C329,319.1,328.7,319.7,328.3,319.7Zm8.3-13a2.18,2.18,0,0,0-.4-.5c-.3.2-.5.3-.8.5-2.8.1-5.6.1-8.5.2a18.7,18.7,0,0,0,.2-2.7,9.78,9.78,0,0,0-.3-2.6c-.3-.9-.5-1.8-.8-2.7,2.7,0,5.3-.1,8-.1l-1-1.9a40.21,40.21,0,0,1-2.3-3.5c-1.2-2-.9-1.8-1.6-2.8-1-1.5-1.8-2.1-1.8-3.2,0-.6.2-1.3.4-1.3s.3.6.7,1.3c.5.9,1.5,2.2,2.2,2.1s1-2.2,1-2.3c-.3-.7-.8-1.9-1.6-3.4-2.9-5.7-5-7.3-5.5-10.8a25.84,25.84,0,0,1-.3-4.2c-.1-1.9,0-2.2.1-2.2.4-.1,1.2,2.4,2.1,4.6,1.3,3,1.7,3,6.1,10.4,2.1,3.5,4.2,7.3,4.9,8.5a30.09,30.09,0,0,0,2.8,4.9c.3.4,1.3,2,2.2,3.6s2,3.3,3.1,5.5c.6,1.3,1.2,2.3,1.5,3C343.5,307,340.1,306.9,336.6,306.7Zm-23.3-188a23.36,23.36,0,0,0-3,1.9c-.4.4-6.3,4.7-12.9,9.6A151.94,151.94,0,0,0,276.8,148c-4.6,4.9-8.8,8.8-9.3,8.8-1.4,0-1.1.6,4.1,9.6,5.1,8.8,5.8,9.4,6.7,5.8a21.83,21.83,0,0,1,3.7-5.6c3.5-3.9,5.8-6.7,5.8-7.1s8.1-14,11-18.4a42.54,42.54,0,0,0,3.5-6.1,13,13,0,0,1,1.4-2.6c.2-.2,1.3-1.6,2.3-3a70.08,70.08,0,0,1,8.1-9.6C317,117.2,316.7,116.9,313.3,118.7ZM192.6,154.6a25.4,25.4,0,0,0-2-2.3l-2.5-2.4c-3.2,6.2-6.5,12.3-9.7,18.5.9.5,1.8,1.1,2.8,1.6s2.1,1.2,3.2,1.8a37.48,37.48,0,0,0,3.3-5.2c.8-1.7,2-4.5,3.6-6.1.5-.5,1.3-1.2,1.3-1.2a20.41,20.41,0,0,1,2-1.7C193.9,156.6,193.4,155.6,192.6,154.6Zm36.6,22.5c-1.4-1.9-2.1-2.9-2.9-2.8-1.1,0-1.4,2-3.6,5.8-.3.5-1,1.7-2.5,3.9-3.4,5.2-4.5,6.5-4,7.1s2.8-.2,3.6-.5c1.4-.5,3.2-1.5,6.1-4.7a36.71,36.71,0,0,0,4.7-6.5C230.3,178.9,229.9,178.1,229.2,177.1ZM218.6,195c-.5-1.5-2.4-2.1-3.4-2.4-.3.8-.5,1.5-.8,2.2-2.2,3.4-4.5,6.9-6.7,10.3-3.6,4.8-4.9,7.3-5.3,8.5a7.55,7.55,0,0,1-1.1,2.7c-.6.9-1.2,1.1-1.3,1.8-.1.5.3,1.1.9,2.2,1.6,2.8,1.1,4.8-2.1,8.1-1.8,1.9-2.1,2.6-1.4,3.1.4.2.3.3.3.4s-.5.3-2.4.3c-.2,1-.4,1.9-.7,2.9l4.4,3.5c2.1-3.1,2.4-4.3,2.1-4.6s-.7-.2-.9-.6c-.1-.1-.1-.2-.2-.9a2.25,2.25,0,0,1-.1-.7c.6,0,1.2-.1,1.8-.1a29.39,29.39,0,0,0,6.1-8.1,60.38,60.38,0,0,0,2.3-6.1c1.1-3.2,1.1-3.9.7-4.5-1-1.5-4-.6-4.7-2.1-.1-.3-.2-.9,0-1.1s.8.1,1,.2a9.3,9.3,0,0,0,4.1,1c.8-.2,1.2-1,2.6-4.4,1.1-2.6,2.1-5.3,3.4-7.9C218.4,196.9,219,196.1,218.6,195Zm10.3,6.9a37.13,37.13,0,0,1-4.1-2.8c-1.5-1.2-2.2-2.1-3.1-1.9-.5.1-1,.8-1.9,2.1a27.5,27.5,0,0,0-1.5,2.5,12.71,12.71,0,0,0-1.2,3.4c-.9,3.3-1.5,6.8-1.8,8.4.8.7,1.5,1.4,2.3,2a11.09,11.09,0,0,1,3.6,1.7c3.8,2.6,4.3,6,5.9,5.8,1-.1,1.8-2.1,3.4-6.1,1.8-4.3,1.7-5.2,3.2-7.4,1.1-1.5,1.6-1.7,1.6-2.5S234.4,205.7,228.9,201.9Zm-7.7,21.3c-1.6-1.5-2.4-3.8-4.2-5.7a6.38,6.38,0,0,0-2.2-1.3,1.1,1.1,0,0,0-.8,0,1.52,1.52,0,0,0-.9,1c-.3.8-1.3,3.2-2.3,5.4-.2.4-.8,2.5-1.8,4.5-1.8,3.6-3,3.9-2.8,5.3.2,1.7,2.1,1.9,5.6,4.7,3.8,3.1,4.1,5,5.4,4.8,2.1-.4,1.6-5.8,5.6-12.5a34,34,0,0,1,3-4.2A7.31,7.31,0,0,1,221.2,223.2ZM96.6,233.4c-.5-.2-.8,1.3-1.9,1.4-.9.1-1.6-.8-2.3-.4a.74.74,0,0,0-.5.6,4.06,4.06,0,0,1-.4,2.2,3.47,3.47,0,0,1-1.9,1.6c-1.1.4-2,.1-2,.4,0,.1.1.3,1.7,1.2,1.1.7,1.3.7,1.5.7.7-.1.6-1.1,1.6-2s1.4-.2,2.6-1a5,5,0,0,0,1.9-2.6C97.1,234.7,97,233.5,96.6,233.4Zm42.5,1.8c-3.5,5.9-7,11.8-10.5,17.8a25.7,25.7,0,0,1,4.1,1.7,19.72,19.72,0,0,1,4,2.8c.8-1.2,1.3-2.3,1.7-3,.6-1.1.7-1.5,1.2-2.5a32.5,32.5,0,0,1,1.7-2.8,49.47,49.47,0,0,0,3.2-5.8l.6-1.8c.1-.7.3-1.4.4-2.1C143.4,238,141.3,236.6,139.1,235.2Zm71.9,4.4c-3.2-2.8-4.5-4.2-6-3.9a3.11,3.11,0,0,0-1.7,1.2c-2,1.5-2.3,2.3-2.1,2.8.3,1.2,2.9.9,7.6,2,4.2,1,6.4,2.3,6.6,1.9S214.4,242.6,211,239.6Zm37.7-3.4c-.3-.5-1.1-.3-2.6-.9a7.25,7.25,0,0,1-2.5-1.7c-1.1,1.7-2,3.2-2.7,4.4a38.67,38.67,0,0,0-2.5,5c-.2.6-.5,1.3-1.3,3.4-.6,1.6-1.3,3.8-2.2,6.4.1.1.2.3.4.4.5.2,1.4-.4,4.5-4.8,1.8-2.6,1.7-2.8,2.7-3.9,1.3-1.6,1.7-1.6,3.4-3.5S249.2,237.1,248.7,236.2Zm-86.9,13.4c0-.9,0-1.3-.1-1.4-.5-.9-2.3-.3-5-.9a10.45,10.45,0,0,1-2.8-1.1c-1.5-.9-2-1.9-3.8-2.7a3.74,3.74,0,0,0-1.5-.5,24.43,24.43,0,0,0-2.4,1c-.3.5-.7,1.2-1.2,2a17.35,17.35,0,0,0-1.2,2.6c-1.3,3.1-1.3,3.4-1.9,4.7-1.6,3.7-2.9,4.6-2.4,5.6.4.7,1.2.4,2.8,1.1,2,.8,1.8,1.8,4.2,3.6,1.4,1.1,3.5,2.7,5.9,2.3a4.5,4.5,0,0,0,1.9-.8c1.2-1,1.2-2.3,1.8-4.4.9-3.6,1.6-6.2,3.6-7.5.6-.4,1.8-1,2-2A4,4,0,0,0,161.8,249.6Zm72.9,3.8c-.6-.1-1.4,1.7-3.3,4.9a39.9,39.9,0,0,1-2.5,3.9c-1.4,1.7-2.2,1.9-4.2,3.8a31.21,31.21,0,0,0-3.1,3.5l8.2-.3a19.12,19.12,0,0,1,1.5-5.8c.2-.5,1-2.2,1.9-4.1.4-.8.7-1.4,1.1-2.4a10.53,10.53,0,0,0,.9-2.7C235,253.6,234.9,253.5,234.7,253.4ZM145.6,265c-.4-.2-1.4-.9-2.9-1.7a37.75,37.75,0,0,0-5.2-2.4c-.2.3-.6.7-1,1.2-.9,1.2-1.2,1.9-2,3.1-.4.6-.9,1.4-1.7,2.4a14.7,14.7,0,0,1-1,1.3c5.6,0,11.2.1,16.9.2a10.63,10.63,0,0,0,1.1-.9A37.28,37.28,0,0,0,145.6,265Zm134.5.9c-1,1.2-1.9,2.4-2.9,3.6,1.7,0,3.4.1,5.2.1C281.6,268.3,280.8,267.1,280.1,265.9Zm-68.3,3.8c-8.1,0-9.5.2-10.6,1.4-1.6,1.7-1.5,2,.1,5.6l1.3,2.9,13.4-.4,2.6-4.7,2.6-4.7h-9.4Zm55.8,12.2c-1.6.7-8,11.7-8.8,15.2l-.5,2.1c13.7-.1,27.3-.3,40.9-.4-.5-.9-1.2-2.1-2-3.6-1.5-2.7-2.8-4.7-4.3-7.4-1.3-2.3-2.9-5.1-3.7-6.3l-1.4-2.1h-9.5c-10.4,0-10.4,0-6.2-4.6,1-1.1,2.4-2.7,3.2-3.6l1.4-1.7H265.3c-3.9.1-7.9.2-11.8.4-1.2,3.2-2.3,6.5-3.5,9.7l9.4-.3C267.5,279.6,270.9,280.5,267.6,281.9Zm-52-1.5c-2,2.4-4,4.8-6,7.3-2.4,3-4.8,6-7.1,9l-1.7,2.2,19.2.2,19.1.2,3-3.5a49.19,49.19,0,0,0,4.6-7.5,53.05,53.05,0,0,0,3.1-7.6Z" transform="translate(-47.8 -46.4)"/></g></svg>