<svg id="图层_1" data-name="图层 1" xmlns="http://www.w3.org/2000/svg" viewBox="0 0 1608.01 1701.21"><defs><style>.cls-1{fill:#fff;}</style></defs><title>黄铁</title><path d="M119.59,874l361.3,97.57,26.43-35.25L296.49,887.81,554.9,873.93l56.82-76.34c10.84,1.2,20.77,3.52,31.51,5.26,121.92-209.12,241.16-419.79,363.52-628.67,61.13,100.59,117.67,204.91,178.16,306.21q74.34-75.48,148.94-150.68Q1411.75,251.22,1490,173L1296.11,458.73q13.37,23.89,26.71,47.8l70.48-125Q1371.16,460.28,1349,539l63.4,83.38c-24.41,40.57-51.67,79.76-76.79,120,129.74,227.7,264.26,453.95,392,682.2-117.75,2.12-235.56.35-353.34.85,40.65,149.44,86.5,298.09,127.89,447.54l-3.19,1.2C1423.73,1726.48,1352,1576,1277.67,1427.44c-14.6-.93-29.58-.54-44.23-.17,31.55,74.34,69.46,147.83,102.67,222.14-21.44-13.18-34.72-36.39-51.75-54.53q-67.58-82.8-136.79-164.26c-282.09-13.65-576.07,1-861.79-5.09,66.57-121.68,138.14-240.52,206.91-361Zm200.57,531.92H811l818,0c15.62,0,31.24.11,46.85.16a31.65,31.65,0,0,0,3.9-.09c4.58-.57,8.84-1.86,12.22-5.69-.88-1.63-1.69-3.2-2.57-4.73L1429.49,945,1040.27,270.66q-15.12-26.21-30.25-52.39c-.78-1.33-1.3-2.92-3-4-.92,1.42-1.74,2.6-2.46,3.83-8.3,14.17-16.65,28.32-24.87,42.54q-118.08,204.48-236.12,409-76.46,132.47-152.84,265-111.19,192.41-222.55,384.72c-15.55,26.89-31.21,53.72-45.46,81.33C322,1402.11,321.33,1403.54,320.16,1405.87Z" transform="translate(-119.59 -173)"/><path class="cls-1" d="M320.16,1405.87c1.17-2.33,1.87-3.76,2.6-5.17,14.25-27.61,29.91-54.44,45.46-81.33Q479.46,1127,590.77,934.65q76.53-132.42,152.84-265,118-204.51,236.12-409c8.22-14.22,16.57-28.37,24.87-42.54.72-1.23,1.54-2.41,2.46-3.83,1.66,1,2.18,2.62,3,4q15.15,26.17,30.25,52.39L1429.49,945l260,450.43c.88,1.53,1.69,3.1,2.57,4.73-3.38,3.83-7.64,5.12-12.22,5.69a31.65,31.65,0,0,1-3.9.09c-15.61,0-31.23-.16-46.85-.16l-818,0H320.16ZM380.74,1371c3.16,1.82,6.35,2,9.61,2q42.7,0,85.41,0,67.11,0,134.21.07h409.48c2.27,0,4.54-.23,6.82-.27,3.67-.07,6.19-1.68,7.39-5.62q-20.13-40.41-40.56-81.38c-3-.22-5.74-.53-8.49-.61-15-.48-29.9-1.18-44.87-.4-16.67.87-33,3.53-48.69,9.22-1,.37-2.14.63-3.28,1-1.22-1-2.37-1.89-3.46-2.84-2.1-1.8-4.22-3.58-6.23-5.47a5.89,5.89,0,0,0-4.8-1.89c-1.13.11-2.27,0-3.41,0H669.77q-53.21,0-106.4-.1c-4.71,0-9.43.18-14.15.22a20.82,20.82,0,0,1-11.55-3.31,12.92,12.92,0,0,1-2-2l86.17-150.41c-.6-.76-1-1.3-1.4-1.75-4.81-4.86-9.69-9.64-14.42-14.56a106,106,0,0,0-32.93-23.15c-6.37-2.88-12.71-5.81-19.08-8.7-1-.46-2.07-.83-3-1.2a20.84,20.84,0,0,0-9.44,9.05q-58.95,102-118.08,203.9-18,31-35.91,62.08A80.23,80.23,0,0,0,380.74,1371ZM1007.8,464.66a21.94,21.94,0,0,1,3.55,5.29q28.45,48.92,56.88,97.85c.87,1.5,1.37,3.33,3.19,4.26A99.15,99.15,0,0,0,1096,556.33a166.45,166.45,0,0,0,19.38-19.91c7.11-8.47,14.15-17,21.21-25.53a20.46,20.46,0,0,0,1.15-1.72c-1.9-3.43-3.77-6.85-5.68-10.25-15.58-27.8-30.94-55.73-46.83-83.36-12.31-21.43-25.26-42.49-37.29-64.1q-10.68-19.17-21.94-38c-5.75-9.63-11.91-19-17.93-28.49-.55-.85-.9-2.14-2.48-2-.81,1.37-1.64,2.76-2.45,4.16q-27,47-53.91,93.94-104,180.54-207.93,361.05c-13.14,22.84-26.08,45.78-39.09,68.69-.84,1.49-2,2.87-2.11,4.86,1.4.48,2.61.93,3.83,1.3,13.08,3.9,26.14,7.87,39.25,11.66,9.37,2.71,18.76,5.34,28.22,7.69,10.22,2.55,19.18-1.22,24.86-10,.18-.28.34-.56.5-.84,4.87-8.08,9.86-16.09,14.57-24.26,3.49-6,6.85-12.2,9.86-18.5a86.09,86.09,0,0,0,8.75-33.77,31,31,0,0,1,.5-3.34c1.07-.32,2-.61,2.92-.86a30.52,30.52,0,0,0,17-11.66,71.64,71.64,0,0,0,4.6-6.88q11-19,21.8-38.11c4.49-7.93,8.72-16,13.27-23.88Q941.46,575,993,485.94C997.28,478.6,1002.61,472,1007.8,464.66Zm626.27,902.59c-.94-1.69-1.72-3.11-2.53-4.51Q1470.47,1085.38,1309.38,808c-.57-1-1.09-2-1.72-2.94a4.62,4.62,0,0,0-7.72,0c-.38.53-.7,1.1-1,1.65q-14.06,22.29-28.08,44.58c-.68,1.08-1.21,2.24-1.79,3.32l74,143.15c-3.93,8.73-8.47,17-12.28,25.57l24.73,42.89,24.6,42.69q12.18,21.13,24.35,42.27l24.6,42.69,24.59,42.69c8.18,14.22,16.45,28.38,24.54,42.68l-2.65,5.51h-5.09q-45.14,0-90.28.11c-12.2,0-24.4.27-36.6.46-1.39,0-3-.4-4.16,1.07.35,1.35.67,2.77,1.07,4.16q9,30.89,18,61.79c1.46,5,2.87,10,4.32,15a3.6,3.6,0,0,0,1.89,2.67c2.81,1.27,5.55,2.69,8.76,2.75,5,.09,10.08.41,15.12.4q38.79-.09,77.59-.3l151.77-.75c3.74,0,7.48-.1,11.22-.06a3.8,3.8,0,0,0,4.1-2.71C1633.45,1368.73,1633.71,1368.14,1634.07,1367.25Zm-363.87,5.51c.31-1,.52-1.65.67-2.26,2.85-12.19,5.36-24.45,7.17-36.85,2-13.83,4.4-27.62,6.57-41.43s4.38-27.62,6.38-41.46q2.57-17.61,4.65-35.3A67.22,67.22,0,0,0,1293,1188c-11.31-37.18-24-73.89-36.57-110.66-1.69-4.94-4.44-9.35-7-14.12l-36.24,6.09c3.66,4,8.15,6.17,11.74,9.64,0,1.86.12,3.81,0,5.74a43.07,43.07,0,0,0,1.68,14.91c4.43,15.82,9.09,31.55,14.74,47a131,131,0,0,1,7.66,34.16,93.47,93.47,0,0,1-4,35.18c-1.79,5.91-3.74,11.78-5.4,17.72-4.27,15.35-8.4,30.73-12.61,46.1-.34,1.22-.85,2.39-1.32,3.69-2,.16-3.76.33-5.54.45q-16.31,1.19-32.61,2.34c-11.68.84-23.35,1.86-35,2.45a463.23,463.23,0,0,1-51.23.12c-2.9-.17-5.8-.5-8.51-.74a63.51,63.51,0,0,1-8.43-12.33c-3.23-6.57-6.56-13.09-9.85-19.62-9.21-18.3-18.12-36.76-28.52-54.43-1.4-2.38-2.65-4.86-3.86-7.34a54.24,54.24,0,0,1-5.85-21,25.29,25.29,0,0,0-.65-3.36c-3,2.94-16.24,20.33-18.51,24.28a8.24,8.24,0,0,0,.38,1.31q41.41,88.34,82.84,176.65a1,1,0,0,0,.3.36,9.61,9.61,0,0,0,.94.51C1157.28,1373.1,1213.55,1373.67,1270.2,1372.76Zm-362.68-467a60.2,60.2,0,0,0-9.61-6,45.88,45.88,0,0,0-8.88-3.92q-31-9.35-62.16-18.42c-19.81-5.82-39.72-11.24-59.89-15.65-1.4-.31-2.83-.43-4.18-.62-1,1.28-1.81,2.29-2.58,3.32q-37.8,51-75.58,101.92c-3.49,3.15-2.49,6.66-.8,10.19a18.73,18.73,0,0,0,1.6,2.45c1.2,1.75,2.4,3.48,3.62,5.21q23.13,33,46.24,65.92A41.56,41.56,0,0,0,748.07,1062c2.37,1.43,4.79,2.78,7.27,4,31.7,15.48,64,29.67,96.57,43.17.65.27,1.38,1,2.39.09-.42-1.12-.8-2.33-1.31-3.49q-13.4-30.33-26.82-60.67c-.85-1.93-1.73-3.85-2.5-5.82a30,30,0,0,1,1.16-25.49,63.56,63.56,0,0,1,3.73-6.3q30-45.39,60-90.77c1.61-2.44,3.23-4.87,5-7.46Zm305.34-268.19a11.54,11.54,0,0,0-1.92,0c-8.38,1.94-16.84,3.61-24.94,6.63q-39.51,14.7-79,29.37a140.51,140.51,0,0,0-20.89,9.33c-9.65,5.5-17.66,12.73-23.13,22.51a14.77,14.77,0,0,1-4.63,4.9,87.47,87.47,0,0,0-7.74,5.92c-5,4.43-9.93,8.91-14.7,13.57-16.08,15.71-30.45,33-44.53,50.45a12.33,12.33,0,0,0-1,1.87c5,3.89,9.62,8,14.69,11.47.18.13.58-.08,1-.16l4.56-13.92c3.49-.58,6.84-1.15,10.2-1.67q20.46-3.22,40.94-6.41,13.49-2.11,27-4.17a8.31,8.31,0,0,0,5.38-3c5.48-6.44,11.15-12.72,16.57-19.21,14.17-17,27.33-34.78,40.76-52.36,10.26-13.44,20.68-26.76,31.07-40.11,1.17-1.5,2.2-3.19,4.11-4.33,1.19,1.22,2.34,2.34,3.44,3.52,10.49,11.36,20.46,23.17,29.78,35.5,16.29,21.53,32.37,43.21,48.52,64.84a12.87,12.87,0,0,1,1,2.1l-74.32,116.53a.69.69,0,0,0-.1.46c0,.14.18.26.42.58a33.35,33.35,0,0,0,3-2.28c3.31-3.13,6.65-6.24,9.82-9.51,18.59-19.16,35.94-39.42,52.64-60.23,7.83-9.77,15.2-19.89,22.73-29.9a15.2,15.2,0,0,0,2.93-5.12ZM626.3,1238.87H854.45c1.47,0,2.93,0,4.4,0a20.33,20.33,0,0,0,2.28-.37,8.7,8.7,0,0,0-.16-1.72q-13.87-38.52-27.79-77a7.74,7.74,0,0,0-1-1.44c-1.26,1.06-2.5,2-3.67,3.09Q809,1178.8,789.6,1196.22c-1.3,1.16-2.4,2.67-4.42,3.11-.82-.33-1.73-.65-2.61-1l-21.84-9.68q-39.42-17.49-78.86-34.95c-1.43-.64-2.76-1.8-4.88-1.29-18.24,26.7-33.59,55.36-49.57,83.65A26.41,26.41,0,0,0,626.3,1238.87Zm763.72-2.33c-31.1-53.84-61.92-107.18-92.75-160.51-.47-.82-1.09-1.55-1.61-2.28-6.49,2.21-8.86,6.09-7.44,12.23.58,2.53,1.4,5,2.16,7.49q19,62.27,37.95,124.52c2.23,7.36,5.74,14.11,9.15,21,3.4.22,6.63.46,9.87.65a218.44,218.44,0,0,0,25.84.38A58.06,58.06,0,0,0,1390,1236.54ZM1007.36,576.78c-9.77,16.74-19.14,33-28.56,49.3s-18.75,32.34-28.09,48.52-18.92,32.54-28.26,48.95c1.62,1.75,3,3.25,5,3.91,25.13-20.28,95.15-96.48,102.65-111.8C1025,601.67,1016.81,589.32,1007.36,576.78Zm154.3,584.87q10.65-17.84,21.23-35.58a.77.77,0,0,0,0-.48,1.73,1.73,0,0,0-.18-.36c-9.12,1-27.07,8.51-41,17.06-12.56,7.71-28.65,20.45-31.77,25.17C1113.39,1167.64,1154.42,1163.06,1161.66,1161.65Z" transform="translate(-119.59 -173)"/><path d="M377,1373.46l174-293.59c16.52,6.81,48.48,22.36,52.84,27.05-.15-.25,9.25,11.32,18,22.31q-44.1,77.36-88.18,154.71c247.37,1.55,198.46.77,336.22.87l12.73.15,3.84,7.46a4.31,4.31,0,0,0,2.26,2.71c1.74.63,3.69-.77,4.07-1,2.59-1.7,14.79-4.5,47.05-9.26l53.28,1q19.53,43.32,39,86.64Z" transform="translate(-119.59 -173)"/><path d="M1007.8,464.66C989,493.4,971.28,522.74,954,552.38c-36.39,62.38-52,108.17-99.1,173.76-5.4,7.53-10,13.62-13,17.59L834,745a3.08,3.08,0,0,0-4.26,3.84l-8.13,33.57a303.46,303.46,0,0,1-24.83,43c-2.88,4.13-4.72,6.51-8,8.55-10.28,6.4-22.53,1.49-45.59-5.36-14.4-4.28-28.78-8.31-43.08-13C799.73,637.15,904.36,460.8,1005.56,283c1.58-.15,1.93,1.14,2.48,2,14.14,21.66,27.32,43.91,39.87,66.52,30.37,52.33,60.76,104.62,89.8,157.71-19.27,23.46-37.64,50.23-66.29,62.89C1048.75,537.47,1030.22,499.64,1007.8,464.66Z" transform="translate(-119.59 -173)"/><path d="M1635.43,1371.43H1363.8q-11.55-40.25-23.11-80.49a4.56,4.56,0,0,1,.73-2.93,4.44,4.44,0,0,1,2.06-1.65l138.33-1.4q-38.68-66.81-77.3-133.68-36.91-63.94-73.75-127.94c3.81-8.6,8.35-16.84,12.28-25.57-23.67-47.93-51.08-94.6-72.84-143.15a9.76,9.76,0,0,1,.61-3.32c20.23-31.2,27.26-42.58,28.08-44.58,1.06-2.54,4.25-4.45,6.77-3.42a4.42,4.42,0,0,1,2,1.78C1310.52,809.82,1578.1,1272.33,1635.43,1371.43Z" transform="translate(-119.59 -173)"/><path d="M1031.13,1138.46l-2.14,6.4a5.67,5.67,0,0,1-4.69,3.89l-71.25,21.42a4.44,4.44,0,0,1-2.87-1L920.24,1111l4.2-226.48a3.11,3.11,0,0,0-.32-.63,2.86,2.86,0,0,0-.83-.78,2.61,2.61,0,0,0-1-.33l-13.46-2.24a2.38,2.38,0,0,1-1.84-.48,2.5,2.5,0,0,1-.37-3.07q5.28-24.91,10.55-49.83l71.21-21.36,15.93,19c1.36,1.14,2.83,2.29,4.42,3.42a71.25,71.25,0,0,0,15.76,8.46l215.17,135a40.56,40.56,0,0,1,0,5.09,48.06,48.06,0,0,1-.7,5.53c-.75,3.89-20.09,32.79-49.15,70.77-3.33,2.33-7.35,4.89-8.14,4.07s1.92-4.53,3.06-6.1c5.36-7.39,18.78-28,41.71-64.1a5.74,5.74,0,0,0,1-2c.19-.69.44-1.6,0-2-.24-.24-.67-.31-2,0a10.57,10.57,0,0,0-3,1c-4.11,2.26-199,45.19-202.48,46a28.89,28.89,0,0,0-11.16,4.9,27.86,27.86,0,0,0-6.52,6.79q-2.44,6-4.88,12-21,51.78-39.6,102.88a.73.73,0,0,0,.13.44.71.71,0,0,0,.62.28ZM955.6,876.28c1.95,5.81,47.59,111.33,49.66,114.78,45.93-9.74,92.23-19.21,137.78-30.29l-149.55-97Z" transform="translate(-119.59 -173)"/><path d="M1270.2,1372.76c-56.88.42-113.88,1.29-169.61-.22-28-59.3-56.14-118.74-83.52-178.32,2.27-4,15.49-21.34,18.51-24.28l16.91-5,3,1c.47-.19.88-.19,1,0s0,.46-.15.79a3.7,3.7,0,0,1-.87,1.24c-.75.67-8.57,7.69-19.33,17.3q28.27,51.38,56.53,102.76l123.1-4.28a11.77,11.77,0,0,0,7.57-1.84,12.13,12.13,0,0,0,5.1-8.28l24.21-83.32a26.23,26.23,0,0,0,2.22-10.13,26,26,0,0,0-1.52-9.21l-28.53-92-42.18,6.65c19.94-13.62,43.75-16.53,66.68-22.38q21.6,56.46,43.19,112.92a38.11,38.11,0,0,1,2,9.16,38.74,38.74,0,0,1-.37,10.23Q1282.22,1284.13,1270.2,1372.76Z" transform="translate(-119.59 -173)"/><path d="M906,903.45a24.3,24.3,0,0,1,1,5.09q-1.53,6.62-3,13.22l-3.34-14.32q-39,54-78,107.92c-1.79,1.39-4.82,4.22-5.08,8.14-.13,1.82.59,3.59,2,7.12,1.37,3.36,2.18,4.39,4.15,8.62,0,0,1,2.12,2.5,5.82,0,0,21.85,53.23,26.36,60.31a.74.74,0,0,0,.46.36c.35.06.69-.4,1.12-.84q3-5.1,6.1-10.18a17.56,17.56,0,0,1-1,6.11,24.57,24.57,0,0,1-2,4.07,42.71,42.71,0,0,1-2.86,4.33,1.56,1.56,0,0,1-.88.43,3.13,3.13,0,0,1-1.51-.52c-32.59-13.5-64.87-27.69-96.57-43.17-2-1-3.34-1.89-7.27-4-4.24-2.27-5.24-2.7-6.89-3.88a27.67,27.67,0,0,1-6.1-6.11c-33.42-49.41-44.51-65.69-46-67.79-1.15-1.58-2-2.8-3.62-5.21a18.73,18.73,0,0,1-1.6-2.45c-1.69-3.53-2.69-7,.8-10.19q37.79-51,75.58-101.92c.77-1,1.58-2,2.58-3.32C774.8,863.86,902.76,893.55,906,903.45Z" transform="translate(-119.59 -173)"/><path d="M1212.86,637.53l73.67,127.23L1242.73,820,1197,869.88a1.33,1.33,0,0,1-1,1,1.38,1.38,0,0,1-1.22-.48,2.16,2.16,0,0,1,.2-2.58q18.35-26.73,36.78-54.78,19.53-29.74,37.74-58.83c-43.44-56.06-75-96.75-78.48-101.32-.53-.7-2.09-2.77-4.18-2.78-2.63,0-4.58,3.27-5.09,4.07-3.41,5.4-31,40.53-71,90.87-4.78,5.73-8.18,9.84-10.16,12.28-.27.33-1.1,1.35-2.28,2.66a41.92,41.92,0,0,1-4.07,4.07,16.25,16.25,0,0,1-7.12,3c-5.17,1.11-35.2,6.06-76.45,12.35l6.25,9,22.39,22.38a57.64,57.64,0,0,1-10.18-2,59,59,0,0,1-10.17-4.07c-6.52-3.36-8.87-6.39-20.86-16.32-3.44-2.86-6.2-5.13-7.7-6.36l94.69-102.45Z" transform="translate(-119.59 -173)"/><path d="M626.3,1238.87a26.41,26.41,0,0,1,1.12-2.85c16-28.29,31.33-57,49.57-83.65,2.12-.51,3.45.65,4.88,1.29q39.45,17.43,78.86,34.95l21.84,9.68c.88.39,1.79.71,2.61,1,2-.44,3.12-1.95,4.42-3.11q19.47-17.4,38.88-34.84c1.17-1.05,2.41-2,3.67-3.09a7.74,7.74,0,0,1,1,1.44q13.92,38.51,27.79,77a8.7,8.7,0,0,1,.16,1.72,20.33,20.33,0,0,1-2.28.37c-1.47.06-2.93,0-4.4,0H626.3Z" transform="translate(-119.59 -173)"/><path d="M1391.27,1238.16a127.91,127.91,0,0,1-16.28,1c-9.67,0-14.24-1.15-24.42-1a127.68,127.68,0,0,0-13.09.83c-3.41-6.89-6.92-13.64-9.15-21q-18.93-62.27-37.95-124.52c-.76-2.48-1.58-5-2.16-7.49-1.42-6.14,1-10,7.44-12.23l1.61,2.28A1072.87,1072.87,0,0,1,1391.27,1238.16Z" transform="translate(-119.59 -173)"/><path d="M1007.36,576.78l22.74,38.88a551.85,551.85,0,0,1-96.23,105.67,23,23,0,0,1-2.44,1,19.63,19.63,0,0,1-3.75,1,17.11,17.11,0,0,1-5.41,0q21.3-36.57,42.55-73.19T1007.36,576.78Z" transform="translate(-119.59 -173)"/><path d="M1161.66,1161.65l-51.69,5.81,72.77-42.23a1.73,1.73,0,0,1,.18.36.77.77,0,0,1,0,.48Q1172.3,1143.85,1161.66,1161.65Z" transform="translate(-119.59 -173)"/><path class="cls-1" d="M747.11,1055.57l-46.62-73.78,103.31,37.78Z" transform="translate(-119.59 -173)"/></svg>