<svg id="图层_1" data-name="图层 1" xmlns="http://www.w3.org/2000/svg" viewBox="0 0 1357 1444"><defs><style>.cls-1{fill:#fff;}</style></defs><title>铅封</title><path class="cls-1" d="M1024,1682H302V238H1659V1348a43.11,43.11,0,0,1-2.85-3.93q-54.2-93.84-108.35-187.71-200.27-346.86-400.63-693.66a7.19,7.19,0,0,1-.22-7.79c7.21-13.87,13.34-28.41,21.62-41.6q39.71-63.28,75.62-128.74c.93-1.7,1.83-3.42,2.51-4.68-12.89,0-25.65.1-38.39-.08-3.11,0-4.75,1.08-6.23,3.68q-37.36,65.76-75,131.38c-3.58,6.21-4.73,11.65-.72,17.91,1,1.61,1.86,4.61,1.06,5.91-6,9.7-12.46,19.13-19.18,29.26-6.47-13.58-12.67-26.45-18.66-39.41-.48-1,.17-2.87.79-4.07,3.54-6.79,7.21-13.51,10.86-20.23,1.93-3.54,3.92-7,6.11-11l7.46,9,69.88-124.09c-12.36.55-24.31,1.18-36.27,1.53a7.3,7.3,0,0,0-6.77,3.84c-16.3,25.55-32.57,51.12-49.33,76.37-3.75,5.65-4.68,9.91.15,15.05,1.28,1.36,2.62,4.32,2,5.56-5.68,11.15-11.8,22.08-18.17,33.78-6.78-12.82-13.18-24.84-19.46-36.93a3.7,3.7,0,0,1,.11-3.12c6.24-9.8,12.61-19.52,19.17-29.61,2.74,3.22,5.15,6,8,9.38l37-74.23c-12.74,0-25-.07-37.25.12-1.1,0-2.36,1.6-3.23,2.71-7.07,9-14.06,18.1-21.55,27.77l-33.78-57.69c-1.24,1.89-2.28,3.35-3.18,4.9q-22.47,38.64-44.9,77.3Q847.55,559.58,718,784.33q-104.3,181.11-208.11,362.49c-1.88,3.27-4.06,4-7.58,4q-96.24-.15-192.5-.07h-6.51c6.39,11.11,12.1,21.23,18.06,31.19.63,1,2.71,1.72,4.12,1.74q40,.65,80,1.07c22.66.26,45.33.09,68,.89,7.16.26,12.5-.6,16.25-7.2.79-1.4,3.5-2.38,5.34-2.41,13-.21,26-.12,39-.09a33.22,33.22,0,0,1,3.6.43c-7,11.25-14,21.8-20.23,32.77-3.07,5.38-6.27,7.74-12.86,7.14-13-1.17-26.12-1.19-39.75-1.71,1.46-3.16,2.65-5.75,4.19-9.07H334.66a11.16,11.16,0,0,0,.81,1.91c6,8.8,11.94,17.66,18.17,26.31a7.06,7.06,0,0,0,4.94,2.28c29.46.74,58.94,1.24,88.4,2,4,.11,6.93-.62,9.07-4.33.85-1.47,3-3.07,4.56-3.09,14.77-.24,29.54-.14,45.66-.14-4.19,7.75-7.63,14.14-11.11,20.5-3.19,5.84-5.08,14-10,16.85-5.13,3-13.23,1-20,1.11-8.41.08-16.82,0-25.75,0l3.23-7.67H366.82c3.15,6.7,7,12.71,8.85,19.28,3.36,11.75,10.2,15.78,22.16,14.11,7.95-1.12,16.17-.21,25.3-.21l-32.74,57.65H990.47v7.18c0,99.5.13,199-.21,298.52,0,8.57,4.67,13,10.23,19.29v-7.18q0-156.26.07-312.52c0-2.17,1.09-4.33,1.67-6.5.64,2.08,1.83,4.16,1.84,6.25q.13,151.75,0,303.52c0,3.47.81,5.84,3.68,8C1013.35,1672.9,1018.59,1677.54,1024,1682Z" transform="translate(-302 -238)"/><path d="M1024,1682c-5.39-4.46-10.63-9.1-16.22-13.3-2.87-2.17-3.69-4.54-3.68-8q.12-151.76,0-303.52c0-2.09-1.2-4.17-1.84-6.25-.58,2.17-1.67,4.33-1.67,6.5q-.12,156.25-.07,312.52v7.18c-5.56-6.3-10.26-10.72-10.23-19.29.34-99.51.21-199,.21-298.52v-7.18H390.39l32.74-57.65c-9.13,0-17.35-.91-25.3.21-12,1.67-18.8-2.36-22.16-14.11-1.87-6.57-5.7-12.58-8.85-19.28h75.79l-3.23,7.67c8.93,0,17.34.06,25.75,0,6.79-.07,14.89,1.9,20-1.11,4.93-2.89,6.82-11,10-16.85,3.48-6.36,6.92-12.75,11.11-20.5-16.12,0-30.89-.1-45.66.14-1.58,0-3.71,1.62-4.56,3.09-2.14,3.71-5,4.44-9.07,4.33-29.46-.77-58.94-1.27-88.4-2a7.06,7.06,0,0,1-4.94-2.28c-6.23-8.65-12.16-17.51-18.17-26.31a11.16,11.16,0,0,1-.81-1.91H468.89c-1.54,3.32-2.73,5.91-4.19,9.07,13.63.52,26.74.54,39.75,1.71,6.59.6,9.79-1.76,12.86-7.14,6.24-11,13.22-21.52,20.23-32.77a33.22,33.22,0,0,0-3.6-.43c-13,0-26-.12-39,.09-1.84,0-4.55,1-5.34,2.41-3.75,6.6-9.09,7.46-16.25,7.2-22.63-.8-45.3-.63-68-.89q-40-.46-80-1.07c-1.41,0-3.49-.69-4.12-1.74-6-10-11.67-20.08-18.06-31.19h6.51q96.26,0,192.5.07c3.52,0,5.7-.77,7.58-4Q613.79,965.5,718,784.33,847.42,559.5,977.22,334.88q22.35-38.72,44.9-77.3c.9-1.55,1.94-3,3.18-4.9l33.78,57.69c7.49-9.67,14.48-18.75,21.55-27.77.87-1.11,2.13-2.69,3.23-2.71,12.26-.19,24.51-.12,37.25-.12l-37,74.23c-2.83-3.34-5.24-6.16-8-9.38-6.56,10.09-12.93,19.81-19.17,29.61a3.7,3.7,0,0,0-.11,3.12c6.28,12.09,12.68,24.11,19.46,36.93,6.37-11.7,12.49-22.63,18.17-33.78.63-1.24-.71-4.2-2-5.56-4.83-5.14-3.9-9.4-.15-15.05,16.76-25.25,33-50.82,49.33-76.37a7.3,7.3,0,0,1,6.77-3.84c12-.35,23.91-1,36.27-1.53L1114.8,402.24l-7.46-9c-2.19,3.92-4.18,7.43-6.11,11-3.65,6.72-7.32,13.44-10.86,20.23-.62,1.2-1.27,3-.79,4.07,6,13,12.19,25.83,18.66,39.41,6.72-10.13,13.16-19.56,19.18-29.26.8-1.3,0-4.3-1.06-5.91-4-6.26-2.86-11.7.72-17.91q37.77-65.54,75-131.38c1.48-2.6,3.12-3.72,6.23-3.68,12.74.18,25.5.08,38.39.08-.68,1.26-1.58,3-2.51,4.68q-36,65.44-75.62,128.74c-8.28,13.19-14.41,27.73-21.62,41.6a7.19,7.19,0,0,0,.22,7.79q200.4,346.78,400.63,693.66,54.2,93.84,108.35,187.71A43.11,43.11,0,0,0,1659,1348v3h-66.36c7,11.61,13.54,22.38,19.84,33.3.87,1.5,1.22,4.34.38,5.63-6.55,10-13.45,19.81-20.66,30.29l-40.11-67.48,11.44-2.28c-6.32-11.36-12.34-22.25-18.47-33.07a3.22,3.22,0,0,0-2.37-1.32c-14.42-.08-28.85-.06-44.33-.06,4.47,8.56,9.28,15.86,12.21,23.85,3.76,10.22,9.46,14.71,20.31,11.2,2.66-.86,4.42.2,5.87,3q22.34,42.39,45,84.61a5.88,5.88,0,0,1-.27,6.81c-6,9.42-11.68,19-17.51,28.51-.64,1-1.45,1.95-2.43,3.26l-71.66-124,11.54-.76c-5.37-10.79-10.5-20.81-15.35-31-1.35-2.82-3-3.8-6.1-3.76-12.83.17-25.66.06-38.49.08-1.21,0-2.43.26-4.13.45,3.26,7.52,6.89,14.33,9.15,21.57,2.6,8.36,6.9,12.47,16,10.82,1.79-.32,4.93,1.31,5.92,2.95q41.33,69,82.25,138.17c.71,1.21,1.12,3.38.52,4.44-6.74,11.8-13.7,23.46-20.89,35.66-1.23-1.93-2.16-3.27-3-4.68q-50.45-85.89-100.8-171.86c-1.84-3.14-3.77-4.28-7.41-4.28q-176.75.15-353.47.09c-1.75,0-3.51.16-5.56.26,0,1.89,0,3.21,0,4.52q-.33,72-.66,144-.2,49.74-.34,99.48c-.08,19.49-.79,39,0,58.48.39,9.64-6.26,12.19-12.26,17.65V1351c-5.26-.44-3.66,3.42-3.66,5.56q-.12,152,0,304c0,3.6-.81,6.27-3.54,8.75-4.43,4-8.48,8.47-12.7,12.73Zm28.2-522.4H1327c-100-172.95-199.79-345.35-300-518.59l-300,518.6H997c3.23-10.44,6.29-20.34,9.37-30.32a5.67,5.67,0,0,0-1.2-.15c-7.72-.19-8.65-1.09-8.65-8.61q0-24.75,0-49.5c0-6.43,1.61-8,7.93-8.07q20.25,0,40.5,0c6.3,0,8,1.74,8,8q0,23.76,0,47.51c0,10.19,0,10.19-10.07,10.87-.21,0-.4.41-.12.1Zm400.77.52L1093.66,525.21l-9.43,13.23c1.1,1.83,2.06,3.38,3,5q17.54,30.21,35,60.43c3.53,6.12,3.83,12,1,19a63.11,63.11,0,0,0-4.24,21.25c-.37,11.86,5.28,22.15,11,32.15q128.6,223,257.2,445.89c5.57,9.66,11.08,19.36,16.63,29,4.16,7.23,10.13,10.62,18.68,9.45,4.43-.6,9-.39,13.47-.44C1441.36,1160.07,1446.65,1160.12,1453,1160.12ZM964.1,530.68,598.33,1163.52c6.67,1.76,10.58.24,13.9-5.72,11.25-20.19,23.26-40,34.84-60,4.15-7.17,9.92-11.28,18.33-11.95a42.25,42.25,0,0,0,10.6-2.55c13.47-4.78,22.12-14.83,29-26.82Q805.22,882.75,905.47,709q36.4-63.1,72.78-126.21c3.46-6,6.69-12.68,3.53-19.39C976.64,552.56,970.39,542.2,964.1,530.68Zm98.51,48.3c-3,4.74-5.27,8.79-8,12.55-1.81,2.5-1.18,4.16.26,6.59q18.4,31.11,36.41,62.47c3,5.28,3.17,10.55.32,16.56a53.65,53.65,0,0,0-4.47,18.16c-1.16,13.74,5.06,25.44,11.69,36.92q95.68,165.66,191.32,331.36l49.13,85.12c3.43,5.94,7.51,11.48,15,11.73,11.75.38,23.52.1,36.1.1Q1226.5,869.73,1062.61,579ZM662.46,1161.63c8.58,1.9,9.29,1.73,13.17-4.81,11.7-19.75,23.4-39.5,34.91-59.36,4.05-7,9.3-11.46,17.78-11.55a30.55,30.55,0,0,0,8.27-1.67c15.43-4.61,24.91-15.93,32.58-29.23q89.88-155.82,179.77-311.65Q979.6,690.2,1010.16,637c3-5.25,6.5-11.24,4-16.92-5.15-11.52-11.68-22.42-18.21-34.63Zm382.66,107.79,1.86-1c0-6.14.26-12.3-.1-18.42-.21-3.63,1.16-5.08,4.47-5.72,3.05-.59,6-1.56,9.66-2.54v26.83h326.36a43.68,43.68,0,0,1-1.44-4.14c-1.25-5.55-4.37-7.32-10.27-7.17-18.65.47-37.33.31-56,.11-8.13-.09-16.28-.68-24.38-1.47a6.69,6.69,0,0,1-4.53-3.4c-6.4-13.89-17.44-21.72-32.31-22.47-14-.71-28.21.79-42.33.94q-81.69.85-163.37,1.45c-4.26,0-8.52,0-12.87,0-.28,2-.52,3.57-.77,5.3h-26.78c-.31-1.93-.56-3.5-.79-5-11.85,0-23.34-.15-34.82,0-38,.59-75.93,1.42-113.89,1.93-36.81.5-73.63.7-110.44,1-21.66.21-43.31.4-65,.75-1.77,0-4.37.69-5.13,1.94-5.9,9.76-11.44,19.75-17.38,30.17H990.7v-26.73c1.62.55,2.54,1,3.49,1.17,5,1.1,7.07,3.86,6.41,9.2a77.8,77.8,0,0,0,0,13.48c.06,1.07,1.31,2.07,2,3.11.51-1,1.44-2.05,1.47-3.1.15-5.33.23-10.67,0-16-.12-3,.81-4.19,3.89-5,9.47-2.59,19-2.76,28.65-2.06,4.52.33,6.45,2.45,6.5,6.67.07,5.5-.09,11,.11,16.5C1043.29,1267.08,1044.46,1268.24,1045.12,1269.42Zm-349.61-55.75h315.35c.14-5.34-1.2-9.51-5.17-13.14-2-1.86-3.2-5.21-3.73-8.08-1-5.33-1.21-10.8-1.76-16.28-1.66-.13-2.81-.26-4-.29-35.62-.93-71.24-2.14-106.87-2.67-34.48-.51-69-.75-103.45-.24-20.26.29-40.53,2-60.73,3.77-3.83.33-8.67,2.92-10.82,6C707.66,1192.41,702,1202.8,695.51,1213.67ZM504,1160.19c13.23,0,26-.16,38.8.1,4,.09,6-1.54,7.69-4.79,4.74-9.17,9.7-18.21,14.51-27.34,7.21-13.69,13.82-27.83,25.56-38.45,1.82-1.64,4.79-2.13,7.31-2.82,5.84-1.6,12.44-1.79,17.47-4.71a74.4,74.4,0,0,0,27.11-27.46Q753.28,862.12,864,669.45c28.09-48.74,56.77-97.14,85.08-145.76,5.33-9.14,7.73-18.51-.47-27.58-.88-1-1.34-2.37-2.27-3.28-8.68-8.54-8.38-17.43-2.18-27.43,5.91-9.55,10.87-19.69,16.67-30.34,6.8,10.79,12.86,20.43,19.27,30.63,1.57-3.07,2.47-5.43,3.87-7.45,2.57-3.69,2-6.71-.47-10.36-4.46-6.62-8.21-13.71-12.47-20.46-1.65-2.61-1.51-4.67,0-7.28,6.24-11,12.27-22.12,18.4-33.18,1-1.79,2.06-3.54,3.59-6.15l17.37,28.62a78.1,78.1,0,0,1,4.52-6.61c2.39-2.84,2.47-5.18.1-8.27-4.55-5.95-8.78-12.15-12.8-18.47a6.89,6.89,0,0,1-.37-5.62c3.28-7.09,7-14,10.53-21,3.94-7.74,7.9-15.46,12.17-23.82,7.11,11.83,13.79,22.92,20.75,34.48,6.76-10.2,13.21-19.86,19.56-29.59.53-.82,1-2.36.54-3.05-2-3.35-4.22-6.52-6.49-9.93l-14.63,22.73L1024.73,309c-3.23,5.22-6.06,9.53-8.64,14q-35.57,61.35-71,122.75c-4.91,8.49-10.16,16.83-14.56,25.58-4.69,9.31-3.86,18.75,3.25,26.54,9.79,10.72,8.83,21.48,1.45,33.27C929,541,922.91,551,917,561Q798.93,763.86,680.75,966.66c-17.31,29.58-36.37,58.13-54.83,87-8.2,12.84-19.72,21.13-35.21,22.82a7.92,7.92,0,0,0-6.7,4.14c-13.28,22.11-26.73,44.13-39.93,66.29-1.65,2.77-3.19,4-6.54,4-7.32-.19-14.65.17-22,.22C507,1151.18,507,1151.19,504,1160.19Zm636-706.38c-6.8,9.63-13.39,19.21-20.28,28.57-2,2.71-2,4.61-.35,7.51,9.8,16.64,18.86,33.73,29.15,50.05,7.57,12,7.67,24.26,3.78,36.84-2.76,8.92-2.69,17.48.55,25.88a147,147,0,0,0,9.89,20.64Q1303.78,867.94,1445,1112.46c7.4,12.82,14.68,25.73,22.25,38.46,4.85,8.14,11.75,11.4,21.54,9.36,15.15-3.16,25.3,2.56,32.09,16.45,3.94,8,8.45,15.81,12.71,23.7.83,1.54,1.67,3.07,2.86,5.25l-31.91,1.51c1,5.46,3.64,7.79,9.24,7.38a162.73,162.73,0,0,1,21,0,8.49,8.49,0,0,1,5.88,3.18c8.57,12.89,16.83,26,25.15,39a22.54,22.54,0,0,1,1.36,3.05h-34.83c2.3,8,3.61,9.08,11,9.08s15,.16,22.5-.08c3.08-.1,4.75,1,6.34,3.56,8.13,13,16.48,25.83,24.72,38.74.74,1.16,1.3,2.44,2.38,4.5h-37.62c5.2,11.35,10,21.92,14.94,32.43a4.24,4.24,0,0,0,2.84,2.2c4.08.25,8.17.1,13.21.1-4.74-8.46-9-16-13.74-24.54H1615c-3.68-6.93-6.77-13.17-10.23-19.2q-33.51-58.5-67.15-116.93c-5.23-9.09-10.3-18.27-15.58-27.32-5-8.62-12-12.79-22.46-10.73-12.18,2.41-21.94-1.9-28.89-12.26-2-2.91-3.84-5.85-5.58-8.88Q1324.67,887.28,1184.36,644c-7.55-13.11-15.08-26.28-21.51-40-6-12.67-4.6-25.54,2.49-37.83a13.78,13.78,0,0,0,1.51-8.45,31.43,31.43,0,0,0-3.91-10.14c-9.24-16.38-18.76-32.6-28-49-7.62-13.47-7.06-18.64,2.75-30.68a17.85,17.85,0,0,1,2-2.27C1143.71,462.19,1144.46,458.46,1140,453.81Zm224.64,759.87c-1.86-8.57-1.86-8.64-10.25-8.87-18.29-.49-36.59-1-54.88-1.3-6.94-.12-12.61-2.35-15.37-9-5-12-14.92-16.06-26.74-16.51-18.12-.68-36.25-1.13-54.38-1.19-46.82-.16-93.63-.07-140.44,0-3.76,0-7.51.55-11.27.84-.33,2.49-.75,4.28-.79,6.09-.19,8.32-1.64,16-8,22.24-1.41,1.37-1.14,4.47-1.85,7.68ZM440.13,1329.47H462.7q87.23,0,174.45-.14a8.06,8.06,0,0,0,5.74-3.31c4.75-7.43,9.15-15.09,13.39-22.82,1.59-2.9,3.49-3.78,6.72-3.8,34.49-.22,69-.6,103.45-.93q53.22-.51,106.44-1,48.48-.4,97-.67c6.75,0,13.5,0,20.31,0v-11H984q-44.25.09-88.49.16-95,.11-190,.19c-17,0-34,.28-51,.25a6.62,6.62,0,0,0-6.41,3.61c-3.9,6.39-8.55,12.37-12,19-4.1,7.8-9.23,12.65-18.66,10.52a11.64,11.64,0,0,0-2.48.13H582.65c7.45-12.81,14.31-24.58,21.25-36.5-6.66-1.91-10.56-.22-13.71,5.46-5.16,9.3-11.33,18-16.85,27.14-1.67,2.75-3.49,3.85-6.77,3.8-13.33-.2-26.67-.08-40-.08h-6.68l19.82-34.32c-5.45-1.73-8.39-.13-11,4.11-5.3,8.66-11.36,16.84-16.73,25.46-2.19,3.52-4.57,4.94-8.79,4.85-13.5-.28-27-.1-40.5-.1h-6.08l18.39-35H439.67c-7.3,0-10.68,2.47-13.43,10.32h29.68C450.63,1306.42,445.68,1317.28,440.13,1329.47Zm995.11,19.27c-4-8.65-7.91-16.89-11.51-25.28-1.27-3-3-3.73-6-3.72-24.82.12-49.64.2-74.46-.09-3.35,0-7.47-1.28-9.85-3.46-3.81-3.5-7.88-7.82-9.32-12.57-3.65-12-12.22-16.36-23.27-16.61-14.1-.32-28.23.75-42.35.74-25.64,0-51.27-.35-76.91-.63-31.13-.34-62.26-.78-93.39-1.13-9.11-.1-18.21,0-27.2,0v9.49h114.3q52.73,0,105.44,0c23.22,0,33.73,8,40.22,30.15a24.36,24.36,0,0,0,1.16,2.35c24.18,0,48.81,0,73.43,0,5.65,0,12.46-1.64,16.63.92s5.71,9.38,8.27,14.41C1424.61,1351.6,1425.15,1351.86,1435.24,1348.74ZM1031.86,525.86c-7,7.56-9.39,15.08-2.37,23.43,1.15,1.36,1.72,3.2,2.58,4.81l13,24.69c3.11-4.94,5.84-9.07,8.28-13.35a4.24,4.24,0,0,0,0-3.6C1046.31,549.84,1039.11,537.93,1031.86,525.86Zm377.27,731.64c4.33,13.47,4.33,13.47,16.91,13.47h36.51c-2.56-4.51-4.57-8.27-6.83-11.88a3.89,3.89,0,0,0-2.83-1.53C1438.45,1257.47,1424,1257.5,1409.13,1257.5ZM1074.24,520.58c3.09-4.92,5.72-8.94,8.12-13.1a4.29,4.29,0,0,0,.41-3.52c-5.9-10.31-12-20.51-18.25-31.15-3,4.11-5.67,7.68-8.12,11.41a4.1,4.1,0,0,0-.35,3.48C1061.88,498.47,1067.88,509.15,1074.24,520.58Zm-58.3,1.94c1.82-2.7,2.89-4.78,4.42-6.46,2.9-3.2,2.78-6,.44-9.65-5.69-9-10.89-18.23-16.31-27.36-1.89-3.17-3.84-6.3-6-9.91-1.55,3.05-2.94,5.33-3.89,7.78-.59,1.54-1.28,3.72-.64,4.94C1001,495.19,1008.23,508.39,1015.94,522.52Zm455.15,735a57.35,57.35,0,0,1,2.91,6.33c1.33,4.4,4.17,5.5,8.58,5.25,7-.39,13.94-.1,20.91-.1h17.37c-1.85-3.67-3.09-6.55-4.73-9.19a4.9,4.9,0,0,0-3.36-2.19C1499.19,1257.44,1485.61,1257.49,1471.09,1257.49ZM1031.78,420.8c-6.5,7.86-6.5,7.86-2.13,16.09l2.09,4,15.32,29.22c2.47-3.69,4.61-6.61,6.39-9.72a4.28,4.28,0,0,0-.17-3.58C1046.21,444.77,1039,432.84,1031.78,420.8Zm-465.91,797c5.88,1.66,9.48.44,12.45-4.73,5.77-10.06,12.34-19.66,18.57-29.46,1.47-2.31,2.9-4.65,4.35-7-.3-.49-.6-1-.89-1.47-3,.93-7.49.88-8.9,2.93C582.64,1190.93,574.52,1204.21,565.87,1217.81Zm2.73,14.67c-8.83-.74-8.82-.74-12.59,5.87q-6.91,12.11-13.84,24.18c-1.86,3.25-3.66,6.52-5.55,9.88,6,1.54,9.91.48,12.41-5.25,2.37-5.43,5.81-10.41,8.76-15.59C561.29,1245.41,564.77,1239.25,568.6,1232.48Zm32.17,39.83c7.68,2.24,12.09,0,15.3-6.69,4.06-8.49,9.32-16.41,14-24.6.78-1.36,1.41-2.8,2.12-4.21l-.76-1.29c-3,.77-7.32.58-8.65,2.49C615.1,1249.11,608.11,1260.71,600.77,1272.31Zm64.7-93.75c-6.64-2-10.13.32-12.94,5.68-3.78,7.18-8.45,13.89-12.72,20.82-2.58,4.18-5.13,8.39-7.69,12.59.21.45.43.89.64,1.33,3-.72,7.55-.42,8.82-2.31C649.89,1204.31,657.49,1191.48,665.47,1178.56ZM1382.39,1207l-1.09,1.85c2.3,1.88,4.54,5.29,6.9,5.37,13.62.51,27.26.23,40.9.18a17.39,17.39,0,0,0,3-.87c-2.62-2.66-4.47-6.21-6.44-6.27C1411.28,1206.75,1396.83,1207,1382.39,1207Zm61.93,0c.89,5.73,3.59,7.93,9.19,7.62,8.64-.47,17.32-.12,26-.12h12.07c-2.11-3.49-1.55-7.56-6.42-7.53C1471.65,1207,1458.16,1207,1444.32,1207Zm-397.56,79c-5.77.82-3,4.91-3.45,7.44-.16.88,1.42,2.07,2.2,3.12l1.25-.8Zm-42.64,5.11.8-.47-2.76-4.55c-.56,1.64-1.22,3.26-1.63,4.94a5,5,0,0,0,.08,2.9c.34.84,1.27,1.43,1.94,2.14a7.2,7.2,0,0,0,1.5-2A10.59,10.59,0,0,0,1004.12,1291.07Z" transform="translate(-302 -238)"/><path class="cls-1" d="M1027,1682c4.22-4.26,8.27-8.7,12.7-12.73,2.73-2.48,3.54-5.15,3.54-8.75q-.13-152,0-304c0-2.14-1.6-6,3.66-5.56V1675.5c6-5.46,12.65-8,12.26-17.65-.78-19.47-.07-39,0-58.48q.18-49.74.34-99.48.32-72,.66-144c0-1.31,0-2.63,0-4.52,2-.1,3.81-.26,5.56-.26q176.73,0,353.47-.09c3.64,0,5.57,1.14,7.41,4.28q50.28,86,100.8,171.86c.82,1.41,1.75,2.75,3,4.68,7.19-12.2,14.15-23.86,20.89-35.66.6-1.06.19-3.23-.52-4.44q-41-69.16-82.25-138.17c-1-1.64-4.13-3.27-5.92-2.95-9.15,1.65-13.45-2.46-16-10.82-2.26-7.24-5.89-14-9.15-21.57,1.7-.19,2.92-.44,4.13-.45,12.83,0,25.66.09,38.49-.08,3.1,0,4.75.94,6.1,3.76,4.85,10.15,10,20.17,15.35,31l-11.54.76,71.66,124c1-1.31,1.79-2.23,2.43-3.26,5.83-9.51,11.55-19.09,17.51-28.51a5.88,5.88,0,0,0,.27-6.81q-22.65-42.22-45-84.61c-1.45-2.76-3.21-3.82-5.87-3-10.85,3.51-16.55-1-20.31-11.2-2.93-8-7.74-15.29-12.21-23.85,15.48,0,29.91,0,44.33.06a3.22,3.22,0,0,1,2.37,1.32c6.13,10.82,12.15,21.71,18.47,33.07l-11.44,2.28,40.11,67.48c7.21-10.48,14.11-20.27,20.66-30.29.84-1.29.49-4.13-.38-5.63-6.3-10.92-12.88-21.69-19.84-33.3H1659v331Z" transform="translate(-302 -238)"/><path class="cls-1" d="M1052.18,1159.6l-9.39-30.21c-.28.31-.09-.09.12-.1,10.07-.68,10.07-.68,10.07-10.87q0-23.76,0-47.51c0-6.21-1.75-7.94-8-8q-20.25,0-40.5,0c-6.32,0-7.92,1.64-7.93,8.07q-.06,24.75,0,49.5c0,7.52.93,8.42,8.65,8.61a5.67,5.67,0,0,1,1.2.15c-3.08,10-6.14,19.88-9.37,30.32H727l300-518.6c100.23,173.24,200,345.64,300,518.59ZM895,1025.68l264.64-1.73V964.27H895Zm264.8-122.31-264.33-2.08V962l264.33-2.51ZM983,1047.54h87.14v-21.19H983Zm93.21.24c14.57,0,28.69-.13,42.8,0,10.26.13,19.66-2.75,28.65-7.34a33.11,33.11,0,0,0,3.46-2.45h-74.91Zm-99.38.86v-10.35h-74l-.28,1.25c5.72,2.15,11.32,5.71,17.18,6.2C938.61,1047.31,957.52,1047.75,976.85,1048.64Zm85.28,2.69a6.86,6.86,0,0,0-1.71-.6q-34.64-.06-69.28,0c-1,0-2.07.79-3.1,1.22l-.19,1.89c6.21,2.37,12.3,6.33,18.65,6.8,13.54,1,27.24.59,40.84,0C1053.41,1060.35,1059.06,1057.74,1062.13,1051.33Z" transform="translate(-302 -238)"/><path class="cls-1" d="M1453,1160.12c-6.3,0-11.59,0-16.88,0-4.5,0-9-.16-13.47.44-8.55,1.17-14.52-2.22-18.68-9.45-5.55-9.66-11.06-19.36-16.63-29q-128.6-222.94-257.2-445.89c-5.77-10-11.42-20.29-11-32.15a63.11,63.11,0,0,1,4.24-21.25c2.8-7,2.5-12.87-1-19q-17.46-30.24-35-60.43c-.92-1.58-1.88-3.13-3-5l9.43-13.23Z" transform="translate(-302 -238)"/><path class="cls-1" d="M964.1,530.68c6.29,11.52,12.54,21.88,17.68,32.76,3.16,6.71-.07,13.38-3.53,19.39Q941.92,646,905.47,709,805.24,882.77,705,1056.51c-6.91,12-15.56,22-29,26.82a42.25,42.25,0,0,1-10.6,2.55c-8.41.67-14.18,4.78-18.33,11.95-11.58,20-23.59,39.78-34.84,60-3.32,6-7.23,7.48-13.9,5.72Z" transform="translate(-302 -238)"/><path class="cls-1" d="M1062.61,579q164.23,291.4,327.79,581.56c-12.58,0-24.35.28-36.1-.1-7.51-.25-11.59-5.79-15-11.73l-49.13-85.12Q1194.5,897.9,1098.83,732.23c-6.63-11.48-12.85-23.18-11.69-36.92a53.65,53.65,0,0,1,4.47-18.16c2.85-6,2.71-11.28-.32-16.56q-18-31.37-36.41-62.47c-1.44-2.43-2.07-4.09-.26-6.59C1057.34,587.77,1059.63,583.72,1062.61,579Z" transform="translate(-302 -238)"/><path class="cls-1" d="M662.46,1161.63,995.91,585.42c6.53,12.21,13.06,23.11,18.21,34.63,2.54,5.68-1,11.67-4,16.92q-30.57,53.22-61.22,106.39Q859.08,899.2,769.17,1055c-7.67,13.3-17.15,24.62-32.58,29.23a30.55,30.55,0,0,1-8.27,1.67c-8.48.09-13.73,4.58-17.78,11.55-11.51,19.86-23.21,39.61-34.91,59.36C671.75,1163.36,671,1163.53,662.46,1161.63Z" transform="translate(-302 -238)"/><path class="cls-1" d="M1045.12,1269.42c-.66-1.18-1.83-2.34-1.88-3.54-.2-5.49,0-11-.11-16.5-.05-4.22-2-6.34-6.5-6.67-9.68-.7-19.18-.53-28.65,2.06-3.08.84-4,2-3.89,5,.21,5.32.13,10.66,0,16,0,1-1,2.07-1.47,3.1-.7-1-2-2-2-3.11a77.8,77.8,0,0,1,0-13.48c.66-5.34-1.42-8.1-6.41-9.2-1-.21-1.87-.62-3.49-1.17v26.73H664.92c5.94-10.42,11.48-20.41,17.38-30.17.76-1.25,3.36-1.91,5.13-1.94,21.65-.35,43.3-.54,65-.75,36.81-.34,73.63-.54,110.44-1,38-.51,75.93-1.34,113.89-1.93,11.48-.18,23,0,34.82,0,.23,1.47.48,3,.79,5h26.78c.25-1.73.49-3.34.77-5.3,4.35,0,8.61,0,12.87,0q81.68-.69,163.37-1.45c14.12-.15,28.28-1.65,42.33-.94,14.87.75,25.91,8.58,32.31,22.47a6.69,6.69,0,0,0,4.53,3.4c8.1.79,16.25,1.38,24.38,1.47,18.66.2,37.34.36,56-.11,5.9-.15,9,1.62,10.27,7.17a43.68,43.68,0,0,0,1.44,4.14H1061v-26.83c-3.64,1-6.61,2-9.66,2.54-3.31.64-4.68,2.09-4.47,5.72.36,6.12.1,12.28.1,18.42Z" transform="translate(-302 -238)"/><path class="cls-1" d="M695.51,1213.67c6.51-10.87,12.15-21.26,18.86-30.92,2.15-3.09,7-5.68,10.82-6,20.2-1.75,40.47-3.48,60.73-3.77,34.48-.51,69-.27,103.45.24,35.63.53,71.25,1.74,106.87,2.67,1.15,0,2.3.16,4,.29.55,5.48.78,10.95,1.76,16.28.53,2.87,1.69,6.22,3.73,8.08,4,3.63,5.31,7.8,5.17,13.14Z" transform="translate(-302 -238)"/><path class="cls-1" d="M504,1160.19c3-9,3-9,11.57-9.08,7.33,0,14.66-.41,22-.22,3.35.09,4.89-1.19,6.54-4,13.2-22.16,26.65-44.18,39.93-66.29a7.92,7.92,0,0,1,6.7-4.14c15.49-1.69,27-10,35.21-22.82,18.46-28.89,37.52-57.44,54.83-87Q799.31,764.09,917,561c5.87-10.07,12-20,18.15-29.88,7.38-11.79,8.34-22.55-1.45-33.27-7.11-7.79-7.94-17.23-3.25-26.54,4.4-8.75,9.65-17.09,14.56-25.58q35.51-61.39,71-122.75c2.58-4.46,5.41-8.77,8.64-14l19.56,31.3,14.63-22.73c2.27,3.41,4.53,6.58,6.49,9.93.41.69,0,2.23-.54,3.05-6.35,9.73-12.8,19.39-19.56,29.59-7-11.56-13.64-22.65-20.75-34.48-4.27,8.36-8.23,16.08-12.17,23.82-3.56,7-7.25,13.87-10.53,21a6.89,6.89,0,0,0,.37,5.62c4,6.32,8.25,12.52,12.8,18.47,2.37,3.09,2.29,5.43-.1,8.27a78.1,78.1,0,0,0-4.52,6.61L993,380.81c-1.53,2.61-2.6,4.36-3.59,6.15-6.13,11.06-12.16,22.18-18.4,33.18-1.49,2.61-1.63,4.67,0,7.28,4.26,6.75,8,13.84,12.47,20.46,2.47,3.65,3,6.67.47,10.36-1.4,2-2.3,4.38-3.87,7.45-6.41-10.2-12.47-19.84-19.27-30.63-5.8,10.65-10.76,20.79-16.67,30.34-6.2,10-6.5,18.89,2.18,27.43.93.91,1.39,2.3,2.27,3.28,8.2,9.07,5.8,18.44.47,27.58-28.31,48.62-57,97-85.08,145.76q-111,192.54-221.6,385.27a74.4,74.4,0,0,1-27.11,27.46c-5,2.92-11.63,3.11-17.47,4.71-2.52.69-5.49,1.18-7.31,2.82-11.74,10.62-18.35,24.76-25.56,38.45-4.81,9.13-9.77,18.17-14.51,27.34-1.68,3.25-3.72,4.88-7.69,4.79C530,1160,517.22,1160.19,504,1160.19Z" transform="translate(-302 -238)"/><path class="cls-1" d="M1140,453.81c4.5,4.65,3.75,8.38-.34,11.85a17.85,17.85,0,0,0-2,2.27c-9.81,12-10.37,17.21-2.75,30.68,9.27,16.37,18.79,32.59,28,49a31.43,31.43,0,0,1,3.91,10.14,13.78,13.78,0,0,1-1.51,8.45c-7.09,12.29-8.45,25.16-2.49,37.83,6.43,13.67,14,26.84,21.51,40q140.27,243.34,280.71,486.61c1.74,3,3.63,6,5.58,8.88,6.95,10.36,16.71,14.67,28.89,12.26,10.43-2.06,17.44,2.11,22.46,10.73,5.28,9,10.35,18.23,15.58,27.32q33.57,58.47,67.15,116.93c3.46,6,6.55,12.27,10.23,19.2h-36.08c4.75,8.5,9,16.08,13.74,24.54-5,0-9.13.15-13.21-.1a4.24,4.24,0,0,1-2.84-2.2c-5-10.51-9.74-21.08-14.94-32.43h37.62c-1.08-2.06-1.64-3.34-2.38-4.5-8.24-12.91-16.59-25.76-24.72-38.74-1.59-2.55-3.26-3.66-6.34-3.56-7.49.24-15,.08-22.5.08s-8.7-1.07-11-9.08h34.83a22.54,22.54,0,0,0-1.36-3.05c-8.32-13.06-16.58-26.16-25.15-39a8.49,8.49,0,0,0-5.88-3.18,162.73,162.73,0,0,0-21,0c-5.6.41-8.25-1.92-9.24-7.38l31.91-1.51c-1.19-2.18-2-3.71-2.86-5.25-4.26-7.89-8.77-15.66-12.71-23.7-6.79-13.89-16.94-19.61-32.09-16.45-9.79,2-16.69-1.22-21.54-9.36-7.57-12.73-14.85-25.64-22.25-38.46Q1303.83,867.9,1162.7,623.3a147,147,0,0,1-9.89-20.64c-3.24-8.4-3.31-17-.55-25.88,3.89-12.58,3.79-24.84-3.78-36.84-10.29-16.32-19.35-33.41-29.15-50.05-1.7-2.9-1.65-4.8.35-7.51C1126.57,473,1133.16,463.44,1140,453.81Z" transform="translate(-302 -238)"/><path class="cls-1" d="M1364.6,1213.68h-324c.71-3.21.44-6.31,1.85-7.68,6.41-6.21,7.86-13.92,8-22.24,0-1.81.46-3.6.79-6.09,3.76-.29,7.51-.83,11.27-.84,46.81,0,93.62-.14,140.44,0,18.13.06,36.26.51,54.38,1.19,11.82.45,21.71,4.5,26.74,16.51,2.76,6.61,8.43,8.84,15.37,9,18.29.31,36.59.81,54.88,1.3C1362.74,1205,1362.74,1205.11,1364.6,1213.68Z" transform="translate(-302 -238)"/><path class="cls-1" d="M440.13,1329.47c5.55-12.19,10.5-23,15.79-34.68H426.24c2.75-7.85,6.13-10.32,13.43-10.32H475l-18.39,35h6.08c13.5,0,27-.18,40.5.1,4.22.09,6.6-1.33,8.79-4.85,5.37-8.62,11.43-16.8,16.73-25.46,2.59-4.24,5.53-5.84,11-4.11l-19.82,34.32h6.68c13.33,0,26.67-.12,40,.08,3.28,0,5.1-1,6.77-3.8,5.52-9.11,11.69-17.84,16.85-27.14,3.15-5.68,7-7.37,13.71-5.46-6.94,11.92-13.8,23.69-21.25,36.5H615a11.64,11.64,0,0,1,2.48-.13c9.43,2.13,14.56-2.72,18.66-10.52,3.47-6.61,8.12-12.59,12-19a6.62,6.62,0,0,1,6.41-3.61c17,0,34-.23,51-.25q95-.14,190-.19,44.25,0,88.49-.16h6.17v11c-6.81,0-13.56,0-20.31,0q-48.48.32-97,.67-53.22.43-106.44,1c-34.48.33-69,.71-103.45.93-3.23,0-5.13.9-6.72,3.8-4.24,7.73-8.64,15.39-13.39,22.82a8.06,8.06,0,0,1-5.74,3.31q-87.23.26-174.45.14Z" transform="translate(-302 -238)"/><path class="cls-1" d="M1435.24,1348.74c-10.09,3.12-10.63,2.86-14.86-5.42-2.56-5-4.12-11.86-8.27-14.41s-11-.91-16.63-.92c-24.62,0-49.25,0-73.43,0a24.36,24.36,0,0,1-1.16-2.35c-6.49-22.19-17-30.12-40.22-30.15q-52.73-.06-105.44,0h-114.3V1286c9,0,18.09-.08,27.2,0,31.13.35,62.26.79,93.39,1.13,25.64.28,51.27.61,76.91.63,14.12,0,28.25-1.06,42.35-.74,11,.25,19.62,4.64,23.27,16.61,1.44,4.75,5.51,9.07,9.32,12.57,2.38,2.18,6.5,3.43,9.85,3.46,24.82.29,49.64.21,74.46.09,3.06,0,4.78.76,6,3.72C1427.33,1331.85,1431.27,1340.09,1435.24,1348.74Z" transform="translate(-302 -238)"/><path class="cls-1" d="M1031.86,525.86c7.25,12.07,14.45,24,21.51,36a4.24,4.24,0,0,1,0,3.6c-2.44,4.28-5.17,8.41-8.28,13.35l-13-24.69c-.86-1.61-1.43-3.45-2.58-4.81C1022.47,540.94,1024.81,533.42,1031.86,525.86Z" transform="translate(-302 -238)"/><path class="cls-1" d="M1409.13,1257.5c14.88,0,29.32,0,43.76.06a3.89,3.89,0,0,1,2.83,1.53c2.26,3.61,4.27,7.37,6.83,11.88H1426C1413.46,1271,1413.46,1271,1409.13,1257.5Z" transform="translate(-302 -238)"/><path class="cls-1" d="M1074.24,520.58c-6.36-11.43-12.36-22.11-18.19-32.88a4.1,4.1,0,0,1,.35-3.48c2.45-3.73,5.16-7.3,8.12-11.41,6.27,10.64,12.35,20.84,18.25,31.15a4.29,4.29,0,0,1-.41,3.52C1080,511.64,1077.33,515.66,1074.24,520.58Z" transform="translate(-302 -238)"/><path class="cls-1" d="M1015.94,522.52c-7.71-14.13-15-27.33-22-40.66-.64-1.22.05-3.4.64-4.94,1-2.45,2.34-4.73,3.89-7.78,2.21,3.61,4.16,6.74,6,9.91,5.42,9.13,10.62,18.4,16.31,27.36,2.34,3.67,2.46,6.45-.44,9.65C1018.83,517.74,1017.76,519.82,1015.94,522.52Z" transform="translate(-302 -238)"/><path class="cls-1" d="M1471.09,1257.49c14.52,0,28.1,0,41.68.1a4.9,4.9,0,0,1,3.36,2.19c1.64,2.64,2.88,5.52,4.73,9.19h-17.37c-7,0-14-.29-20.91.1-4.41.25-7.25-.85-8.58-5.25A57.35,57.35,0,0,0,1471.09,1257.49Z" transform="translate(-302 -238)"/><path class="cls-1" d="M1031.78,420.8c7.23,12,14.43,24,21.5,36a4.28,4.28,0,0,1,.17,3.58c-1.78,3.11-3.92,6-6.39,9.72l-15.32-29.22-2.09-4C1025.28,428.66,1025.28,428.66,1031.78,420.8Z" transform="translate(-302 -238)"/><path class="cls-1" d="M565.87,1217.81c8.65-13.6,16.77-26.88,25.58-39.7,1.41-2,5.86-2,8.9-2.93.29.49.59,1,.89,1.47-1.45,2.32-2.88,4.66-4.35,7-6.23,9.8-12.8,19.4-18.57,29.46C575.35,1218.25,571.75,1219.47,565.87,1217.81Z" transform="translate(-302 -238)"/><path class="cls-1" d="M568.6,1232.48c-3.83,6.77-7.31,12.93-10.81,19.09-2.95,5.18-6.39,10.16-8.76,15.59-2.5,5.73-6.39,6.79-12.41,5.25,1.89-3.36,3.69-6.63,5.55-9.88q6.9-12.09,13.84-24.18C559.78,1231.74,559.77,1231.74,568.6,1232.48Z" transform="translate(-302 -238)"/><path class="cls-1" d="M600.77,1272.31c7.34-11.6,14.33-23.2,22-34.3,1.33-1.91,5.69-1.72,8.65-2.49l.76,1.29c-.71,1.41-1.34,2.85-2.12,4.21-4.71,8.19-10,16.11-14,24.6C612.86,1272.35,608.45,1274.55,600.77,1272.31Z" transform="translate(-302 -238)"/><path class="cls-1" d="M665.47,1178.56c-8,12.92-15.58,25.75-23.89,38.11-1.27,1.89-5.8,1.59-8.82,2.31-.21-.44-.43-.88-.64-1.33,2.56-4.2,5.11-8.41,7.69-12.59,4.27-6.93,8.94-13.64,12.72-20.82C655.34,1178.88,658.83,1176.52,665.47,1178.56Z" transform="translate(-302 -238)"/><path class="cls-1" d="M1382.39,1207c14.44,0,28.89-.22,43.31.26,2,.06,3.82,3.61,6.44,6.27a17.39,17.39,0,0,1-3,.87c-13.64.05-27.28.33-40.9-.18-2.36-.08-4.6-3.49-6.9-5.37Z" transform="translate(-302 -238)"/><path class="cls-1" d="M1444.32,1207c13.84,0,27.33.07,40.82,0,4.87,0,4.31,4,6.42,7.53h-12.07c-8.66,0-17.34-.35-26,.12C1447.91,1214.89,1445.21,1212.69,1444.32,1207Z" transform="translate(-302 -238)"/><path class="cls-1" d="M1046.76,1286v9.76l-1.25.8c-.78-1-2.36-2.24-2.2-3.12C1043.76,1290.87,1041,1286.78,1046.76,1286Z" transform="translate(-302 -238)"/><path class="cls-1" d="M1004.12,1291.07a10.59,10.59,0,0,1-.07,2.93,7.2,7.2,0,0,1-1.5,2c-.67-.71-1.6-1.3-1.94-2.14a5,5,0,0,1-.08-2.9c.41-1.68,1.07-3.3,1.63-4.94l2.76,4.55Z" transform="translate(-302 -238)"/><path d="M895,1025.68V964.27h264.64V1024Z" transform="translate(-302 -238)"/><path d="M1159.84,903.37v56.15L895.51,962V901.29Z" transform="translate(-302 -238)"/><path d="M983,1047.54v-21.19h87.14v21.19Z" transform="translate(-302 -238)"/><path d="M1076.23,1047.78V1038h74.91a33.11,33.11,0,0,1-3.46,2.45c-9,4.59-18.39,7.47-28.65,7.34C1104.92,1047.65,1090.8,1047.78,1076.23,1047.78Z" transform="translate(-302 -238)"/><path d="M976.85,1048.64c-19.33-.89-38.24-1.33-57.06-2.9-5.86-.49-11.46-4-17.18-6.2l.28-1.25h74Z" transform="translate(-302 -238)"/><path d="M1062.13,1051.33c-3.07,6.41-8.72,9-14.79,9.28-13.6.6-27.3,1-40.84,0-6.35-.47-12.44-4.43-18.65-6.8l.19-1.89c1-.43,2.07-1.22,3.1-1.22q34.65-.07,69.28,0A6.86,6.86,0,0,1,1062.13,1051.33Z" transform="translate(-302 -238)"/></svg>